<?xml version="1.0" encoding="utf-8"?>
<!-- Generator: Adobe Illustrator 27.7.0, SVG Export Plug-In . SVG Version: 6.00 Build 0)  -->
<svg version="1.1" id="Layer_1" xmlns="http://www.w3.org/2000/svg" xmlns:xlink="http://www.w3.org/1999/xlink" x="0px" y="0px"
	 viewBox="0 0 57.6 13.05" style="enable-background:new 0 0 57.6 13.05;" xml:space="preserve">
<style type="text/css">
	.st0{fill:#FFFFFF;}
</style>
<g>
	<g>
		<path class="st0" d="M10.8,2.78c-0.01,0.68-0.01,1.36-0.02,2.05s-0.01,1.22-0.01,1.62c0,0.89,0,1.68,0.01,2.39
			s0.01,1.15,0.01,1.34l-1.4,0.57c-0.99-1.31-1.9-2.48-2.75-3.51S5.29,5.58,5.11,5.37L5.08,5.38c0,0.84,0,1.86,0.01,3.05
			c0.01,1.19,0.01,1.93,0.01,2.2h-1.8c0-0.2,0.01-0.62,0.01-1.29s0.01-1.49,0.01-2.48c0-0.4,0-0.92-0.01-1.55S3.31,4,3.31,3.28
			l1.52-0.61C5,2.88,5.51,3.5,6.35,4.55S8.08,6.66,9,7.74l0.02-0.01c0-0.54-0.01-1.34-0.02-2.4C9,4.27,8.99,3.42,8.99,2.78H10.8z"/>
		<path class="st0" d="M17.7,7.51c0,0.96,0,1.69,0,2.21s0,0.82,0,0.9c-0.06,0.01-0.32,0.03-0.76,0.06
			c-0.45,0.03-0.92,0.04-1.42,0.04c-0.33,0-0.7-0.03-1.12-0.08s-0.77-0.14-1.05-0.26c-0.36-0.16-0.64-0.36-0.84-0.62
			s-0.3-0.56-0.3-0.9c0-0.38,0.11-0.7,0.33-0.96s0.56-0.48,1.02-0.66c0.31-0.12,0.69-0.21,1.14-0.28s0.86-0.11,1.23-0.14
			c-0.01-0.21-0.07-0.38-0.17-0.52S15.47,6.07,15.24,6c-0.16-0.05-0.33-0.09-0.52-0.11s-0.42-0.03-0.68-0.03
			c-0.24,0-0.44,0-0.61,0.01s-0.35,0.02-0.54,0.02l0.16-1.31c0.08,0,0.2-0.01,0.38-0.01s0.41-0.01,0.73-0.01
			c0.66,0,1.21,0.06,1.65,0.17c0.44,0.11,0.81,0.3,1.11,0.56c0.28,0.24,0.48,0.53,0.61,0.87S17.7,6.96,17.7,7.51z M16,8.59
			c0-0.12,0-0.27,0-0.44S16,7.82,16,7.63c-0.11,0-0.31,0.03-0.6,0.07s-0.55,0.11-0.77,0.21c-0.16,0.06-0.3,0.16-0.43,0.29
			s-0.2,0.3-0.2,0.49c0,0.22,0.06,0.39,0.17,0.52s0.26,0.23,0.45,0.3c0.13,0.05,0.28,0.08,0.45,0.11s0.35,0.04,0.54,0.04
			c0.05,0,0.11,0,0.18,0s0.14,0,0.21,0c0-0.05,0-0.17,0-0.36S16,8.87,16,8.59z"/>
		<path class="st0" d="M25.17,7.55c0,0.62-0.15,1.16-0.46,1.61s-0.74,0.8-1.29,1.05c-0.39,0.17-0.84,0.29-1.35,0.37
			s-1.13,0.11-1.87,0.11c-0.21,0-0.38,0-0.51,0s-0.26,0-0.38,0c0-0.27,0-0.78,0.01-1.53s0.01-1.75,0.01-2.99
			c0-0.91,0-1.69-0.01-2.35s-0.01-1.25-0.01-1.77h1.8l-0.02,2.63c0.62,0.02,1.13,0.08,1.54,0.18s0.78,0.25,1.1,0.43
			c0.46,0.24,0.82,0.55,1.06,0.95S25.17,7.06,25.17,7.55z M23.36,7.53c0-0.34-0.09-0.63-0.27-0.88s-0.42-0.43-0.72-0.55
			c-0.18-0.08-0.36-0.13-0.56-0.16s-0.4-0.05-0.61-0.05c-0.04,0-0.07,0-0.1,0s-0.06,0-0.08,0c0,0.07,0,0.31,0,0.71s0,0.74,0,1
			c0,0.44,0,0.78,0,1s0,0.47,0,0.73c0.3,0,0.58-0.02,0.84-0.07s0.49-0.12,0.67-0.23c0.28-0.16,0.49-0.36,0.63-0.6
			S23.36,7.9,23.36,7.53z"/>
		<path class="st0" d="M28.25,3.71h-1.86V2.33h1.86V3.71z M28.22,10.63h-1.8c0-0.19,0-0.59,0.01-1.2s0.01-1.18,0.01-1.71
			c0-0.45,0-0.92,0-1.41s-0.01-1.05-0.01-1.66h1.8c0,0.56-0.01,1.06-0.01,1.5s-0.01,0.94-0.01,1.5c0,0.89,0,1.57,0.01,2.03
			S28.22,10.45,28.22,10.63z"/>
		<path class="st0" d="M36.65,6.56c0,0.3-0.01,0.63-0.01,0.99s-0.01,0.68-0.01,0.95c0,0.37,0,0.74,0.01,1.11s0.01,0.71,0.01,1.02
			c-0.05,0.01-0.23,0.03-0.54,0.05c-0.31,0.02-0.57,0.03-0.79,0.03c-0.88,0-1.68-0.09-2.38-0.27s-1.36-0.51-1.95-0.98
			c-0.39-0.31-0.71-0.7-0.95-1.16s-0.36-1-0.36-1.59c0-0.66,0.16-1.25,0.49-1.77s0.8-0.96,1.41-1.31c0.49-0.3,1.07-0.52,1.74-0.68
			s1.41-0.23,2.22-0.23c0.1,0,0.19,0,0.27,0s0.16,0,0.23,0l0.21,1.62c-0.04,0-0.11,0-0.21,0s-0.2,0-0.29,0
			c-0.4,0-0.83,0.03-1.28,0.1s-0.86,0.17-1.22,0.32c-0.49,0.2-0.88,0.48-1.16,0.85c-0.28,0.37-0.42,0.77-0.42,1.21
			c0,0.49,0.11,0.9,0.34,1.23c0.22,0.33,0.51,0.59,0.86,0.78c0.27,0.14,0.58,0.25,0.91,0.33s0.67,0.12,1.02,0.14
			c0-0.07,0-0.34,0-0.79s-0.01-1.1-0.01-1.95H36.65z"/>
		<path class="st0" d="M43.99,10.63h-1.75v-0.57l-0.01-0.01c-0.28,0.16-0.63,0.32-1.05,0.49s-0.82,0.25-1.19,0.25
			c-0.57,0-1.01-0.17-1.33-0.5s-0.47-0.8-0.47-1.38c0-0.37,0-0.77,0.01-1.2s0.01-0.75,0.01-0.95c0-0.36,0-0.78-0.01-1.25
			s-0.01-0.76-0.01-0.86h1.8c0,0.1,0,0.37-0.01,0.82s-0.01,0.82-0.01,1.12c0,0.24,0,0.54,0.01,0.9s0.01,0.63,0.01,0.8
			c0,0.34,0.06,0.61,0.16,0.79s0.29,0.28,0.57,0.28c0.25,0,0.53-0.06,0.83-0.19s0.52-0.24,0.67-0.34c0-0.03,0-0.22,0.01-0.59
			s0.01-0.78,0.01-1.24c0-0.4,0-0.86-0.01-1.39s-0.01-0.85-0.01-0.96h1.8c0,0.1,0,0.39-0.01,0.88s-0.01,1.1-0.01,1.85
			c0,0.52,0,0.98,0.01,1.39S43.98,9.79,43.99,10.63z"/>
		<path class="st0" d="M51.07,10.68c-0.09,0-0.23,0-0.4,0.01s-0.33,0.01-0.47,0.01c-0.83,0-1.5-0.04-2-0.11s-0.95-0.21-1.33-0.4
			c-0.54-0.26-0.95-0.6-1.23-1.03s-0.42-0.91-0.42-1.45c0-0.56,0.15-1.07,0.46-1.52s0.77-0.81,1.38-1.06
			c0.32-0.14,0.68-0.25,1.08-0.32s0.78-0.11,1.16-0.13l-0.02-2.63h1.8c0,0.11,0,0.61-0.01,1.5s-0.01,1.89-0.01,3
			c0,0.96,0,1.79,0.01,2.46S51.07,10.24,51.07,10.68z M49.36,6.99c0-0.14,0-0.29,0-0.46s0-0.34,0-0.5c-0.27,0-0.53,0.02-0.77,0.06
			S48.12,6.2,47.91,6.3c-0.29,0.13-0.51,0.33-0.67,0.58s-0.24,0.55-0.24,0.89c0,0.3,0.07,0.57,0.21,0.8s0.33,0.42,0.58,0.56
			c0.2,0.11,0.43,0.2,0.67,0.25s0.5,0.08,0.77,0.08c0.02,0,0.04,0,0.06,0s0.04,0,0.06,0c0-0.04,0-0.27,0-0.69S49.36,7.75,49.36,6.99
			z"/>
		<path class="st0" d="M54.63,3.71h-1.86V2.33h1.86V3.71z M54.61,10.63h-1.8c0-0.19,0-0.59,0.01-1.2s0.01-1.18,0.01-1.71
			c0-0.45,0-0.92,0-1.41s-0.01-1.05-0.01-1.66h1.8c0,0.56-0.01,1.06-0.01,1.5s-0.01,0.94-0.01,1.5c0,0.89,0,1.57,0.01,2.03
			S54.61,10.45,54.61,10.63z"/>
	</g>
</g>
</svg>
