<svg id="Layer_1" data-name="Layer 1" xmlns="http://www.w3.org/2000/svg" viewBox="0 0 567.21 479.79"><defs><style>.cls-1{fill:#706454;}.cls-2{fill:#476198;}.cls-3{fill:#deab6b;}.cls-4{fill:#fbf7f1;}.cls-5{fill:#f9e088;}.cls-6{fill:#f0ebe7;}.cls-7{fill:#aecddd;}.cls-8{fill:#e38660;}.cls-9{fill:#e7a385;}.cls-10{fill:#c8db42;}.cls-11{fill:#97a01a;}.cls-12{fill:#f0efee;}.cls-13{fill:#d36050;}.cls-14{fill:#567fda;}.cls-15{fill:#fcfcfc;}.cls-16{fill:#3f392d;}.cls-17{fill:#f4c9a4;}</style></defs><title>fulo</title><g id="vmGBQS.tif"><path class="cls-1" d="M200.1.87A189.74,189.74,0,0,1,153.74.6L178.58.05Z"/><path class="cls-1" d="M249.06,391.78c.22.83.44,1.66.67,2.5A2,2,0,0,1,249.06,391.78Z"/><path class="cls-2" d="M6.87,440.58a.59.59,0,0,1,.84.28l-.52.21Z"/><path class="cls-3" d="M557.83,366.05c-4.6-.71-9.26-1.21-13.8-2.22-2.94-.66-7-1.84-.84-4.52,3.34-1.44,1.56-3.65.6-5.39a35.43,35.43,0,0,0-5-7.41c-3.07-3.21-2-4.21,1.67-5.33,3.2-1,7.85-1.39,7.34-6.25-.47-4.55-4.72-4.66-8.27-5.17-1.33-.2-2.5-.25-2.46-2.32.11-5.71-.52-11.47,5.46-15.17,1.13-.7,1.51-2.89,1.87-4.48,1.32-5.71-.16-7.42-6.13-7-3.31.24-6.59.5-9.83-.43-1-.28-2.45-.34-2.43-1.56s1.34-1.71,2.45-1.82c7.54-.72,7-4.11,2.34-8-4.15-3.49-1.52-3.79,1.53-4.65,2.17-.61,4.12-1.87,4.12-4.52,0-2.5-1.66-4.05-3.73-5a25.5,25.5,0,0,0-5.45-1.76c-3-.6-4.4-1.32-1-3.66,4-2.79,6.21-6.88,7.55-11.49.63-2.16,1.26-4.47-1-6-2.06-1.39-3.69.32-5,1.56-4.89,4.58-4.62,1.13-4.82-2.77-.38-7.13-1.05-14.29-5.15-20.51-1-1.55-2.25-3.49-4.53-2.77-1.92.6-1.57,2.64-1.77,4.23-.44,3.71.58,7.74-2.32,10.93-1.34-3.24-2.54-6.54-4.08-9.69s-3.06-7.52-6.91-7.36c-3.43.15-2.65,4.71-3.62,7.38a3.16,3.16,0,0,1-.23.79c-.62.86-1.29,1.69-1.94,2.53a16.05,16.05,0,0,1-1.22-2.8c-1.14-5-1.24-10.16-4.08-14.91-1.43-2.4-.82-6.26-4.74-6.63s-5.87,2.35-7.25,5.57c-.16,1.07-.66-2.92-1.87-3-1.87-.08-1.38,3.57-1.37,2.27-.6-5.62-2.14-13.8-6.94-13.68-8,.2-5-3.85-5.3-7.3-.14-1.73,0-4.79-2.68-3.71a21.88,21.88,0,0,0-7.67,5.89c-1.15,1.29,1.52,2.43,2,3.9,1.85,5.42-1,9.46-6.77,9.19-2.92-.13-6.08-.47-7.55-3.79-2.87-.13-5.34-2.22-8.34-1.68h0c-4,8.94-19.74,18.79-28.91,18.24-3.55-.22-5.74-1.52-5.82-5.31q-.07-3.27,0-6.56c.07-8.19,1.15-9.35,8.95-7.41,4.25,1.06,7,1.13,7.62-3.93,0-3.07-2-4.94-4.32-6.25-2.91-1.63-1.48-3.44-.66-5.34,0-3-.13-5.37-4.54-4.4-9.82,2.15-9.77,1.91-14.57-7.88-.8-1.64-2.6-2.78-2.18-5C373,161.85,371.35,148.27,370,134.6l-2.51-.25c-1.85-.1-3.69,1.57-5.48.31-2.29-1.62,2-9.39-5.68-6.11-.53-4.27-3.82-7.76-3.43-12.28-4.91.08-7.72-5.35-13.3-4.62-2.17.29-2.4-3.87-1.44-6.31,1.11-2.82,2.32-6.23,5.6-6.58,2.79-.31,2,2.61,1.8,4.4-.11,1.27-1.69,2.61-.31,3.76s2.45-.25,3.48-1.08c4.67-3.77,8.33-6.57,14.86-1.09,3.25,2.73,10.28,1.09,14.43,6,1.37,1.61,4.42-1.65,6.1-3.19,3.65-3.35,6-3.07,6.29,1.94.27,5.28,3.38,6.66,7.56,6.6s6,1.26,6,5.63c0,4,2.88,6.34,6.46,7.73,1.35-.2,3-.45,3-2,.14-5.85,3.74-3.49,6.61-3,.3-1,.28-2.55,1-3,6.36-4,3.24-7.79-.33-11.22-4.6-4.41-10.48-5.77-16.68-6.2-1.44-.1-3.73,1.07-4.21-1-.42-1.82,1.87-2.4,3.15-3.29a27,27,0,0,1,3.61-2c4.22-2.11,3.66-4.12,0-6.21-6-3.39-12.48-4.22-19.19-3.53-3.83.39-7.6,1.28-11.43,1.75-1.74.22-3.11.25-1.79-2.53,2.93-6.19,1.68-8.94-4.69-10.11-7.36-1.36-14.73-1.33-21.4,3-2.91,1.87-8,2.72-8.11-.15-.18-4.87-2.56-3.36-4.8-3.48-5-.27-7.09,3.31-9.29,6.82-.7,1.11-1.74,3.05-2.38,3-1.76-.27-.74-2.11-.87-3.27-.54-5,1.29-12.08-4.81-13.59-5.38-1.34-7.39,5.38-10.15,9.3-.55.79-.36,2.49-2,1.83-.42-.17-.67-1.37-.6-2,.79-8.17-5.58-10.65-11-13.65-4.37-2.41-6.9-.43-7.19,4.23-.34,5.76-.28,11.55-.51,17.33-.06,1.51.83,3.58-1,4.41s-2.86-1.14-4-2.17c-4.72-4.29-9.29-8.84-16.59-6.92-3.46-.15-5.46,2.85-2.09,6.54A9.24,9.24,0,0,0,266,93.47,10,10,0,0,1,267.58,96c-1.21-1.25-2.3-.17-3.45.14-5.06,1.34-6.94-4.31-11-5-1.84-.63-1.84.37-1.65,1.88a6.71,6.71,0,0,0,1.18,6.89c3.32,3.59,6.16,6.46-2.11,5.19-1.66-.26-3.36.13-4.08,1.9a4.52,4.52,0,0,0,1.33,5.09c2.49,2.42.36,3.77-1.33,4.69-3.18,1.73-5.18,1.73-2.09,9.16l-4.51,3.88-1.16,1.26c-.37,3.24-2.83,5.23-4.63,7.59-13.55,17.81-19.78,38-20.14,60.25-1.65,7.59-5.88,16.46-.65,16.59,3.57.09,3.75,10.46,5,15,2.91.6,10.09,5.53,8,8l20.12,41h-.12c0,.61-6.87-1.5-6,2,1,4,6,3,5.92,4.21a19.16,19.16,0,0,0,5.29,4.15l1.79,3.64c-3.69,5.61-9.65,9.68-15.09,13,2.81,8.81,7.12,17.24,6.71,26.86-.15,3.46,3.31,4.05,4.86,6.16,14.45,1.54,29.09,2.54,39.78,14.47a14.87,14.87,0,0,0,3.39,2.33c6.89,4.19,8,3.59,8.31-4.55.06-1.35-.12-3.74.31-3.86,1.86-.52,2.45,1.59,3.51,2.61,6.37,6.08,12.38,12.75,22.59,10.66,2.63,1.29,4.63-.71,4.66-3.34,3.12-4.61-2.27-6.83-3.15-10.32,3.89-.79,8.38-1.79,10-1.8,2.09,2.75,2.09,2.75,3.42-.93l10.32-3.13c.85-.31,1.24-.11.95.85-4.1,4.36-7.95,9.13-14.68,9.39-1.92-.43-1.92-1.43-1.1,1-.27,2.73-.53,5.47-.8,8.2,7.66,5.79-9,45.33-7,47.38,5.13,5.4,50.23,23.17,55,28,7.49,7.57,26.48,11.08,24.76,17.95l-.08-.08c2.32,3.13,8.32,6.13,13.71,3.14a205.79,205.79,0,0,0,42.71,2.94,46.7,46.7,0,0,0,27.2-9.91c2.46-1.9,5.51-8.61,7.83.38.51,2,2.56,1.59,4,.32a20.12,20.12,0,0,0,4.56-5.78c1.79-3.33.81-7.06,1.9-10.46,3.71,1.52,4.58,5.8,7.94,7.85,5.9,3.6,8.6,2.57,9-4.34a32.4,32.4,0,0,0-6.94-22.36c-.79-1-1.52-2-2.28-3.06,1.59-.23,3.28-1.06,4.75.05,1.29,1,2.14,2.76,3.54,3.34,3.58,1.48,8.05,6.09,10.84,2.83,3.1-3.63.29-8.78-3.24-12.32-1-1-2-1.87-3-2.8.83-3.69.83-3.69-1.68-4.71,1-3.67,4.29-2.72,6.78-3.19,3-.56,6-.6,8.93-1.25,3.44-.77,8.16-1.4,8.39-5.35.27-4.57-4.92-4-8-5.13a30.52,30.52,0,0,0-3.22-.61c-1.84-.44-4.86-.39-5-2.09-.26-3.06,3.16-2.08,5-2.83,5.78-2.39,12.9-2.5,15.85-9.56C561.24,367.49,562.24,365.49,557.83,366.05ZM277,256.73c-.7,1.62-2.2,1-3.48.69-3.88-1-5.51-6.63-10.25-5.93-.57.49-2,0-2,2,.16,2.94,2.29,4.77,4.13,6.67l-22.08-12.5c2.78,1.1,5.64,2,8.41,3.15a4.77,4.77,0,0,0,3.89.12c7.56-3.17,14.93-2,19.86,3.2C276.15,254.86,277.5,255.52,277,256.73Zm22.61-69.61c-5.21-.17-11.51-6.61-11.57-11.83-.09-7.49,7.13-15.33,14.24-15.46,6.52-.11,11,5.93,10.79,14.66C312.92,180.53,305.69,187.32,299.58,187.12Zm23.66,155.37a.78.78,0,0,1,.21,0C323.25,342.5,323.17,342.51,323.24,342.49Z"/><path class="cls-4" d="M211.13,219.22c5.56,15,14.45,26.87,29.9,32.85,1.14.44,3.18.65,2.63,2.4-.44,1.44-2.33.78-3.56.81q-38.29,1-76.59,2c-12.07-.19-24.14-.5-36.18.72-2.88-.68-5.41-1.12-7.36-4.28-5.37-8.72-7.55-9.17-17.83-6-7.69,2.36-7.72,2.36-7.77-5.56Q94,181,93.57,119.81c0-2.72-.4-5.45-.62-8.17,1.21-8.4,0-16.76-.33-25.13,1.32-21.1.25-42.21.18-63.31a1.71,1.71,0,0,0,1.31-.76l.73.23.68-.36a360.2,360.2,0,0,0,43.59.11c23.42,1.33,46.87.51,70.3.74q40.16.4,80.31.14c5.69-.05,7.87,1.74,8.07,7.33.27,7.43,1,14.85,1.78,22.26.4,4,0,5.9-5.14,5.15-9.29-1.36-12.65,1.86-13.17,11.11-.08,1.38,0,2.76,0,4.14,0,7.37.09,7.23-6.13,4.06-2.67-1.36-5.7-2-8.57-3-3.61-8-10.35-3.82-15.84-3.8-2.6,0-5.13,2-7.52-.78-11-12.89-24.1-13.73-38.43-6.3-2.75,1.43-4.76,1.38-7.5-.49-14-9.57-31.05-4.18-36.92,11.66-1.52,4.11-3.15,7.12-7.9,8.21-6.89,1.58-12.32,5-12.06,13.34,0,1.83-.94,2.76-2.8,3.46-9.33,3.48-10.71,7.13-6.63,16.58-5,2.13-10.19,3.82-14.86,6.47-14.1,8-18.15,27.79-7.33,36.62,8.58,7,18.45,11.67,30,11.39l.13.18c-12.64,10.32-13.27,22-1.85,33.58a30.94,30.94,0,0,1,2,2.52c-5,3.41-5.07,8.67-5.18,13.89-.1,4.59.79,8.82,5.27,11.2a14.65,14.65,0,0,0,14.89-.35c2.55-1.47,5.73-3.42,3.95-7-2-3.95-4.67-1.78-7.54-.38-6.27,3.06-10,.38-9.89-6.68.07-3.55,2.13-6.83,1.43-10.49,8.8-2.82,8.83-2.84,12.89,5.44a16,16,0,0,0,5.35,6.12c6.17,4.4,13.17,5.05,20.39,4.9a28.46,28.46,0,0,0-1.28,3.92c-1.22,7,7.39,16.85,12.78,14s10.78-6.52,13.56-12.57c.71-1.54,1.41-3.22-.28-4.45a3.93,3.93,0,0,0-4.67,0c-2.2,1.65-4.07,3.71-6.17,5.47-3.88,3.27-6.92,3.23-8.35-2.34-.48-1.86-.93-3.73-1.4-5.59,3.54-5,6.94-8.89,13.8-3.82A11.57,11.57,0,0,0,211.13,219.22Z"/><path class="cls-4" d="M258.62,78.2c-1,4.63-.9,9.68-8.47,8.47-2.79-.44-3.57,3.89-3.41,6.59.22,3.62.78,7-3.15,9.2a2.65,2.65,0,0,0-1.07,2.14c.78,5.93-2.78,10.86-3.69,16-1.23,6.78-4.63,11.48-8.21,16.16-17.58,23-25.1,48.55-20.75,77.35-5.21.27-9.21-1.78-11.19-6.65-1-2.43-.27-5.9-3.94-6.4-4-.54-4.35,3.59-6.27,5.66-1.11,1.19-1.71,2.84-2.77,4.08-6.73,7.95-23,6.3-25.3-3.19-2-8.27-6.36-8.89-13.28-8.59-10.17.43-14.9-7.8-10-16.61,1.05-1.88,2.83-3.33,4.18-5.05,1.09-1.39,4.15-1.54,3.26-4.08s-3.53-2.17-5.7-2.32l-.13-.18c2.26-3.79-1.14-5.15-3.13-6.93-2.15-1.93-5.4-2.26-7.23-4.75.9-1.64,2.48-3.35,1.19-5.22s-3.45-1.13-5.1-.16c-2.77,1.61-5.81,1.16-8.76,1.41-5.28-9.68-4.41-11.29,1.48-20.38,5-7.7,12.49-8.8,19.94-11.28,3.59-1.19,10.12,1.66,10.25-3,.11-3.89-6.84-2.63-10.42-4.26.08-3-2.67-5.7-1.18-8.78,2.12-4.38,5.58-1.68,8.64-1.55,2.78.11,2.44-2.33,2.63-4.22,1.15-11.7,1.15-11.94,12.49-12,5.3,0,7.64-1.82,7.35-7.21-.4-7.23,3.46-12,9.7-14.86,7.59-3.47,16.52-1.11,18.41,5,1,3.25,2,7.29,5,7.7,2.73.38,3.84-4,5.47-6.4,4.18-6.21,10.41-8.16,17.31-7s13.25,3.58,15.34,11.7c1.85,7.18,3.48,7.76,9.24,3C250.85,78.63,254.33,77.51,258.62,78.2Zm-86.74,58.71q0,14.51,8.82,19.13c10.47,5.48,25.74,1.86,32.39-8,7.21-10.66,5.84-22,1.13-32.95-5.17-12-14.65-19-27.82-20.35a25.44,25.44,0,0,0-27.74,29.66c.63,3.86,3.3,6,5.94,8.34,1.49-2.48.44-5.2.71-7.8.11-1.09,0-2.2,0-3.3.4-9.71,7.73-16.87,17.55-17.18,18-.55,31.14,18.12,24.59,35-3,7.76-11.65,11.87-20.36,9.68-5.61-1.4-7.49-5.2-7-13.93.18-3.39.1-7,4.68-7.38,4-.34,5.22,2.21,5.45,5.69.12,1.78,1,3.25,2.9,3.49,2.28.28,3.53-1.5,4.44-3.14,2.94-5.28-1.7-13.29-7.93-14.43C177.33,117.21,170.69,126.4,171.88,136.91Zm-32.9,2.7c-.14-2.21-1.34-3.71-3.58-3.61-2.43.1-3.06,2.11-3,4.17.09,1.76,1,3.23,3,3.25C137.87,143.43,138.72,141.78,139,139.61Z"/><path class="cls-5" d="M86.18,294.78c-.05-1.62-.78-3.94,0-4.73,1.53-1.51,2.89.91,3.66,1.73,3.94,4.23,8.82,5.14,14.22,5,24.52-.81,49.09-.92,73.53-2.77,8-.61,16.14-2,24.3-2.33,3.2-.14,4.77,1,6.33,3.88,4.5,8.24,7.53,16.43,3.21,25.74-1.51,3.26-3.37,4.85-7.37,5C171,327.3,138,328.7,104.91,329.9c-3.77.13-7.76,1-11.16-1.67.07-7.35-.24-14.73.31-22.05C94.54,299.88,92.37,296.12,86.18,294.78Z"/><path class="cls-6" d="M325.93,367.51c-6.12-.63-11.79-2.3-16.53-6.51-1.28-1.14-2.9-3.18-4.64-.45-4,6.33-8.49,3-12.64.39-5.11-3.16-9.82-7-15.8-8.55l-.61,0-3.78.73c-.25,7.28.72,15-7.7,19.07a8.71,8.71,0,0,0-2.46,2.17c-2.09,2.29-1.14,3.32,1.56,3.47,1.38.08,2.77,0,4.12.14.86.11,2.45-.73,2.31,1.11,0,.62-.89,1.38-1.55,1.71a38.62,38.62,0,0,1-12.6,3.65c-1.14.15-3.06-.57-3.25,1.42-.15,1.53,1.3,2.36,2.44,3,3.95,2.28,8,3.6,12.48,1.22,1.59-.84,3.88-3.13,5-1.41,1.6,2.42-1.9,3.29-3.19,4.77-2,2.27-4.76,4.07-5.54,7-.53,2-2.94,4.3-1.32,6,2.34,2.49,4.36-.5,6.39-1.57,1.46-.77,2.88-1.6,4.32-2.4,2.29,1.93,1.07.69,3.29.93,1.75.2,1.49-2.33,1.72-1-.74,4.07-5,3.77-7.41,5.64-3.21,2.43-6.91,5.22-5.09,8.83,1.59,3.17,5.27-.3,8-1.07,1-.29,2.29-1.29,3-.28,1.13,1.57-.58,2.53-1.57,3.09-4.7,2.66-9.53,5.1-14.28,7.69-1.59.87-4.23,1.08-3.95,3.51.24,2.15,2.66,2.49,4.42,3.12a29.7,29.7,0,0,0,13,1.47c.88-.08,2.19-1.11,2.65.45.14.44-.72,1.28-1.26,1.81-.78.76-1.75,1.34-2.5,2.14-1.07,1.15-2.9,2.18-2.33,4,.65,2,2.75,1.25,4.25,1.31,7.55.28,14-1.7,17.92-8.88.4-2.36-1.24-.59.42,1.16,2.2,2.31,0,1,1.35,2.57l-.07.07c-1.28-.64-2.28.36-1.08,1.47-.14,1.15-.27,2.31-.41,3.46-1.79.43-2.79,1.43-1.25,3.26a58.75,58.75,0,0,0,.31,6.38c1,6.38,2.37,7,9.23,4.05-.27-2.28.54-3.71,3-3.86a3.61,3.61,0,0,0,.76-.28c2.92-1.89,5.84-3.8,8.76-5.7,1.35,3.24-2.14,6.12-.68,9.36l1.16,1.24c5.87-3,10.2-7.4,11.89-14,6.84,5.77,6.89,5.21,16.43,6,12.05,1,24.13-.28,36.17,1.24,10.34,1.3,20.79,1.8,31.19,2.66,1.72-6.87,5.13-17.09-2.36-24.66-4.77-4.83-61-10-70.4-26.29-5.3-9.17,7.68-36.59,0-42.38l-6.41,5.67"/><path class="cls-7" d="M258.62,78.2c-4.29-.69-7.77.43-11.27,3.33-5.76,4.76-7.39,4.18-9.24-3C236,70.41,229.69,68,222.77,66.83s-13.13.81-17.31,7c-1.63,2.43-2.74,6.78-5.47,6.4-3-.41-4-4.45-5-7.7-1.89-6.1-10.82-8.46-18.41-5-6.24,2.86-10.1,7.63-9.7,14.86.29,5.39-2,7.17-7.35,7.21-11.34.08-11.34.32-12.49,12-.19,1.89.15,4.33-2.63,4.22-3.06-.13-6.52-2.83-8.64,1.55-1.49,3.08,1.26,5.78,1.18,8.78l-6,0c-4.08-9.45-2.7-13.1,6.63-16.58,1.86-.7,2.85-1.63,2.8-3.46-.26-8.34,5.17-11.76,12.06-13.34,4.75-1.09,6.38-4.1,7.9-8.21C166.2,58.82,183.25,53.43,197.25,63c2.74,1.87,4.75,1.92,7.5.49,14.33-7.43,27.42-6.59,38.43,6.3,2.39,2.8,4.92.8,7.52.78,5.49,0,12.23-4.24,15.84,3.8Z"/><path class="cls-8" d="M92.42,253.5c4.38.82,7.76-2.26,11.76-3,5.94-1.11,10.67-.54,13.26,6.15,3.66,9.46,7.86,18.72,11.95,28,2.18,5,.8,6.53-4.69,7.09-10.72,1.08-18.78-.58-22.15-12.66-2.45-8.78-9.5-15.89-10.21-25.49Z"/><path class="cls-7" d="M138.87,170.91c2.17.15,4.8-.23,5.7,2.32s-2.17,2.69-3.26,4.08c-1.35,1.72-3.13,3.17-4.18,5.05-4.91,8.81-.18,17,10,16.61,6.92-.3,11.3.32,13.28,8.59,2.27,9.49,18.57,11.14,25.3,3.19,1.06-1.24,1.66-2.89,2.77-4.08,1.92-2.07,2.23-6.2,6.27-5.66,3.67.5,2.95,4,3.94,6.4,2,4.87,6,6.92,11.19,6.65l1.26,5.16a11.57,11.57,0,0,1-12.54-.91c-6.86-5.07-10.26-1.21-13.8,3.82l-4.19,1.5c-7.22.15-14.22-.5-20.39-4.9a16,16,0,0,1-5.35-6.12c-4.06-8.28-4.09-8.26-12.89-5.44L139,207a30.94,30.94,0,0,0-2-2.52C125.6,192.92,126.23,181.23,138.87,170.91Z"/><path class="cls-9" d="M382.25,466.64c-11.15,6.16-23.67,5.56-35.73,6.91-5.37.6-3.91-2.93-2.14-5.85.66-1.09,2.12-2.31.79-3.55-1.51-1.41-3.09-.27-4.33.8a15.94,15.94,0,0,0-2.71,3.09c-3.21,4.76-11.15,7.87-16.59,6.44-3.06-.81-4.23-1.94-1.86-5.07,3.1-4.09,9.31-4.32,10.9-11.25.71-3.06,9.76-6.2,15.27-3.67,6.06,2.77,12.33,1.64,18.36,3C368.42,464.1,376,464,382.25,466.64Z"/><path class="cls-9" d="M238.15,306.52c2.81,8.81,7.12,17.24,6.71,26.86-.15,3.46,3.31,4.05,4.86,6.16-4.85,4.27-9.54,9.37-15.83,1.76-.54-.66-2.57-.1-3.9-.11-1.53-4.31-3.91-7.91-8.28-9.83l-.05-.05.27-22.64C227,305.34,233,308.81,238.15,306.52Z"/><path class="cls-10" d="M308.2,14.1c.79-7.45-3.28-8.73-9.11-8.74q-25.21-.06-50.42-.14c-26.46-.12-52.93.45-79.35-.58-31.95-1.23-63.89-.48-95.83-.92-4.06-.06-7.71,1.09-8.41,6,4.39.21,4.25,3.28,4.24,6.46-.1,25.34.91,50.73-.53,76-1.24,21.74-.55,43.44-1.23,65.14-.08,2.46-.47,4.91-.71,7.36-2,30.09-.44,60.22-1.11,90.32q-.06,14.4-.14,28.8c2.33,7.69,5.31,15.4-.87,22.77q-.28,24.76-.56,49.53,0,44.14,0,88.28c0,3.56-.64,7.29,3.56,9.2,9.29-.87,18.58-2.34,27.88-2.46,12-.15,10.26-2.27,11.3-10.85,3.28-27.16,16.15-48.57,37.4-65.28,20.16-15.86,43.7-21.92,68.77-23.29,6.81-.38,13.18,3.67,20.14,2.11.39-2.22-.29-3.94-2.65-4.29-7.79-1.17-12.37-5.73-15.37-12.88-2-4.76-5.81-7.65-11.73-7.15-6.3.53-12.67,0-19,.45-25.18,1.7-50.4,2.35-75.62,3-4.33-.48-8.66,1.86-13,0-2.65.25-4.67-1.33-6.9-2.34-4.37-2.24-7.16-5.6-7.45-10.68-.15-1.19-.29-2.37-.44-3.55q0-7.29,0-14.58a43.52,43.52,0,0,1,.22-11.9c3.31-8.47,2.78-17.37,3.06-26.2a8.8,8.8,0,0,1,4.27-7.5,2,2,0,0,1,.28-1.29l1.55-1.49,1.85.18.08-.09q-.63-22.25-1.28-44.5-.26-45.48-.53-91c0-7.13.41-14.25-1.11-21.38-.69-3.21-1.55-7.14,1.23-10.25l0-63C91.15,19.16,94.42,20,97,20q98.07,0,196.13.09c2.6,0,5.83-.85,6.46,3.25.07,2.78.14,5.57.22,8.35,2.28,2.44,1.11,5.45,1.39,8.23q.66,5,1.3,9.94c.13,3.29.27,6.59.4,9.88l0,0,1.18,1.83,2.06,3.15H311l.41.13C311,47.92,306.4,31.18,308.2,14.1Z"/><path class="cls-10" d="M241.43,266.58c-.51-.62-1.29-1.32-1.32-2-.28-6.47-4.68-6.24-9.36-6.13-19,.43-38-.47-57,1.38l-46.4.52c-.53.08-1.07.14-1.61.21-.45.51-.9,1-1.34,1.54,2.12,5.28,4.52,10.47,6.26,15.88,1,3.18,3,3.38,5.6,3.39a174.85,174.85,0,0,0,25.24-2.05C166,273.18,172,268.9,178.38,265c1.89-3,5-4.6,7.61-2.27,3.78,3.43,3.82,8.09.91,12.49l-1.72,1.58.41,2.87c6.95-.2,14.42,1.57,19.09-6.17,1.55-2.55,4.5-1.11,5.83.27,7.63,7.89,17.14,3.9,25.88,4.32,3.68.18,7.07-2.4,8.87-5.25C247.24,269.67,243.06,268.52,241.43,266.58Z"/><path class="cls-10" d="M185.17,276.78h0Z"/><path class="cls-10" d="M252.36,345c-5.64.68-4.61,4.47-4.16,8.18.05.43-1.06,1-1.63,1.51h0l-.9,3,17.44,8.55c7.55-2.25,5.07-8.11,4-12.71C265.64,347.66,258.73,344.22,252.36,345Z"/><path class="cls-11" d="M246.65,377.76a56.09,56.09,0,0,0-20.19-16.68c-1-.48-2.32-1.08-1.86-2.33.41-1.09,1.89-.95,2.88-.65,10.42,3.18,21.58,4.41,30.6,11.36C258,377.38,252.76,378.15,246.65,377.76Z"/><path class="cls-8" d="M86.18,294.78c6.19,1.34,8.36,5.1,7.88,11.4-.55,7.32-.24,14.7-.31,22.05l-4.49-.38c-1.2-2.64-5.4-3.78-3.89-7.77Z"/><path class="cls-5" d="M234.81,290.21c4.43.23,11.2-2.24,12.32,3,1,4.85-6,6.18-9.91,8.2-6.82,3.51-10,1.74-12.92-5.95-1.3-3.4-1-5.31,3.09-5.27C229.86,290.22,232.34,290.21,234.81,290.21Z"/><path class="cls-8" d="M168.4,285.3c2.63,2.56,5.84,2.06,8.28.43,7-4.68,14.79-3.17,22.36-3.64,3-.18,5.06,1.11,5.22,3.93.22,3.63-3,2.19-4.86,2.49-9,1.43-18,1.16-27,1.51-4.2.17-3.88-2.09-4-4.68Z"/><path class="cls-9" d="M382.25,466.64c-6.21-2.65-13.83-2.54-18-9.13,8.83-.25,17.52,1.27,26.27,2.1,1.31.13,3.62.8,3.66,1.35.15,2-2,2.14-3.37,2.9A23.66,23.66,0,0,1,382.25,466.64Z"/><path class="cls-12" d="M222.81,301.1c.18,2.09-1.31,2.49-2.46,3.09-1.6.84-3.27,1-4.17-.93-2.64-5.69-5.24-11.4-7.67-17.19-.58-1.37.51-2.52,1.76-3.33s2.56-1.06,3.57.31C218,288.6,219.87,295.25,222.81,301.1Z"/><path class="cls-8" d="M141.68,291.56c-1.62-.21-3.38-.08-4.81-.71a4.8,4.8,0,0,1-2.61-4.79c.08-2.27,2-2.25,3.66-2.29,4.4-.09,8.8-.15,13.2-.1.91,0,2.43-.72,2.6,1,.07.62-.62,1.43-1.14,2C149.69,289.86,146.22,291.85,141.68,291.56Z"/><path class="cls-8" d="M228.38,281.9c1.37,0,2.75.1,4.11,0,3.4-.32,6.68.62,6.57,4.28s-3.83,1.87-6,2.1c-2.7.29-5.51-.24-8.2.11-3.95.5-6.41-2.34-6.41-4.84,0-3.47,3.79-1,5.82-1.62,1.24-.4,2.72-.08,4.09-.08Z"/><path class="cls-2" d="M161.48,279.31C166,273.18,172,268.9,178.38,265l1.51,1.59c-1.45,1.57-3,3.08-4.33,4.73-2.13,2.59-7.63,5-6,7.53,2.73,4.15,5.16-3.16,8.67-2.34.1,1.24.21,2.47.32,3.7l0-.1L177,281.94c-2.67,2.81-5.9,1-8.89,1.08l-3.36-2.46Z"/><path class="cls-9" d="M221.93,308.67l-.27,22.64c-2.52-.17-5.17-.48-6.14-3.21-.51-1.45-.75-4.18,0-4.7C220.83,319.74,213.42,310.7,221.93,308.67Z"/><path class="cls-12" d="M164.77,280.56l3.36,2.46c0,.78-1.15,1.68.27,2.28v0c-3.9-.07-5.38,4.53-9.1,4.75a14.48,14.48,0,0,1-3.14-.51c.37-1,.47-2.28,1.17-2.91C159.7,284.51,162.28,282.58,164.77,280.56Z"/><path class="cls-9" d="M221.71,331.36c4.37,1.92,6.75,5.52,8.28,9.83C222.14,342.57,219.65,339.61,221.71,331.36Z"/><path class="cls-13" d="M435.68,134.22l-11.55-.34C428.11,129.59,432,129.5,435.68,134.22Z"/><path class="cls-11" d="M246.55,354.68c-.27,0-.54,0-.81,0-1.8-.1-3.91.81-5.13-1.28a1.31,1.31,0,0,1,.91-1.87c2.91-1,4.76-.11,5,3.17Z"/><path class="cls-14" d="M178.59,280.18c-.11-1.23-.22-2.46-.32-3.7l.21.18c2.54.75,4.26-2,6.71-1.56l0,1.68v0a7.06,7.06,0,0,0-3.66,3.06Z"/><path class="cls-12" d="M301.32,457.75c-.27-2.28.54-3.71,3-3.86C304.25,455.9,303.52,457.4,301.32,457.75Z"/><path class="cls-12" d="M293,444.06c2.3,2.13.8,2.8-1.25,3.26C291.21,445.85,291,444.54,293,444.06Z"/><path class="cls-12" d="M262.31,417.5c.71.23,1.64.42,1.19,1.42a3.25,3.25,0,0,1-1.52,1.43,1.15,1.15,0,0,1-1.66-1C260.15,418,261.32,417.78,262.31,417.5Z"/><path class="cls-2" d="M181.52,279.82a7.06,7.06,0,0,1,3.66-3.06l.41,2.88Z"/><path class="cls-12" d="M275.71,352.41l-3.78.72c-.63-.89-1.36-2.29-.29-2.73C273.34,349.7,274.61,351.17,275.71,352.41Z"/><path class="cls-2" d="M302.93,59.8l1.18,1.83Z"/><path class="cls-2" d="M88.94,254.9l1.55-1.49A1.48,1.48,0,0,1,88.94,254.9Z"/><path class="cls-12" d="M239.82,129.8l-1.16,1.26C238.38,130,238.83,129.66,239.82,129.8Z"/><path class="cls-14" d="M177,281.94l1.62-1.86Z"/><path class="cls-12" d="M294.52,439.13l-1.08,1.47C292.94,439.47,293.69,439.27,294.52,439.13Z"/><path class="cls-2" d="M125.72,260.55c-.45.51-.9,1-1.34,1.54C124.25,261.07,124.71,260.57,125.72,260.55Z"/><path class="cls-15" d="M538.58,320.42l.6.26-.53.79-.57-.51Z"/><path class="cls-12" d="M313.16,457.27l1.16,1.24C313,459,312.94,458.25,313.16,457.27Z"/><path class="cls-11" d="M65.74,255q-.06,14.4-.14,28.8c-1.71-.36-3.65-.15-4.82-1.9,0-3,.1-6.06.1-9.08C61,214,62.58,155.1,63.23,96.24c.3-26.91.44-53.87,1.21-80.79.06-1.91.42-3.81.64-5.71,4.39.21,4.25,3.28,4.24,6.46-.1,25.34.91,50.73-.53,76-1.24,21.74-.55,43.44-1.23,65.14-.08,2.46-.47,4.91-.71,7.36-4.17,1.1-2.27,4.51-2.29,6.82-.18,25.51-.18,51-.15,76.53C64.41,250.4,63.51,253,65.74,255Z"/><path class="cls-11" d="M24.54,280.4l-3.21-.31c2.67-19.64,6.12-39.22,7.69-59,.78-9.85,3.75-19.3,3.87-29.16,0-1.47-.41-3.85,2-3.56,1.38.17,1.28,2.19,1.09,3.55-2.55,18.91-5.45,37.78-7.57,56.74C27.25,259.28,26.3,269.89,24.54,280.4Z"/><path class="cls-11" d="M60.34,4c-3.58-.85-4.19,2.69-4.84,5.39a40.55,40.55,0,0,0-1.06,4.81C52.1,34.62,50,55.09,47.47,75.5c-4.12,33.18-8.53,66.33-12.72,99.5-.21,1.6-1.34,4.61,1.42,4.59,2.48,0,1.44-3,1.64-4.76,2.32-20.41,4-40.92,7-61.21,3.24-21.4,5.06-42.95,8-64.36C54.54,37.33,56,25.39,57.64,13.45a25.16,25.16,0,0,1,.79-3c1.53.81,1,2.29.85,3.4C58.51,22,57.74,30.16,56.71,38.3,54.92,52.41,52.3,66.46,51.2,80.62c-1.31,17-4.3,33.67-6.1,50.54-1.72,16.06-3.78,32.08-5.73,48.11s-4,32-5.87,48.07c-2,17.67-5.42,35.19-5.61,53,9.44-1.09,18.64,2.75,28.09,1.38.43-11.8.71-23.61,1.29-35.42,1.53-31.33.52-62.73,1.58-94.14,1.54-45.95.24-92,2-138A19.71,19.71,0,0,0,61,10.11C60.59,8,64.46,5,60.34,4Z"/><path class="cls-11" d="M55.9,308.18l-29.66-4.84c-3.72,6.48-3.14,13.81-4,20.82q-4,30.54-7.68,61.12c-1.73,14.13-3.34,28.27-5,42.41-.16,1.36-.36,3.32-1.93,3.12s-1-2.15-.81-3.37c3.13-24.72,6.32-49.43,9.41-74.16.17-1.36,1.07-3.81-1.13-3.95-1.88-.11-1.93,2.26-2.11,3.91-.85,7.64-1.73,15.26-2.59,22.9-2,17.45-3.87,34.9-5.91,52.35-.77,6.63,2.54,9,8.61,9,9.66-.08,19.32-.08,29-.17,8.81-.08,12.37-3,12.19-11.74C53.4,386.39,56.59,347.31,55.9,308.18Z"/><path class="cls-11" d="M16.47,342.05c1.35,0,1.44-1.49,1.44-2.5-.06-9.61,2.34-18.92,3.54-28.87-.17-1.15-.41-2.74-.64-4.34-2.45.6-2.1,3-2.33,4.49C17,320,15.84,329.18,14.73,338.38,14.57,339.73,13.91,342,16.47,342.05Z"/><path class="cls-5" d="M51.19,303.36c-8.72-2.36-18.92-1.43-28.89-3.07-6.89-1.13-6.3-5.59-5.58-10.29.77-5,3.41-6.51,8.73-5.69,9.19,1.4,18.53,1.85,27.82,2.53,8.68.63,9.8,2,9.62,10.49C62.71,305.6,57,303.39,51.19,303.36Z"/><path class="cls-11" d="M64.16,444.39q0-44.14,0-88.28c-1.79-1.68-1.64-3.74-1.47-5.77,0-.33.06-.65.08-1,0,.33-.05.65-.08,1-.17,2-.32,4.09,1.47,5.77q.28-24.76.56-49.53l-2.23,1.47h0l-2.67.17c-1.11,45.69.1,91.42-2.07,137.09-.33,7,1.78,8.26,10,8.28C63.52,451.68,64.16,448,64.16,444.39Zm-1.35-96.06c0,.32,0,.65,0,1,0-.32,0-.65,0-1-.14-10.07-.19-20.14-.25-30.21C62.62,328.19,62.67,338.26,62.81,348.33Z"/><path class="cls-16" d="M352.87,116.27c7-8.6,14.82-8.55,21.41.46a90.25,90.25,0,0,1,9.29,16.4c3.5,7.75,9,13.52,17.41,16.39,14,4.77,14.58,7.26,5.5,19.4-6.7,6.69-14.23,6.94-22.32,2.86C373,161.85,371.35,148.27,370,134.6c.09-2.2.83-4.63.14-6.55-1.58-4.43-.59-10.23-6.17-12.72-2.75-.85-5.07-.21-5.82,2.69-.7,2.69,1.34,3.13,3.48,3,1.6,4.59,7.62,7.22,5.86,13.29-1.85-.1-3.69,1.57-5.48.31-2.29-1.62,2-9.39-5.68-6.11C355.77,124.28,352.48,120.79,352.87,116.27ZM382.28,141l-.69-.3.76.21c0,2.73-.29,5.52.17,8.18,1.53,8.91,6.47,13.94,13.79,15.08,4.5.69,6.91-2,8.25-5.25,1.64-4-2.4-4.16-4.7-4.86C392.39,151.82,387.31,146.49,382.28,141Z"/><path class="cls-16" d="M313,174.49c-.12,6-7.35,12.83-13.46,12.63-5.21-.17-11.51-6.61-11.57-11.83-.09-7.49,7.13-15.33,14.24-15.46C308.77,159.72,313.22,165.76,313,174.49Z"/><path class="cls-13" d="M451.07,187.22c-6.12-2-4.25-4.2-1-7.21,1.77-1.63,3.29-3.86-1-4.1-5.6-.33-2.35-2.5-.84-4,5.91-5.9,8.22-12.86,6.27-21-.92-3.87-3.06-5.24-6.37-2.11-3,2.83-5.84,5.84-8.81,8.71-.71.69-1.5,1.85-2.65.91-.26-.21.14-1.43.45-2.09,3.65-8,3.66-8-5.66-7.55-2.48.11-5,.19-7.44.27a13.85,13.85,0,0,1-2.31,0c-.16-1.5,1.26-1.13,2-1.48,4.49-2.06,9.31-3.43,13.34-6.44,4.47-3.34,4-5.62-1.45-6.86-1.44-6.73-8.44-3.73-11.55-.34-3.44.17-6.51,3-10.18,1.39l.45-.54a5.14,5.14,0,0,1-.81-.43,5.14,5.14,0,0,0,.81.43c1.42-3.68,6.91-5.14,5.64-10.29-2.87-.54-6.47-2.9-6.61,3,0,1.6-1.67,1.85-3,2-3.58-1.39-6.42-3.73-6.46-7.73,0-4.37-1.86-5.7-6-5.63s-7.29-1.32-7.56-6.6c-.26-5-2.64-5.29-6.29-1.94-1.68,1.54-4.73,4.8-6.1,3.19-4.15-4.89-11.18-3.25-14.43-6-6.53-5.48-10.19-2.68-14.86,1.09-1,.83-2.1,2.23-3.48,1.08s.2-2.49.31-3.76c.16-1.79,1-4.71-1.8-4.4-3.28.35-4.49,3.76-5.6,6.58-1,2.44-.73,6.6,1.44,6.31,5.58-.73,8.39,4.7,13.3,4.62,7-8.6,14.82-8.55,21.41.46a90.25,90.25,0,0,1,9.29,16.4c3.5,7.75,9,13.52,17.41,16.39,14,4.77,14.58,7.26,5.5,19.4-6.7,6.69-14.23,6.94-22.32,2.86-.42,2.18,1.38,3.32,2.18,5,4.8,9.79,4.75,10,14.57,7.88,4.41-1,4.52,1.4,4.54,4.4-.82,1.9-2.25,3.71.66,5.34,2.34,1.31,4.31,3.18,4.32,6.25-.63,5.06-3.37,5-7.62,3.93-7.8-1.94-8.88-.78-8.95,7.41q0,3.28,0,6.56c.08,3.79,2.27,5.09,5.82,5.31,9.17.55,24.94-9.3,28.91-18.24a18.49,18.49,0,0,1-3,1,18.49,18.49,0,0,0,3-1h0c3-.54,5.47,1.55,8.34,1.68,3.68-1.16,9.59,2.64,10.87-2.36,1.06-4.09-4.37-5.4-8-6.62-.93-.31-1.61-1.34-2.4-2.05a11.75,11.75,0,0,1,2.86-1.51c3.47-.71,7.3-.09,10.35-2.32C452.53,191,455.57,188.73,451.07,187.22Z"/><path class="cls-3" d="M500.61,383.23c6.11,2.79,12.27,5.31,16.25,11a2.58,2.58,0,0,1,.34,2.23c-.8,1.36-2.34,1.33-3.65,1-6.58-1.71-10.23-7.12-14.43-11.75C497.86,384.3,499,383.27,500.61,383.23Z"/><path class="cls-3" d="M364,291.67c-.22.76-.48,2.19-.65,2.18-5.06-.32-9.11,1.08-11.73,5.82-.31.57-1.88-.46-2.51-1.39"/><path class="cls-11" d="M65.74,255c-2.23-2-1.33-4.61-1.33-7,0-25.51,0-51,.15-76.53,0-2.31-1.88-5.72,2.29-6.82C64.86,194.78,66.41,224.91,65.74,255Z"/><path class="cls-17" d="M130.94,116.25l6,0c3.58,1.63,10.53.37,10.42,4.26-.13,4.62-6.66,1.77-10.25,3-7.45,2.48-14.94,3.58-19.94,11.28-5.89,9.09-6.76,10.7-1.48,20.38,0,2.63-.55,5.54,2.64,6.87,4.06,1.69,7.17-.26,10-2.9,1.83,2.49,5.08,2.82,7.23,4.75,2,1.78,5.39,3.14,3.13,6.93-11.54.28-21.41-4.39-30-11.39-10.82-8.83-6.77-28.61,7.33-36.62C120.75,120.07,126,118.38,130.94,116.25Z"/><path class="cls-17" d="M139,207l2.93.16c.7,3.66-1.36,6.94-1.43,10.49-.14,7.06,3.62,9.74,9.89,6.68,2.87-1.4,5.58-3.57,7.54.38,1.78,3.61-1.4,5.56-3.95,7a14.65,14.65,0,0,1-14.89.35c-4.48-2.38-5.37-6.61-5.27-11.2C134,215.68,134.05,210.42,139,207Z"/><path class="cls-17" d="M180.6,223.63l4.19-1.5c.47,1.86.92,3.73,1.4,5.59,1.43,5.57,4.47,5.61,8.35,2.34,2.1-1.76,4-3.82,6.17-5.47a3.93,3.93,0,0,1,4.67,0c1.69,1.23,1,2.91.28,4.45-2.78,6.05-8.19,9.76-13.56,12.57s-14-7-12.78-14A28.46,28.46,0,0,1,180.6,223.63Z"/><path class="cls-1" d="M94.11,22.44a1.18,1.18,0,0,1,1.41-.13l-.68.36Z"/><path class="cls-17" d="M171.88,136.91c-1.19-10.51,5.45-19.7,17.75-17.47,6.23,1.14,10.87,9.15,7.93,14.43-.91,1.64-2.16,3.42-4.44,3.14-1.88-.24-2.78-1.71-2.9-3.49-.23-3.48-1.49-6-5.45-5.69-4.58.4-4.5,4-4.68,7.38-.46,8.73,1.42,12.53,7,13.93,8.71,2.19,17.34-1.92,20.36-9.68,6.55-16.85-6.58-35.52-24.59-35-9.82.31-17.15,7.47-17.55,17.18,0,1.1.08,2.21,0,3.3-.27,2.6.78,5.32-.71,7.8-2.64-2.31-5.31-4.48-5.94-8.34A25.44,25.44,0,0,1,186.4,94.77c13.17,1.33,22.65,8.32,27.82,20.35,4.71,11,6.08,22.29-1.13,32.95-6.65,9.83-21.92,13.45-32.39,8Q171.85,151.4,171.88,136.91Z"/><path class="cls-8" d="M128.38,159.05c-2.86,2.64-6,4.59-10,2.9-3.19-1.33-2.63-4.24-2.64-6.87,3-.25,6,.2,8.76-1.41,1.65-1,3.71-1.84,5.1.16S129.28,157.41,128.38,159.05Z"/><path class="cls-1" d="M139,139.61c-.26,2.17-1.11,3.82-3.52,3.81-2,0-2.92-1.49-3-3.25-.11-2.06.52-4.07,3-4.17C137.64,135.9,138.84,137.4,139,139.61Z"/><path class="cls-2" d="M178.38,265c1.89-3,5-4.6,7.61-2.27,3.78,3.43,3.82,8.09.9,12.49l-.12-.13c0-1.17,0-2.35-1.34-2.88l-1.32-1.32c.24-1.66,1.83-3.45,0-4.94-1.43-1.13-2.88-.25-4.18.64Z"/><path class="cls-2" d="M185.17,276.78l0-1.68,0,0c.54,0,1.08,0,1.61-.08l.12.13Z"/><path class="cls-7" d="M179.89,266.56c1.3-.89,2.75-1.77,4.18-.64,1.87,1.49.28,3.28,0,4.94-2.59,1.24-5.12,2.54-5.63,5.8l-.21-.18c-3.51-.82-5.94,6.49-8.67,2.34-1.67-2.54,3.83-4.94,6-7.53C176.91,269.64,178.44,268.13,179.89,266.56Z"/><path class="cls-2" d="M178.48,276.66c.51-3.26,3-4.56,5.63-5.8l1.32,1.32-.27,3,0,0C182.74,274.69,181,277.41,178.48,276.66Z"/><path class="cls-6" d="M363.94,115.33c-2.75-.85-5.07-.21-5.83,2.69-.69,2.69,1.35,3.13,3.49,3,1.6,4.59,7.62,7.22,5.86,13.29l2.51.25c.09-2.2.83-4.63.14-6.55C368.53,123.62,369.52,117.82,363.94,115.33Z"/><path class="cls-6" d="M399.86,154.09c-7.43-2.26-12.5-7.54-17.51-13,0,2.68-.28,5.41.17,8,1.53,8.91,6.47,13.94,13.78,15.08,4.51.69,6.92-2,8.26-5.25C406.2,154.91,402.16,154.79,399.86,154.09Z"/><path class="cls-6" d="M382.28,141l.07.08v-.17Z"/><path class="cls-7" d="M382.35,140.94l-.76-.21.69.3Z"/><path class="cls-14" d="M185.16,275.14l.27-3c1.37.53,1.34,1.71,1.34,2.88C186.24,275.1,185.7,275.13,185.16,275.14Z"/><path class="cls-16" d="M409.92,454.36l.06.07h0Z"/><path class="cls-16" d="M249,390.47a1.13,1.13,0,0,0,0,1.31c.22.83.44,1.66.67,2.5L253,407.6a9,9,0,0,0,2.81-10.26A12.72,12.72,0,0,0,249,390.47Z"/><path class="cls-16" d="M301.21,39.93c-.28-2.78.89-5.79-1.39-8.23C299.71,34.54,298.21,37.61,301.21,39.93Z"/><path class="cls-16" d="M561.23,359.76c-9.62,1.76-11.87-5.18-15.22-11.19-1.32-2.38-1.32-3.82,1.62-5.7,7-4.47,7-10.12.22-14.83-2.94-2-3.43-3.43-2.21-6.57s1.41-6.86,2.85-10.24c2.58-6,2-11.73-3.78-16.19-4-3.08-7.12-6.37-2.05-11.67,2.71-2.82,1.88-6.69-.9-9.75-5.46-6-5.41-6-3.29-14.45a27.77,27.77,0,0,0,1-6.52c0-5-2.23-8.38-7.59-6.82-4.15,1.19-4.78-.36-4.83-3.73-.09-6.55-1.89-12.52-6.37-17.45-2.08-2.29-5.7-5.29-7.69-3.12-5.65,6.15-7.93.11-12-1.69-5.67-2.5-10-5.43-13-11.06-1.68-3.21-5.33-4.77-9.3-4-1.92.38-3.75,1.08-5-1.23-4-7.31-11-12-16.42-18.09-1.95-2.19-2.59-3.77-1.57-7.06a132.32,132.32,0,0,0,5-23.2c1.24-10-3.15-14.6-11.83-13.74a24.26,24.26,0,0,1-2.17,2.35c-1.16,1-2.42,2.73-4,.94-1.25-1.41.48-2.29,1.21-3.28l2.87-3.87c-.82-7.46-6-10-12.48-10.66-4.29-.44-5.76-1.48-3.77-6.15,2.88-6.73.83-12.19-5.69-15.92-4.32-2.48-9.67-3.34-7.78-10.61.55-2.13-2.73-3.83-4.89-5.09-7.84-4.57-16.13-6.87-25.28-5.1-2,.38-4.69,1.91-5.5-1.37-2.84-11.53-12.23-10.21-20.5-10.23-6.57,0-13.32,3.18-19.34-2.12a3.55,3.55,0,0,0-3.17-.42c-7.94,4-12.79.87-16-6.53-.11-.25-1-.16-1.54-.23a4.86,4.86,0,0,0-2.27-.49c-2.45-.84-3.77-2.6-4-6.15-.9-14-2.41-27.93-3.59-41.9-.72-8.41-5.14-13-13.42-13Q248.79,1.15,200.1.87A189.74,189.74,0,0,1,153.74.6L115.6.06,69.18,0C51.74,1.16,53-1.68,50.61,18.2c-5,42.93-10.46,85.82-15.7,128.72Q26.78,213.46,18.7,280c-7.07,7.53-7.27,15.81-2.71,24.62a5.83,5.83,0,0,1,1.2-.8,5.83,5.83,0,0,0-1.2.8,29.18,29.18,0,0,0-.76,3.2Q7.68,368.28.12,428.74c-.74,5.84,1.94,9.35,6.75,11.84a.59.59,0,0,1,.84.28c13.69,2.78,27.54,1.6,41-.43,6-.92,5.44.6,5.55,4.58.35,12.48,3.57,15.36,16.18,14.69,10.19-.54,20.36-1.22,30.55-1.77,7.85-.42,10.77-3,10.91-10.65.6-31.78,15.37-55.5,41.26-72.93,12.76-8.59,27-13.53,42-16.6l3.3-.39,6.61,0,4.84.88a3.62,3.62,0,0,0-1.58-1.65,3.62,3.62,0,0,1,1.58,1.65c13,4.84,24.88,11.46,33.55,22.75.6,3.91,3.25,6.62,5.6,9.5a12.72,12.72,0,0,1,6.79,6.87A9,9,0,0,1,253,407.6c.18,3.29-.23,6.76.7,9.83,1.19,3.9.72,5.75-3.29,7.58-6.22,2.83-6.16,5.83-.35,9.85a20.11,20.11,0,0,0,5.9,2.89c4,1.12,8.71.77,7.78,7.5-.32,2.35,2.94,3.64,5.43,4.35a23.13,23.13,0,0,0,11.45.21c2.39-.52,3.84-.76,4.49,2.62,2.46,12.79,6.27,15.21,18.67,11.48,4.79-1.44,6.09-.69,6.8,4.32,1.25,9,4.87,12.08,13,11.49a190,190,0,0,1,24.25-.63c17,.9,33.47-4.24,48.35-12.13,7.55-4,14.27-4.93,22.25-4,17.24,1.93,34.44,3.84,51.93,3.09,10-.43,19.36-8.06,29.82-2.4.8.44,2.59-.68,3.79-1.31,3.69-1.95,6.69-4.42,8.58-8.46,1.65-3.52,3.8-6.34,8.52-2.11,4.43,4,8.75,1.69,11.58-3.1a21.5,21.5,0,0,0,2.77-11.1c0-4.47-2.42-10.22,6.37-8.91,2.64.4,4.33-2.89,4.85-5.87.69-3.91-.1-7.56-1.08-11.36-.83-3.17-5.9-5.38-2.93-9.1,2.23-2.8,6.27-3,9.73-3.87a17.68,17.68,0,0,0,8.06-4c2-1.8,3.76-4.9,2-6.52-6.41-5.93-1.81-9.5,2-13.63,1.71-1.87,2.09-4.45,2.56-6.9C567.89,362.65,566.05,358.88,561.23,359.76ZM34.75,175c4.19-33.17,8.6-66.32,12.72-99.5,2.53-20.41,4.63-40.88,7-61.32A40.55,40.55,0,0,1,55.5,9.37c.65-2.7,1.26-6.24,4.84-5.39,4.12,1,.25,4,.62,6.13a19.71,19.71,0,0,1-.06,4.13c-1.81,46-.51,92-2,138-1.06,31.41-.05,62.81-1.58,94.14-.58,11.81-.86,23.62-1.29,35.42-9.45,1.37-18.65-2.47-28.09-1.38.19-17.86,3.6-35.38,5.61-53,1.84-16,3.93-32.05,5.87-48.07s4-32.05,5.73-48.11c1.8-16.87,4.79-33.58,6.1-50.54,1.1-14.16,3.72-28.21,5.51-42.32,1-8.14,1.8-16.32,2.57-24.49.1-1.11.68-2.59-.85-3.4a25.16,25.16,0,0,0-.79,3c-1.6,11.94-3.1,23.88-4.76,35.81-3,21.41-4.79,43-8,64.36-3.07,20.29-4.72,40.8-7,61.21-.2,1.73.84,4.75-1.64,4.76C33.41,179.61,34.54,176.6,34.75,175ZM29,221.13c.78-9.85,3.75-19.3,3.87-29.16,0-1.47-.41-3.85,2-3.56,1.38.17,1.28,2.19,1.09,3.55-2.55,18.91-5.45,37.78-7.56,56.74-1.19,10.58-2.14,21.19-3.9,31.7l-3.21-.31C24,260.45,27.45,240.87,29,221.13ZM14.73,338.38c1.11-9.2,2.28-18.4,3.75-27.55.23-1.48-.12-3.89,2.33-4.49.23,1.6.47,3.19.64,4.34-1.2,9.95-3.6,19.26-3.54,28.87,0,1-.09,2.54-1.44,2.5C13.91,342,14.57,339.73,14.73,338.38ZM54.2,425.54c.18,8.74-3.38,11.66-12.19,11.74-9.65.09-19.31.09-29,.17-6.07.05-9.38-2.33-8.61-9,2-17.45,4-34.9,5.91-52.35.86-7.64,1.74-15.26,2.59-22.9.18-1.65.23-4,2.11-3.91,2.2.14,1.3,2.59,1.13,3.95C13.08,378,9.89,402.72,6.76,427.44c-.16,1.22-.87,3.16.81,3.37s1.77-1.76,1.93-3.12c1.67-14.14,3.28-28.28,5-42.41q3.75-30.57,7.68-61.12c.91-7,.33-14.34,4-20.82l29.66,4.84C56.59,347.31,53.4,386.39,54.2,425.54Zm-3-122.18c-8.72-2.36-18.92-1.43-28.89-3.07-6.89-1.13-6.3-5.59-5.58-10.29.77-5,3.41-6.51,8.73-5.69,9.19,1.4,18.53,1.85,27.82,2.53,8.68.63,9.8,2,9.62,10.49C62.71,305.6,57,303.39,51.19,303.36Zm161.88,48.35C188,353.08,164.46,359.14,144.3,375c-21.25,16.71-34.12,38.12-37.4,65.28-1,8.58.73,10.7-11.3,10.85-9.3.12-18.59,1.59-27.88,2.46-8.18,0-10.29-1.3-10-8.28,2.17-45.67,1-91.4,2.07-137.09l2.67-.17,2.23-1.47c6.18-7.37,3.2-15.08.87-22.77-1.71-.36-3.65-.15-4.82-1.9,0-3,.1-6.06.1-9.08C61,214,62.58,155.1,63.23,96.24c.3-26.91.44-53.87,1.21-80.79.06-1.91.42-3.81.64-5.71.7-4.93,4.35-6.08,8.41-6,31.94.44,63.88-.31,95.83.92,26.42,1,52.89.46,79.35.58q25.2.11,50.42.14c5.83,0,9.9,1.29,9.11,8.74-1.8,17.08,2.83,33.82,3.17,50.81l-.41-.13h-4.79l-2.06-3.15-1.18-1.83,0,0a7.63,7.63,0,0,1-1.72-2.84,7.63,7.63,0,0,0,1.72,2.84c-.13-3.29-.27-6.59-.4-9.88-.12.21-.24.42-.35.63.11-.21.23-.42.35-.63q-.64-5-1.3-9.94c-3-2.32-1.5-5.39-1.39-8.23-.08-2.78-.15-5.57-.22-8.35-.63-4.1-3.86-3.25-6.46-3.25Q195.09,20,97,20c-2.59,0-5.86-.85-6.32,3.35l0,63c-2.78,3.11-1.92,7-1.23,10.25C91,103.78,90.56,110.9,90.61,118q.35,45.48.53,91,.64,22.25,1.28,44.5c4.38.82,7.76-2.26,11.76-3,5.94-1.11,10.67-.54,13.26,6.15,3.66,9.46,7.86,18.72,11.95,28,2.18,5,.8,6.53-4.69,7.09-10.72,1.08-18.78-.58-22.15-12.66-2.45-8.78-9.5-15.89-10.21-25.49l-1.85-.18a1.48,1.48,0,0,1-1.55,1.49,2,2,0,0,0-.28,1.29,8.8,8.8,0,0,0-4.27,7.5c-.28,8.83.25,17.73-3.06,26.2a43.52,43.52,0,0,0-.22,11.9q0,7.29,0,14.58h0c.15,1.18.29,2.36.44,3.55.29,5.08,3.08,8.44,7.45,10.68,2.23,1,4.25,2.59,6.9,2.34,4.32,1.9,8.65-.44,13,0,25.22-.68,50.44-1.33,75.62-3,6.31-.42,12.68.08,19-.45,5.92-.5,9.74,2.39,11.73,7.15,3,7.15,7.58,11.71,15.37,12.88,2.36.35,3,2.07,2.65,4.29a19.15,19.15,0,0,0,2,1.62,19.15,19.15,0,0,1-2-1.62C226.25,355.38,219.88,351.33,213.07,351.71ZM309,67.76A2.18,2.18,0,0,1,306.8,67,2.18,2.18,0,0,0,309,67.76Zm-2.44-1.19a5.2,5.2,0,0,1-.36-1.67A5.2,5.2,0,0,0,306.54,66.57Zm-25.3,6.72c0,7.37.09,7.23-6.13,4.06-2.67-1.36-5.7-2-8.57-3l-7.92,3.83c-1,4.63-.9,9.68-8.47,8.47-2.79-.44-3.57,3.89-3.41,6.59.22,3.62.78,7-3.15,9.2a2.65,2.65,0,0,0-1.07,2.14c.78,5.93-2.78,10.86-3.69,16-1.23,6.78-4.63,11.48-8.21,16.16-17.58,23-25.1,48.55-20.75,77.35l1.26,5.16c5.56,15,14.45,26.87,29.9,32.85,1.14.44,3.18.65,2.63,2.4-.44,1.44-2.33.78-3.56.81q-38.29,1-76.59,2a4.69,4.69,0,0,0,3.24,1.32,4.69,4.69,0,0,1-3.24-1.32c-12.07-.19-24.14-.5-36.18.72-2.88-.68-5.41-1.12-7.36-4.28-5.37-8.72-7.55-9.17-17.83-6-7.69,2.36-7.72,2.36-7.77-5.56Q94,181,93.57,119.81c0-2.72-.4-5.45-.62-8.17,1.21-8.4,0-16.76-.33-25.13,1.32-21.1.25-42.21.18-63.31a1.71,1.71,0,0,0,1.31-.76,1.18,1.18,0,0,1,1.41-.13,360.2,360.2,0,0,0,43.59.11c23.42,1.33,46.87.51,70.3.74q40.16.4,80.31.14c5.69-.05,7.87,1.74,8.07,7.33.27,7.43,1,14.85,1.78,22.26.4,4,0,5.9-5.14,5.15-9.29-1.36-12.65,1.86-13.17,11.11C281.18,70.53,281.23,71.91,281.24,73.29Zm-48.16,215c-2.7.29-5.51-.24-8.2.11-3.95.5-6.41-2.34-6.41-4.84,0-3.47,3.79-1,5.82-1.62,1.24-.4,2.72-.08,4.09-.08v.07c1.37,0,2.75.1,4.11,0,3.4-.32,6.68.62,6.57,4.28S235.23,288,233.08,288.26Zm14,5c1,4.85-6,6.18-9.91,8.2-6.82,3.51-10,1.74-12.92-5.95-1.3-3.4-1-5.31,3.09-5.27,2.47,0,5,0,7.42,0C239.24,290.44,246,288,247.13,293.22ZM104.91,329.9c-3.77.13-7.76,1-11.16-1.67l-4.49-.38c-1.2-2.64-5.4-3.78-3.89-7.77l.81-25.3c-.05-1.62-.78-3.94,0-4.73,1.53-1.51,2.89.91,3.66,1.73,3.94,4.23,8.82,5.14,14.22,5,24.52-.81,49.09-.92,73.53-2.77,8-.61,16.14-2,24.3-2.33,3.2-.14,4.77,1,6.33,3.88,4.5,8.24,7.53,16.43,3.21,25.74-1.51,3.26-3.37,4.85-7.37,5C171,327.3,138,328.7,104.91,329.9Zm1.43,2.05a13.29,13.29,0,0,0-2.52-.52A13.29,13.29,0,0,1,106.34,332Zm27.92-45.89c.08-2.27,2-2.25,3.66-2.29,4.4-.09,8.8-.15,13.2-.1.91,0,2.43-.72,2.6,1,.07.62-.62,1.43-1.14,2-2.89,3.22-6.36,5.21-10.9,4.92-1.62-.21-3.38-.08-4.81-.71A4.8,4.8,0,0,1,134.26,286.06Zm74.25,0c-.58-1.37.51-2.52,1.76-3.33s2.56-1.06,3.57.31c4.13,5.55,6,12.2,9,18.05.18,2.09-1.31,2.49-2.46,3.09-1.6.84-3.27,1-4.17-.93C213.54,297.57,210.94,291.86,208.51,286.07Zm27.88-8c-8.74-.42-18.25,3.57-25.88-4.32-1.33-1.38-4.28-2.82-5.83-.27-4.67,7.74-12.14,6-19.09,6.17l-4.07.18-2.93.36,0-.1L177,281.94c-2.67,2.81-5.9,1-8.89,1.08,0,.78-1.15,1.68.27,2.28,2.63,2.56,5.84,2.06,8.28.43,7-4.68,14.79-3.17,22.36-3.64,3-.18,5.06,1.11,5.22,3.93.22,3.63-3,2.19-4.86,2.49-9,1.43-18,1.16-27,1.51-4.2.17-3.88-2.09-4-4.68-3.9-.07-5.38,4.53-9.1,4.75a14.48,14.48,0,0,1-3.14-.51c.37-1,.47-2.28,1.17-2.91,2.36-2.16,4.94-4.09,7.43-6.11l-3.29-1.25a174.85,174.85,0,0,1-25.24,2.05c-2.59,0-4.57-.21-5.6-3.39-1.74-5.41-4.14-10.6-6.26-15.88-.13-1,.33-1.52,1.34-1.54.54-.07,1.08-.13,1.61-.21l46.4-.52c19-1.85,38-.95,57-1.38,4.68-.11,9.08-.34,9.36,6.13,0,.69.81,1.39,1.32,2,1.63,1.94,5.81,3.09,3.83,6.23C243.46,275.66,240.07,278.24,236.39,278.06Zm10.26,99.7a3.16,3.16,0,0,1-1.3,2.72,3.16,3.16,0,0,0,1.3-2.72,56.09,56.09,0,0,0-20.19-16.68c-1-.48-2.32-1.08-1.86-2.33.41-1.09,1.89-.95,2.88-.65,10.42,3.18,21.58,4.41,30.6,11.36C258,377.38,252.76,378.15,246.65,377.76ZM252.36,345c6.37-.76,13.28,2.68,14.69,8.5,1.11,4.6,3.59,10.46-4,12.71a5.06,5.06,0,0,1-1.3,2.11,5.06,5.06,0,0,0,1.3-2.11l-17.44-8.55.9-3c-.27,0-.54,0-.81,0-1.8-.1-3.91.81-5.13-1.28a1.31,1.31,0,0,1,.91-1.87c2.91-1,4.76-.11,5,3.17.57-.51,1.68-1.08,1.63-1.51C247.75,349.45,246.72,345.66,252.36,345ZM390.77,463.86a23.66,23.66,0,0,1-8.52,2.78c-11.15,6.16-23.67,5.56-35.73,6.91-5.37.6-3.91-2.93-2.14-5.85.66-1.09,2.12-2.31.79-3.55-1.51-1.41-3.1-.27-4.33.8a15.94,15.94,0,0,0-2.71,3.09c-3.21,4.76-11.15,7.87-16.59,6.44-3.06-.81-4.23-1.94-1.86-5.07,3.1-4.09,9.31-4.32,10.9-11.25.71-3.06,9.76-6.2,15.27-3.67,6.06,2.77,12.33,1.63,18.36,3,8.83-.25,17.52,1.27,26.27,2.1,1.31.13,3.62.8,3.66,1.35C394.29,463,392.17,463.1,390.77,463.86Zm168.63-94.4c-2.95,7.06-10.07,7.17-15.85,9.56-1.82.75-5.24-.23-5,2.83.15,1.7,3.17,1.65,5,2.09a30.52,30.52,0,0,1,3.22.61c3.11,1.15,8.3.56,8,5.13-.23,3.95-5,4.58-8.39,5.35-2.92.65-6,.69-8.93,1.25-2.49.47-5.76-.48-6.78,3.19,1.93,1.08,1.3,3.07,1.68,4.71,1,.93,2,1.83,3,2.8,3.53,3.54,6.34,8.69,3.24,12.32-2.79,3.26-7.26-1.35-10.84-2.83-1.4-.58-2.25-2.36-3.54-3.34-1.47-1.11-3.16-.28-4.75-.05.76,1,1.49,2.06,2.28,3.06a32.4,32.4,0,0,1,6.94,22.36c-.37,6.91-3.07,7.94-9,4.34-3.36-2-4.23-6.33-7.94-7.85-1.09,3.4-.11,7.13-1.9,10.46a20.12,20.12,0,0,1-4.56,5.78c-1.44,1.27-3.49,1.67-4-.32-2.32-9-5.37-2.28-7.83-.38a46.7,46.7,0,0,1-27.2,9.91,205.79,205.79,0,0,1-42.71-2.94c-4.58-.87-10.05,2.09-13.65-3.07-10.4-.85-20.84-1.35-31.17-2.65-12-1.52-24.12-.2-36.17-1.24-9.54-.82-9.59-.26-16.43-6-1.69,6.6-6,11-11.89,14-1.31.45-1.38-.26-1.16-1.24-1.46-3.24,2-6.12.68-9.36-2.92,1.9-5.84,3.81-8.76,5.7a3.61,3.61,0,0,1-.76.28c-.07,2-.8,3.51-3,3.86-6.86,2.91-8.26,2.33-9.23-4.05a58.75,58.75,0,0,1-.31-6.38c-.57-1.47-.75-2.78,1.25-3.26.14-1.15.27-2.31.41-3.46-.5-1.13.25-1.33,1.08-1.47l.07-.07c.11-1.57.17-3.13-1.77-3.73-3.88,7.18-10.37,9.16-17.92,8.88-1.5-.06-3.6.72-4.25-1.31-.57-1.82,1.26-2.85,2.33-4,.75-.8,1.72-1.38,2.5-2.14.54-.53,1.4-1.37,1.26-1.81-.46-1.56-1.77-.53-2.65-.45a29.7,29.7,0,0,1-13-1.47c-1.76-.63-4.18-1-4.42-3.12-.28-2.43,2.36-2.64,3.95-3.51,4.75-2.59,9.58-5,14.28-7.69,1-.56,2.7-1.52,1.57-3.09-.73-1-2,0-3,.28-2.72.77-6.4,4.24-8,1.07-1.82-3.61,1.88-6.4,5.09-8.83,2.45-1.87,6.67-1.57,7.41-5.64l-5,.06c-1.44.8-2.86,1.63-4.32,2.4-2,1.07-4.05,4.06-6.39,1.57-1.62-1.73.79-4,1.32-6,.78-2.95,3.56-4.75,5.54-7,1.29-1.48,4.79-2.35,3.19-4.77-1.13-1.72-3.42.57-5,1.41-4.48,2.38-8.53,1.06-12.48-1.22-1.14-.66-2.59-1.49-2.44-3,.19-2,2.11-1.27,3.25-1.42a38.62,38.62,0,0,0,12.6-3.65c.66-.33,1.51-1.09,1.55-1.71.14-1.84-1.45-1-2.31-1.11-1.35-.18-2.74-.06-4.12-.14-2.7-.15-3.65-1.18-1.56-3.47a8.71,8.71,0,0,1,2.46-2.17c8.42-4,7.45-11.79,7.7-19.07-.63-.9-1.36-2.3-.29-2.74,1.7-.7,3,.77,4.07,2l.61,0c6,1.54,10.69,5.39,15.8,8.55,4.15,2.57,8.6,5.94,12.64-.39,1.74-2.73,3.36-.69,4.64.45,4.74,4.21,10.41,5.88,16.53,6.51l4.92-.73,6.41-5.67c.27-2.73.53-5.47.8-8.2-.36-1.13.19-1.26,1.1-1,6.73-.26,10.58-5,14.68-9.39.4-1,.75-1.23-.6-1-3.44,1-7.23,2.28-10.67,3.32-.74,1.76-2,1.56-3.42.93l-8.19.05-1.95.46c-.41,4.29,6.75,6.45,3.26,11.61-.54,2.53-2.33,3.31-4.66,3.34-10.21,2.09-16.22-4.58-22.59-10.66-1.06-1-1.65-3.13-3.51-2.61-.43.12-.25,2.51-.31,3.86-.34,8.14-1.42,8.74-8.31,4.55A14.87,14.87,0,0,1,289.5,354c-10.69-11.93-25.33-12.93-39.78-14.47-4.85,4.27-9.54,9.37-15.83,1.76-.54-.66-2.57-.1-3.9-.11-7.85,1.38-10.34-1.58-8.28-9.83l-.05-.05c-2.52-.17-5.17-.48-6.14-3.21-.51-1.45-.75-4.18,0-4.7,5.3-3.66-2.11-12.7,6.4-14.73,5.06-3.33,11,.14,16.22-2.15,5.44-3.35,11.39-6,15.09-11.64q.72-2.37,1.43-4.74a12.4,12.4,0,0,1-8.51-4.44c-1.2-1.59-4.75-1.37-4-4.27.45-1.65,2.66-1.38,4.28-1.22,2.4-.34,4.5-.48,6.82,1.24s2.86-.57,2.89-2.54c-1.08-2.18-5.17-2.58-3.94-6,.63-1.71,2.64-1.21,4.19-.84.31-.72,3.22.15,1.28-1.79-1.2-1.2-3-1.78-4.57-2.63-2.94.7-5.26-.23-6.14-3.13-.57-1.89.81-2.84,2.76-2.74,5.1-1.58,10.07.26,15.11.55.16-.74.33-1.48.5-2.22-1.84-1.9-3.93-3.63-4.09-6.57-.19-1.39.54-1.7,1.73-1.46,4.74-.7,6.6,4.3,10.48,5.29,1.28.33,2.78.93,3.48-.69.53-1.21-.82-1.87-1.52-2.6-4.93-5.15-12.3-6.37-19.86-3.2a4.77,4.77,0,0,1-3.89-.12c-6-2.42-12.43-3.95-17.52-8.3-1.78-.3-2.5-1.58-3.24-3.09s-2.09-2.87-.11-3.95l6.42,2.16c2.49.67,6.07,2.7,7-.45.92-3-3.35-2.52-5.38-3.37-5.91-2.48-10.55-11.09-9.46-17.35.42-2.46,2.24-2.88,3.89-3.67a19.3,19.3,0,0,0,6.61-4.74c2.08-2.47,1.15-3.9-1.76-4.49-9.38,6.77-10.05,6.78-19.3.18-1.06-.75-2.13-2.25-3.47-1.22-1.52,1.17,0,2.4.61,3.52.26.48.54,1.1,1,1.31,9.32,4.58,7.14,14.54,10.29,22,.63,1.48,1.29,3.38-.87,4.16-1.55.56-2.39-1.05-3.17-2.08a45.55,45.55,0,0,1-9.37-32.52c.36-22.2,6.59-42.44,20.14-60.25,1.8-2.36,4.26-4.35,4.63-7.59a12,12,0,0,0,1.16-1.26l4.51-3.88c-.64-3.06-2-4,2.09-8.16,1.36-1.36,8.44-1.88,1.33-5.69-1.73-.93-2.1-3.15-1.33-5.09.72-1.77,2.42-2.16,4.08-1.9,8.27,1.27,5.43-1.6,2.11-5.19A6.71,6.71,0,0,1,251.43,93c-.05-1.15.15-2.08,1.65-1.88,4.11.74,6,6.39,11,5,1.15-.31,2.24-1.39,3.45-.14A10,10,0,0,0,266,93.47a9.24,9.24,0,0,1-3.42-5.29c-2.37-3.16-1.83-5.39,2.09-6.54,7.3-1.92,11.87,2.63,16.59,6.92,1.14,1,2.14,3,4,2.17s.93-2.9,1-4.41c.23-5.78.17-11.57.51-17.33.29-4.66,2.82-6.64,7.19-4.23,5.45,3,11.82,5.48,11,13.65-.07.68.18,1.88.6,2,1.63.66,1.44-1,2-1.83,2.76-3.92,4.77-10.64,10.15-9.3,6.1,1.51,4.27,8.57,4.81,13.59.13,1.16-.89,3,.87,3.27.64.1,1.68-1.84,2.38-3,2.2-3.51,4.33-7.09,9.29-6.82,2.24.12,4.62-1.39,4.8,3.48.1,2.87,5.2,2,8.11.15,6.67-4.29,14-4.32,21.4-3C375.78,78.26,377,81,374.1,87.2c-1.32,2.78,0,2.75,1.79,2.53,3.83-.47,7.6-1.36,11.43-1.75,6.71-.69,13.19.14,19.19,3.53,3.69,2.09,4.25,4.1,0,6.21a27,27,0,0,0-3.61,2c-1.28.89-3.57,1.47-3.15,3.29.48,2.1,2.77.93,4.21,1,6.2.43,12.08,1.79,16.68,6.2,3.57,3.43,6.69,7.22.33,11.22-.68.42-.66,2-1,3,1.27,5.15-4.22,6.61-5.64,10.29l-.45.54c3.67,1.61,6.74-1.22,10.18-1.39,4-4.29,7.83-4.38,11.55.34,5.41,1.24,5.92,3.52,1.45,6.86-4,3-8.85,4.38-13.34,6.44-.78.35-2.2,0-2,1.48a13.85,13.85,0,0,0,2.31,0c2.48-.08,5-.16,7.44-.27,9.32-.43,9.31-.44,5.66,7.55-.31.66-.71,1.88-.45,2.09,1.15.94,1.94-.22,2.65-.91,3-2.87,5.81-5.88,8.81-8.71,3.31-3.13,5.45-1.76,6.37,2.11,1.95,8.16-.36,15.12-6.27,21-1.51,1.5-4.76,3.67.84,4,4.27.24,2.75,2.47,1,4.1-3.27,3-5.14,5.17,1,7.21,4.5,1.51,1.46,3.78-.45,5.18-3.05,2.23-6.88,1.61-10.35,2.32a11.75,11.75,0,0,0-2.86,1.51c.79.71,1.47,1.74,2.4,2.05,3.67,1.22,9.1,2.53,8,6.62-1.28,5-7.19,1.2-10.87,2.36,1.47,3.32,4.63,3.66,7.55,3.79,5.8.27,8.62-3.77,6.77-9.19-.5-1.47-3.17-2.61-2-3.9a21.88,21.88,0,0,1,7.67-5.89c2.68-1.08,2.54,2,2.68,3.71.29,3.45-2.68,7.5,5.3,7.3,4.8-.12,6.34,8.06,6.94,13.68l3.24.71c1.38-3.22,3.37-5.95,7.25-5.57s3.31,4.23,4.74,6.63c2.84,4.75,2.94,9.9,4.08,14.91a16.05,16.05,0,0,0,1.22,2.8c.65-.84,1.32-1.67,1.94-2.53a3.16,3.16,0,0,0,.23-.79c1-2.67.19-7.23,3.62-7.38,3.85-.16,5.36,4.19,6.91,7.36s2.74,6.45,4.08,9.69c2.9-3.19,1.88-7.22,2.32-10.93.2-1.59-.15-3.63,1.77-4.23,2.28-.72,3.51,1.22,4.53,2.77,4.1,6.22,4.77,13.38,5.15,20.51.2,3.9-.07,7.35,4.82,2.77,1.32-1.24,3-2.95,5-1.56,2.26,1.52,1.63,3.83,1,6-1.34,4.61-3.5,8.7-7.55,11.49-3.39,2.34-2,3.06,1,3.66a25.5,25.5,0,0,1,5.45,1.76c2.07.95,3.73,2.5,3.73,5,0,2.65-1.95,3.91-4.12,4.52-3,.86-5.68,1.16-1.53,4.65,4.65,3.89,5.2,7.28-2.34,8-1.11.11-2.43.66-2.45,1.82s1.45,1.28,2.43,1.56c3.24.93,6.52.67,9.83.43,6-.43,7.45,1.28,6.13,7-.36,1.59-.74,3.78-1.87,4.48-6,3.7-5.35,9.46-5.46,15.17,0,2.07,1.13,2.12,2.46,2.32,3.55.51,7.8.62,8.27,5.17.51,4.86-4.14,5.26-7.34,6.25-3.63,1.12-4.74,2.12-1.67,5.33a35.43,35.43,0,0,1,5,7.41c1,1.74,2.74,3.95-.6,5.39-6.18,2.68-2.1,3.86.84,4.52,4.54,1,9.2,1.51,13.8,2.22C560.88,366,561.25,367.24,559.4,369.46Zm-297.1,48c.72.24,1.65.43,1.2,1.43a3.25,3.25,0,0,1-1.52,1.43,1.15,1.15,0,0,1-1.66-1C260.15,418,261.32,417.78,262.3,417.49Zm276.88-96.81-.53.79-.57-.51.5-.54Z"/><circle class="cls-15" cx="299.24" cy="169.49" r="4"/></g></svg>