<svg id="Layer_1" data-name="Layer 1" xmlns="http://www.w3.org/2000/svg" viewBox="0 0 384.9 470.54"><defs><style>.cls-1{fill:#d36050;}.cls-2{fill:#f0ebe7;}.cls-3{fill:#e7a385;}.cls-4{fill:#3f392d;}.cls-5{fill:#87036e;}</style></defs><title>fulo</title><path class="cls-1" d="M358.55,150.68c1.58-8.86,3-17.51-4.77-24.75-4.37-4.07-7.5-9.08-6.44-15.66a11.06,11.06,0,0,0-.25-4.51c-3.63-13.08-17.11-17.8-29.46-11-3.33,1.83-6.17,4.8-10.49,4.22-1.32-.17-2.84.19-3.64-1.21-1-1.74.76-2.21,1.57-3.17,2.55-3,2.37-9.49.21-11.59-4.67-4.53-5-11.68-9.52-16.38-.17-.18-.07-.67,0-1,.6-3.84-1.16-6.1-4.35-8.23s-6.68-2.22-10.16-2c-5.56.34-8.82-1.76-10.14-7.4a8.21,8.21,0,0,0-9.9-5.76c.53,1.37-12.54,2.08-12.05,0-3.48-2-7.16-3.69-10.37-6s-5.9-2.21-9,.4a6.4,6.4,0,0,1-10-1.58,6.41,6.41,0,0,0-9.91-2.06c-4.88,3.91-8.7,3-13.27.28-3.29-1.93-6.49-2.07-8.3,2.21-.94,2.23-2.21,1.43-2.73,0-2.67-7.56-8.71-13-12.35-19.92-2.13-4.06-5.71-6-10-6.77-5.94-1.14-11.95-1.61-18-2.24-12.69-1.32-25-1.06-37,4-7.18,3-9.59,9-11.08,15.6-2.38,10.49,4,17.44,10.11,23.16a5,5,0,0,1,1.83.37c1.88,1.36,3.73,4.2,6.68,6,2.81,2.28,6.57,2.3,10.13,2.89,1.27.2,2.28.84,2.32,2.25,0,1.73-1.33,1.74-2.5,1.71-4.67-.08-6.19,5.18-10.53,6.1-1.84.39-3.61,2-5.89,2.24-1.27.1-2.75.66-2.94,2.31-.16,1.35.92,2.13,1.83,2.92a3.06,3.06,0,0,0,.84.53c2.63,1.17,4.23,3.65,3.62,6-.78,3-4.1,2.14-6.53,2.21-5,.14-10.13-.78-14.19,3.52-3.81,4-3.59,6.26,1.4,8.73a11.68,11.68,0,0,0,2.87.89c1.22.24,2.45.57,2.44,2a2,2,0,0,1-2.46,2c-3.39-.45-6.18,1.38-9.25,2.14,0,6.45-1.67,13.37.84,19.56a67.45,67.45,0,0,1,7.4,6.4c-5.46-2.86-11.12-5.61-16.4-8.4-8.51-.54-13.29,5.75-16.35,13.13-1.17,2.83-.91,4.66,1.92,6.25,5.26,3,10.49,6,15.49,9.41,1.81,1.22,5.94,2,4.22,5.06s-4.58.05-6.52-1c-6.07-3.27-11.9-7-18.61-8.92-3.47-1-6.48,1.37-7.22,6-.5,3.13.57,5.31,4.3,5.16,2.19-.09,3.5,1,3.67,3.23,2.39-.62,4.09.7,6,1.81,6.48,3.72,8.66,10.25,11.67,16.43,2.37,4.88,5.84,8.71,12.26,8.84,5.31.11,10.3-1.28,15.43-2,11.86-1.55,22.87,1.8,34.08,4.82,10.39,2.81,20.17,1.39,21.12-13.45.34-5.4,3.8-14.09,8.51-17.85-.95-.74-4.5-1.76-9.12-2.85,2.12-1.31,5.36.44,7.87.44,1.2,0,1.25,3.41,4.49,1.11,4.71-3.34,10.26-12.06,9.33-21.12-.49-4.77,1-9.64,2.84-14.2.7-1.7,1.74-3.51,1.68-5.23-.32-9.92,12.25-22.2,21.16-29.3l.18.32c7.39-2.63,13.07-7.13,16.72-14.28,2.74-5.38,23.75-1.15,38,2.23-.88,3.78-1.68,13-1.2,16.88,1.24,9.87,3.51,14.3,2.39,24.27-4.6,5.92-8.23,14.17-11.27,19.85A26.31,26.31,0,0,0,253,150c2.62,7.78,1.17,16,.83,24.08-.49,11.66,10.74,23.52,20.73,24.3,7,.55,12,4.29,15.18,10.9,2.24,4.69,4.77,9.22,6.09,14.29,4.14-1.39,8.28.27,12.42,0,1.68-.12,3.39.11,5-.12,5.76-.78,6.51-2.26,3.71-7.43-.82-1.51-1.36-2.78.16-4a2.22,2.22,0,0,1,3.19.32c1.83,1.92,3.8,5,6.48,3.31s4.33-5.61,4.14-8.74c-.34-5.39-.08-11.23-4.26-15.69-.91-1-2.1-2-1.07-3.49a3,3,0,0,1,3.58-1.13c3.44,1.25,4.07-.55,4.05-3.49,0-3.89-.09-7.7-1.57-11.43-1-2.5-.65-5.43,2.9-4.47,7.62,2,16.78-1.21,22.3-5.65C357.89,158.59,357.89,156.59,358.55,150.68ZM169.9,42c-5.35.76-11.26-1-15.63,3.86a.38.38,0,0,1-.14.09l-1.54-.27-.1-.07a2.17,2.17,0,0,1-.29-2.79,7,7,0,0,1,5.72-3.64c1.49-.19,3,0,4.54-.09,1.78-.1,4,.7,5-1.33.91-1.83-1.4-2.82-1.88-4.37-1.92-6.19-6.79-9.4-12-12.44-2.46-1.42-4.83-2.29-7.29-2-2.5,0-4.7-.31-6.56,1.35a1.68,1.68,0,0,1-2.66-.13c-.66-1-.09-1.93.6-2.74a6.31,6.31,0,0,1,5.18-2.63c5.62.12,11.06.77,15.65,4.43,1.71,1.37,3.36,2.78,5.58,3.28.48.11,1.21.35,1.31.68,1.64,5.51,5.49,9.64,8.48,14.32C175.49,40,172.18,41.67,169.9,42Zm167.41,80.9c-.22,1.23.37,3-1.61,3.09-1.65,0-1.47-1.56-1.52-2.68-.23-5.11-6.13-7.67-5.76-13.34.1-1.56-2.95-1-3.88.57a10.3,10.3,0,0,1-6.22,4.74c-3,.93-2.18,3.45-2.24,5.58q-2-.94-4.17-1.89c-.05-3.54.85-6.42,4.93-7.36,1.71-.39,2.69-1.77,3.67-3.23,2.56-3.79,6.49-3.68,10.43-3.2.59.07,1.63.71,1.6,1C331.83,112.41,338.43,116.56,337.31,122.89Z"/><path class="cls-2" d="M340.89,263.59c3.09-7.35-5.39-23-1.58-26-1.18-2.21-1-5-3.12-6.8-3.3-4.21-3.3-10.21-9.3-9.21-7.95,1.32-14.17,4.11-16,4-3.31-.21-16.55.08-15.08-2-1.32-5.07-3.85-9.6-6.09-14.29-3.15-6.61-8.13-10.35-15.18-10.9-10-.78-19.87-12.66-20.73-24.3-.92-12.53,4.05-24.31,10.08-41.53,7-20,3-28-3-40-1.89-3.78.25-13.8,1.46-17.92a49,49,0,0,0-1.16-32.45c-1-3.31-3.28-3.9-6.2-2.73-2,.79-3.9,1.8-5.85,2.72-2.25,3.38-3,6.47-2.25,9.38,2.37,8.9,2.24,13.87-6,12s-17.91,1.83-22,9c-4,7-9.64,10.08-19,18-10,8.49-16.46,19.23-18,25-2.09,7.84-1,16-.43,20.58.54,4.4-1.57,10.42-3.57,13.42a34,34,0,0,1-8,8c.05,1.24.24,3.34-3,3-4.71,3.76-6.17,10.45-6.51,15.85-.95,14.84-10.73,16.26-21.12,13.45-11.21-3-22.22-6.37-34.08-4.82-5.13.67-10.12,2.06-15.43,2-6.42-.13-9.89-4-12.26-8.84-3-6.18-5.19-12.71-11.67-16.43-1.94-1.11-3.64-2.43-6-1.81-.87,1.23-1.79,2.43-2.6,3.69-5.85,9.15-15.12,29.89-15.47,32.28a27.44,27.44,0,0,1-3.23,9c-13.58,25.92-18.44,53.88-19.3,84.16-.6,4.54.53,10.41,1.13,16.24s2.61,11.76,4.16,17.59c.4,1.5,4,5.93,7.41,17.71-1.16,2.49,1,27.81,1.69,30.24,3.09,10.59,8,20.51,11.76,30.85,2.4,6.67,7.37,11.45,10.62,17.42,3.95-.47,6.64,2.13,9.37,4.22a18.5,18.5,0,0,0,13.07,4,51.3,51.3,0,0,1,12,.65c4,.68,7.12-3.16,11.07-4,1.79-.36,3.41-1.63,5,.35,3.59-.91,5.14-3.95,7.25-6.58,6.84-8.51,13.55-17.41,26.48-16,2.34.26,4.29.88,5.42,3.07,2.17,4.22,4.28,3.5,6.42,0,.49-.82.9-2.09,2.15-1.69s.64,1.71.83,2.62c1.75,8.33,1.75,8.25,10.42,9.14,5,.52,10,1.57,14,5,1.28,1.12,2.67,1.73,4.11,1.12s1.36-2.24,1.25-3.52c-.13-1.49-1-3.3.86-4,2-.77,2.34,1.59,3.1,2.61,3.19,4.29,7.93,5.43,12.63,6.5,1.66.38,5.1.31,3.54-2.8-2.9-5.78,1-5.94,4.65-6.67-.07-.14-.13-.28-.19-.42,19.59,3.73,85.41,15,85.3,15.55,2.24,3.37,6.48,3.1,9.41,5.2a232.56,232.56,0,0,0,29.15-57.65,79.05,79.05,0,0,0,3.14-41.49c-1.71-8.71,4.3-7.89,4.55-8.77a104,104,0,0,0,4.41-30.85C343.89,282.59,341.77,264.14,340.89,263.59Z"/><g id="Patas"><path class="cls-3" d="M56,419.1c3.95-.47,6.64,2.13,9.37,4.22a18.55,18.55,0,0,0,13.07,4,51.3,51.3,0,0,1,12,.65c4,.68,7.12-3.16,11.07-4,1.79-.36,3.41-1.63,5,.35-3.76,4.43-2.16,9.58-1.9,14.54.11,2.17.63,4.39.36,6.52-.31,2.46-1.57,4.43-4.67,4.18-5.77-.47-10.33,2.16-14.51,5.77a12.61,12.61,0,0,1-10.19,3.37c-3.61-.42-6-1.39-4.36-5.64.56-1.52.93-2.91-1.19-3.64s-2.6.82-3.21,2.18c-2.23,5-5.91,7.65-11.51,7.22-4.73-.37-6.73-4.22-4.17-8.18,1.58-2.44,5.22-5.34,2.84-7.55-1.85-1.72-4.53,2.34-6.72,4-1.21.94-2.38,2.14-3.89.52-1.3-1.38-.9-2.84.07-4.13a20,20,0,0,1,7.53-6.61c3.68-1.66,5.29-4.06,4.79-8.25C55.35,425.55,55.85,422.3,56,419.1Z"/><path class="cls-3" d="M248.24,435.43c1.49.06,2.5-1.22,4.26,1.28C256.56,442.48,263.18,446,270,447c3,.46,7.08-3.14,10-5.67,3.91-3.4,7.87-6.89,10.81-11.26a4,4,0,0,1,3.87-1.8c2.24,3.37,6.48,3.1,9.41,5.2-1.58,4.49-5.12,7.07-9.28,8.54-3.47,1.23-2.9,2.5-.83,4.39,1.49,1.37,3.11,2.6,4.49,4.06a5.23,5.23,0,0,1,1.24,5.63c-.82,2.2-2.86,2-4.73,1.91-4.43-.2-8.73-.72-12-4.28a2.57,2.57,0,0,0-3.16-.87c-1.12.56-1.09,1.62-.75,2.62,1.22,3.68,1.36,7.39-2.63,9.16s-8.24.38-11.14-2.45-4.36-3.13-7.06.14c-3.1,3.77-7.41,3.82-11.4,1.27s-3.07-5.87-.92-9.2c.43-.68,1-1.5.33-2.27s-1.82-.28-2.8-.12c-1.52.25-3.16,3.27-4.5.45-1-2.13,1-3.6,2.68-4.89C245.5,444.49,248.86,441,248.24,435.43Z"/></g><g id="Manchas_marrones" data-name="Manchas marrones"><path class="cls-1" d="M94.1,249.92c3.75,6.22,7.29,12.59,11.33,18.61,3.71,5.54,2.29,22.56-2.67,27-4.67,4.15-5,9.86-.58,14.46,5.08,5.33,10.17,10.63,15.2,16,8.94,9.53,9.33,20.76,8,32.44-.45,3.83-3.06,6.92-6.84,8.84-10.7,5.42-20.88,2.73-29.17-6.4C84,355,76.42,351.91,68.81,349.72c-2.14-.62-4.51.72-6.29,2.5a20.59,20.59,0,0,1-15.87,6.34c-3.08-.11-6.1.36-8.33,2.75-1.27,1.35-2.48.31-3.72.33-.45-12-1.16-24.05.86-35.82,1.77-10.34,5.14-20.45,8.32-30.49a67.15,67.15,0,0,0,2-10.34c.51-3.23-1.27-4.38-4.29-2.75-1.17.64-2.33,1.87-3.64.9s-.92-2.79-.65-4.25c1-5.21,4.25-9.05,7.7-12.78.67-.72,1.78-1.24,1.53-2.43-.33-1.52-1.73-1.45-2.85-1.49-6.13-.22-4.24-2.84-1.77-5.7,3.55-4.11,5.72-8.94,5.53-14.31-.19-5.62,2-8.09,7.55-8,1.18,0,2.92.23,3.61-1.18s-.77-2-1.36-3c-.78-1.28-4-2-1.34-4.21,2.08-1.69,4.42-3.42,7.1-.72,4.62,4.65,9.52,9.07,13.86,14C81.54,244.41,87.75,247.2,94.1,249.92Z"/><path class="cls-1" d="M209.52,413.18c-1.73-3.47-.21-7,.2-10.36,1.17-9.75-2.35-19.18-1.39-28.91.47-4.82,2.19-9.14,3.8-13.5,1.38-3.72,7.2-4.34,9.34-.93,3.2,5.11,6.54,7.74,12.51,4.08,1.75-1.07,3,.55,3.76,2.29,1.68,3.95,6.74,5.52,9.74,2.34,5-5.27,10.22-3.92,15.71-1.84,8.17,3.08,17.32,2,21.3-3.68,3.84-5.47,7.62-11.12,10-17.5a19.15,19.15,0,0,1,5.68-8.65c3.18-2.66,3.29-7.18,3.49-11.18a99,99,0,0,0,0-12.66c-.28-3.61,1.92-5.31,4.46-6.58,3-1.49,3.69,1.67,5.44,3,3.81,2.89,6.11,7,9.26,10.42,7.22,7.81,6,17.41,2.52,26a185.46,185.46,0,0,1-14.35,27.78,51.17,51.17,0,0,0-6.9,19.21c-1.76,11.6-4.29,23-9,33.81a9.78,9.78,0,0,0-.39,2,4,4,0,0,0-3.87,1.8c-2.94,4.37-6.9,7.86-10.81,11.26-2.91,2.53-7,6.13-10,5.67-6.78-1.05-13.4-4.56-17.46-10.33-1.76-2.5-2.77-1.22-4.26-1.28-3.49-7.84-9.53-12.37-17.6-15.24C223.64,417.7,217,414.3,209.52,413.18Z"/><path class="cls-1" d="M345.29,294.75c-3.55-1.47-3.29-5-3.63-7.76-1-8-5.46-14.52-8.81-21.51-.72-1.5-1.85-2.82-1.61-4.64,4.7,2.25,8.52,5.78,12.66,8.84a4.45,4.45,0,0,1,1.91,2.79C345.93,279.9,347.75,287.39,345.29,294.75Z"/><path class="cls-1" d="M330,253.09c3.52-4.91,4.2-11.51,9.27-15.49,3.55,6.72,3.69,14.1,4,21.42.13,2.71-1.41,2.07-2.87,1.1Q335.25,256.63,330,253.09Z"/></g><path class="cls-4" d="M380.46,230.65c-3.25-.9-6.57-1.52-9.87-2.17-9.1-1.8-18.49-1.5-27.52-3.79-.76.21-5-3.42-8.78-5.78,1.21-.16,2.22-.71,2.19-2.77a10.18,10.18,0,0,1-.69-9,10.49,10.49,0,0,0-.09-7.38c-.93-2.65-2.37-5.86,2.34-7.09,1.54-.4,1.59-2.43,1.45-4-.37-4.16.5-8.41-.95-12.49-.5-1.42-.38-3.24,1.43-2.9,6.39,1.2,13.92-5.71,18.92-9.71,3-6,4-8,5-12,2.76-11.07.7-23.19-9.11-32.72-1.9-1.85-2.91-3.31-2.71-6.3,1-15-7.65-25.32-21.69-26.38-5.37-.4-10.84-.69-15.5,3a2.6,2.6,0,0,1-2.29.41c-1.33-.85.25-1.63.31-2.44.19-2.23,1.69-5.22-.95-6.5-5.9-2.87-5.17-10.53-10.43-13.74-.34-.21-.21-1.24-.24-1.89-.28-8.52-6.7-15.81-15-15.79-5.46,0-9.47-.55-10.12-6.94A2.31,2.31,0,0,0,275,40.75c-6.61-2.69-12.85-7.79-20.46-5.6-6,1.73-9.88-1-14-4.13-.67-.51-1.3-1.09-2-1.59-4.38-3.21-6.68-2.91-10.17,1.44-.86,1.07-1.66,2.49-3.07,2.37-1.74-.16-1.37-2-1.75-3.23-1.62-5.14-9-7.11-13.06-3.49-5.35,4.71-6.91,4.8-13.19,1.11-2.28-1.34-4.53-3.72-7.44-.88-1.2,1.18-2,.28-2.69-.89C185,22.29,182.3,19,180.36,15.27c-5.25-10-14.13-13.74-24.65-14.84-11.13-1.17-22.26.45-33.36.13C105,.06,89.32,13.64,91,33.1c.53,6.31,3.77,9.9,8.15,15.78,2.77,3.71,7.91,6.37,7.77,6.71,1.79,2.28,8.56,5.16,7.75,7.3-.86,2.3-5,3.18-8.24,3.85-7.38,1.54-8.66,4.86-4.79,11.15.44.7,1.8,1.91-.24,1.85-4.93-.14-8.54,3.77-13.28,4-1.19,4.88-5.28,2.91-5.2,7.86-3.57,2-5,13-5,11.4-3.85,4.78-7.3,3.15-11.15-.29C56.11,93.16,43,88.29,29.75,83.58c-2.05-.74-4.59-2-5.53.94-.81,2.6,2.1,2.45,3.64,3.16,8.56,4,17.54,7.21,25.57,12C60.54,104,68.59,107.87,72,116.55c.49,1.26,1.19,2.18-.76,2.46-8.66,1.23-12,7.55-13.43,15-.78,3.86-2.31,4.15-5.51,3.33a191.31,191.31,0,0,0-19.22-4.39c-9.9-1.49-19.85-.55-29.72.87-1.58.23-3.77.42-3.32,2.85.42,2.27,2.45,1.85,4.12,1.72s3.36-.33,5-.48c12.69-1.15,25.26-.92,37.62,2.7,2.66.78,5,.74,2.17,4.5-2,2.58-2.69,6.13-3.9,9.27-1.12,2.92-.06,5.3,2.76,6,3.87,1,3.84,3.39,2.74,6.13-2.37,5.89-4.92,11.72-7.52,17.52C35.94,200,28.55,215.82,23.28,232.5A187.37,187.37,0,0,0,15,301.38c.62,9.86,2.51,18.89,8.14,27,3.71,5.33,5.15,11.16,5.27,17.63.12,6.7-1.53,13.29-.48,20.11.79,5.18,3,9.83,4.06,14.81a74.9,74.9,0,0,0,6.27,17.93c3.9,7.84,9,15,12,23.32,1.61,4.38,1,8-3.3,10.4a25.82,25.82,0,0,0-7.38,6.76c-4.17,5.2-3.27,11,2.79,13.7a3.17,3.17,0,0,1,2.13,3.46c-.05,3,1.57,4.44,4.19,5.58,4,1.75,8.24,2.63,12.34,1.68,5-1.18,9.66-1.41,14.68.41,4.56,1.66,8.41-1.15,12-3.84,3.86-2.9,7.47-6.26,12.93-5.85,9.54.73,11.47-1.54,9.62-11-1.72-8.76-1.2-16.8,6.54-22.92a19.79,19.79,0,0,0,4.62-5.32c2.66-4.49,6.78-6.77,11.37-8.65,6-2.45,8.23-1.7,10.48,4.26,1.43,3.78,3.61,4.78,6.62,2,1.53-1.4,2.2-1.38,2.71.45,1.23,4.41,4.83,4.83,8.39,4.85,5.86,0,11.18.84,16,4.85,2.69,2.25,6.93,4.27,10.06,1,2.38-2.49,4-1.58,6.13-.58,4.1,2,8,4.11,12.92,3.66,3.89-.36,5.77-1.51,4.1-5.65-.76-1.88-1-3.36,2-2.68,10.22,2.3,20.37,4.75,28.64,11.76,3.31,2.82,3.14,6.28.92,9.5-1.89,2.76-4.4,5.09-6.58,7.66-1.86,2.2-3.4,5.56-.9,7.1,3.37,2.06,3.81,4.73,4.23,7.85.54,4,3.06,5.73,6.75,6.39,4.74.85,9.4,1.07,13.84-1.26,1.2-.64,2.46-1.45,3.72-.31,3.47,3.16,8,2.1,12,2.84,3.08.57,7.31.22,8.48-3.09,2.39-6.82,7.45-5.38,12.27-5,3.62.3,6.88-.06,8.76-3.53,1.75-3.23,2.63-6.62-.13-9.91s-3.05-5.92.33-9.79a79.73,79.73,0,0,0,12.15-17.46c3.15-6.49,6.14-13.13,10-19.19,6.9-10.79,10-23,13.6-35,2.76-9.22,2.19-19.26,3.68-28.75,3.19-20.33,7.24-40.47,5.8-61.22-.31-4.35,2.24-2.17,3.66-1.1,7.54,5.67,15,11.46,22.48,17.2,1.59,1.21,3.37,3.11,5.16.8,1.59-2-.58-3.35-1.88-4.54a155,155,0,0,0-23-17.3c-5-3.07-9.39-6.67-8.24-13.58.53-3.26-.41-6.28-1.44-9.36-1.81-5.43-3.19-11-4.95-16.47-.9-2.77-.35-3.61,2.62-3.1,5.48.93,11,1.44,16.51,2.45,6.13,1.14,12.2,2.59,18.28,4,2.45.57,5.14,1,5.83-2S382.43,231.19,380.46,230.65Zm-349,91.71c-.39,1.67-.51,3.46-2.81,3.56a3.86,3.86,0,0,1-4.14-3c-1.55-5.83-3.54-11.65-4.16-17.59s-1.73-11.7-1.13-16.24c.86-30.28,5.72-58.24,19.3-84.16a27.44,27.44,0,0,0,3.23-9c.35-2.39,1.63-4.68,4.32-4.91,2.92-.25,2.38,2.67,3.26,4.31,3.18,5.95,3.62,12.95,7.44,18.68,2.9,4.35-.72,6.21-3.77,7.49-3.81,1.6-8.34,2.3-3,7.41.76.73.57,1.65-.52,1.86-6.59,1.27-6.43,6.84-6.69,11.46a19.89,19.89,0,0,1-4.54,11.92c-2.74,3.48-5.5,7.42-.91,12,1.66,1.64-.15,3.85-1.1,5.53-2.27,4-4.3,7.92-3.81,12.8.29,2.88.7,4.81,4.16,3.35,4.07-1.72,4.45.8,3.69,3.58C38.19,299,35.8,306.5,33.6,314.08,32.8,316.82,32.09,319.59,31.43,322.36Zm314.38-49.89c.12,7.43,1.94,14.92-.52,22.28a104,104,0,0,1-4.41,30.85c-.25.88-.16,2.24-1.38,2.4s-1.43-1.23-1.93-2c-3.26-5.2-1.75-11.59-4.2-17-.3-.67.48-1,1.11-1.34,5.37-2.93,6.26-7.37,2.43-12.27-1.23-1.59-2.69-3-4.06-4.49-1.73-1.87-3.19-3.29-1.22-6.41s-.51-6.54-3.16-8.12c-6.42-3.8-8.12-10.2-10.39-16.43-.54-1.5-1-2.86.09-4.24,1.27-1.57,2.86-.88,4.09-.19,3,1.73,6.39,2.92,9,5.38,4.71,2.25,8.53,5.78,12.67,8.84A4.45,4.45,0,0,1,345.81,272.47ZM343.34,259c.13,2.71-1.41,2.07-2.86,1.1-3.49-2.33-7-4.68-10.44-7-4.73.21-5.34-3.21-5.33-6.59,0-2.91.76-5.81,1.19-8.72-3.12-.73-5,3-6.66,2.94-4.81-.14-8.94,2.95-13.69,2.16a18.74,18.74,0,0,0-2.49-.06c-.16,4.48,4,4.45,6.51,5.75,2.69,1.42,4.18,3,3.23,5.81-1.79,5.36-3.16,10.81-6.84,15.51-3.17,4.05-7,5.38-11.67,5.84-3.55.35-2.33-2.33-2.61-4.11-.23-1.49,1.32-3.87-.9-4.27-1.53-.28-1.48,2.25-2,3.57-4,9.95-12.55,14.46-21.67,18.31-.61.26-1.35.23-2,.51s-1.95,1-1.89,1.23c.33,1,1.34.42,2,.45,8.61.39,15.75-2.89,21.63-9,1.86-1.93,3.68-3.33,6.53-3.06,10.07.92,15.4-5.08,19.2-13.28.51-1.1.24-3.08,2-2.88.8.09,1.84,1.65,2,2.68,1,5.53,4.43,9,9,12,4.36,2.87,4.09,4.14-.66,6.13-1.24.52-2.65.8-2.88,2.42-.3,2.16,1.87,1.42,2.73,2.22,2.46,2.28,4.9,4.58,7.41,6.8a6.19,6.19,0,0,1,1.91,6.44c-.57,2.32-3,1.45-4.48,1.55-4.22.29-1.93,2.88-1.42,4.21a158.77,158.77,0,0,1,8.09,26.68,79.05,79.05,0,0,1-3.14,41.49A232.56,232.56,0,0,1,304,433.51c-1.58,4.49-5.12,7.07-9.28,8.54-3.47,1.23-2.9,2.5-.83,4.39,1.49,1.37,3.11,2.6,4.49,4.06a5.23,5.23,0,0,1,1.24,5.63c-.82,2.2-2.86,2-4.73,1.91-4.43-.2-8.73-.72-12-4.28a2.57,2.57,0,0,0-3.16-.87c-1.12.56-1.09,1.62-.75,2.62,1.22,3.68,1.36,7.39-2.63,9.16s-8.24.38-11.14-2.45-4.36-3.13-7.06.14c-3.1,3.77-7.41,3.82-11.4,1.27s-3.07-5.87-.92-9.2c.43-.68,1-1.5.33-2.27s-1.82-.28-2.8-.12c-1.52.25-3.16,3.27-4.5.45-1-2.13,1-3.6,2.68-4.89,3.92-3.11,7.28-6.56,6.66-12.17-3.49-7.84-9.53-12.37-17.6-15.24-7-2.49-13.67-5.89-21.12-7-3.66.73-7.55.89-4.65,6.67,1.56,3.11-1.88,3.18-3.54,2.8-4.7-1.07-9.44-2.21-12.63-6.5-.76-1-1.12-3.38-3.1-2.61-1.81.69-1,2.5-.86,4,.11,1.28.1,2.94-1.25,3.52s-2.83,0-4.11-1.12c-4-3.46-8.93-4.51-14-5-8.67-.89-8.67-.81-10.42-9.14-.19-.91.39-2.24-.83-2.62s-1.66.87-2.15,1.69c-2.14,3.53-4.25,4.25-6.42,0-1.13-2.19-3.08-2.81-5.42-3.07-12.93-1.42-19.64,7.48-26.48,16-2.11,2.63-3.66,5.67-7.25,6.58-3.76,4.43-2.16,9.58-1.9,14.54.11,2.17.63,4.39.36,6.52-.31,2.46-1.57,4.43-4.67,4.18-5.77-.47-10.33,2.16-14.51,5.77a12.61,12.61,0,0,1-10.19,3.37c-3.61-.42-6-1.39-4.36-5.64.56-1.51.93-2.91-1.19-3.64s-2.6.82-3.21,2.18c-2.23,5-5.91,7.65-11.51,7.22-4.74-.37-6.73-4.22-4.17-8.18,1.58-2.44,5.22-5.34,2.84-7.55-1.85-1.72-4.53,2.34-6.72,4-1.21.94-2.38,2.14-3.89.52-1.3-1.38-.9-2.84.07-4.13a20,20,0,0,1,7.53-6.61c3.68-1.66,5.29-4.06,4.79-8.25-.37-3.14.13-6.39.24-9.59-3.25-6-8.22-10.75-10.62-17.42-3.73-10.34-8.67-20.26-11.76-30.85-.86-2.93-1.24-6.35,1-9.19-.45-12-1.16-24.05.86-35.82,1.77-10.34,5.14-20.45,8.32-30.49a67.15,67.15,0,0,0,2-10.34c.51-3.23-1.27-4.38-4.29-2.75-1.17.64-2.33,1.87-3.64.9s-.92-2.79-.65-4.25c1-5.21,4.25-9.05,7.7-12.78.67-.72,1.78-1.24,1.53-2.43-.33-1.52-1.73-1.45-2.85-1.49-6.13-.22-4.24-2.84-1.77-5.7,3.55-4.11,5.72-8.94,5.53-14.31-.19-5.62,2-8.09,7.55-8,1.18,0,2.92.23,3.61-1.18s-.77-2-1.36-3c-.78-1.28-4-2-1.34-4.21,2.08-1.69,4.42-3.42,7.1-.72,4.62,4.65,9.52,9.07,13.86,14,4.77,5.39,11,8.18,17.33,10.9.73-2.3-1.08-3-2.52-3.72-14.08-7-22.61-19.27-30-32.34-3.69-6.53-6.14-13.77-9-20.77-4.28-10.67-1.3-20.31,4.55-29.46.81-1.26,1.73-2.46,2.6-3.69-.17-2.27-1.48-3.32-3.67-3.23-3.73.15-4.8-2-4.3-5.16.74-4.65,3.75-7,7.22-6,6.71,1.92,12.54,5.65,18.61,8.92,1.94,1,4.76,4.1,6.52,1s-2.41-3.84-4.22-5.06C75,147,69.72,143.94,64.46,141c-2.83-1.59-3.09-3.42-1.92-6.25,3.06-7.38,7.88-12,16.39-11.46-.05-.72,11.2,6.39,12,7.33,1.79,2.2,3.88,5.08,5.32,6.88,1.68,2.12,3.7,5.31,5.59,3.21,1.34-1.49.1-3.74-.91-5.09-3.49-4.7-17-17-21-20-.16-1.8,4.15-7.77,7.16-12.4,0,.28,0,.56,0,.84,3.07-.76,5.86-2.59,9.25-2.14a2,2,0,0,0,2.46-2c0-1.47-1.22-1.8-2.44-2A11.68,11.68,0,0,1,93.45,97c-5-2.47-5.21-4.7-1.4-8.73,4.06-4.3,9.2-3.38,14.19-3.52,2.43-.07,5.75.76,6.53-2.21.61-2.37-1-4.87-3.66-6a3.18,3.18,0,0,1-.85-.55c-.89-.77-1.93-1.55-1.78-2.88.19-1.65,1.67-2.21,2.94-2.31,2.28-.19,4-1.85,5.89-2.24,4.34-.92,5.86-6.18,10.53-6.1,1.17,0,2.55,0,2.5-1.71,0-1.41-1-2-2.32-2.25-3.56-.59-6.13-.89-9.6-3.2-3.53-1.69-5.53-3.69-10-8-6.14-5.72-11-12.16-9.11-21.16,1.41-6.61,3.9-12.56,11.08-15.6,12-5.08,24.31-5.34,37-4,6,.63,12,1.1,18,2.24,4.26.82,7.84,2.71,10,6.77,3.64,6.93,9.68,12.36,12.35,19.92.52,1.45,1.79,2.25,2.73,0,1.81-4.28,5-4.14,8.3-2.21,4.57,2.68,8.39,3.63,13.27-.28A6.41,6.41,0,0,1,219.84,35a6.4,6.4,0,0,0,10,1.58c3.07-2.61,5.64-2.83,9-.4s6.89,4,10.37,6c2-.92,3.85-1.93,5.85-2.72,2.92-1.17,5.19-.58,6.2,2.73a8.21,8.21,0,0,1,9.9,5.76c1.32,5.64,4.58,7.74,10.14,7.4,3.48-.21,6.87-.2,10.16,2s4.95,4.39,4.35,8.23c-.05.33-.15.82,0,1,4.5,4.7,4.85,11.85,9.52,16.38,2.16,2.1,2.34,8.61-.21,11.59-.81,1-2.58,1.43-1.57,3.17.8,1.4,2.32,1,3.64,1.21,4.32.58,7.16-2.39,10.49-4.22,12.35-6.79,25.83-2.07,29.46,11a11.06,11.06,0,0,1,.25,4.51c-1.06,6.58,2.07,11.59,6.44,15.66,7.75,7.24,6.35,15.89,4.77,24.75.09.71-3.19,9-3.66,8.91-5.52,4.44-12.68,9.7-20.3,7.65-3.55-1-3.89,2-2.9,4.47,1.48,3.73,1.55,7.54,1.57,11.43,0,2.94-.61,4.74-4.05,3.49a3,3,0,0,0-3.58,1.13c-1,1.45.16,2.51,1.07,3.49,4.18,4.46,3.92,10.3,4.26,15.69.19,3.13-1.44,7-4.14,8.74s-4.65-1.39-6.48-3.31a2.22,2.22,0,0,0-3.19-.32c-1.52,1.22-1,2.49-.16,4,2.8,5.17,2.05,6.65-3.71,7.43-1.66.23-3.37,0-5,.12-4.14.28-8.28-1.38-12.42,0-1.47,2.06-1.81,3.71,1.5,3.92,1.83.11,3.66.12,5.49.24,6.44.41,13-1,19.32.89,3.52-.53,6.21-2.42,6.34-5.76,2.86,2.76,8.39,7,7.73,7.9,2.11,1.77,1.94,4.59,3.12,6.8C342.86,244.32,343,251.7,343.34,259Z"/><g id="Nariz"><path class="cls-4" d="M213.92,212.59c-3.34,3.55-7.9,3.39-12.17,3.8a20.43,20.43,0,0,0-18.57,21.16,8.91,8.91,0,0,0,5,8.1,7.43,7.43,0,0,0,9.3-1.06c1.32-1.21,3.23-3.17,4.57-1,1,1.68-1.16,3.18-2.8,4.16-5,3-10.21,4.22-15.88,2.13-2.34-3-5.18-3.83-8.86-2.53-2.84,1-5.63.49-6.47-2.83s-3.05-4-6-3.89c-6.64-3-9-8.58-9.31-15.41-.06-1.35,0-3.17,1.5-3.37,2-.27,1.52,1.69,1.7,2.93.59,4.1,1.33,8.19,6.09,9.49,5.09,1.39,9.76.48,13.12-3.85,7.74-9.95,9.9-16.35,1.68-27-2.06-2.68-4.08-5.83-3.45-9.69,3-.77,4,.77,5,3.42,3.66,10.06,10.87,14.72,21.53,14.13a70,70,0,0,0,9-1.26C211.38,209.5,213.3,209.7,213.92,212.59Z"/><path class="cls-3" d="M213.92,212.59c-.62-2.89-2.54-3.09-5-2.62a70,70,0,0,1-9,1.26c-10.66.59-17.87-4.07-21.53-14.13-1-2.65-2-4.19-5-3.42,2.94-10.39,5.25-10.89,18.59-9.3,11.35,1.35,19.7,8.72,24.8,19.16C217.89,208.59,216.89,209.59,213.92,212.59Z"/><path class="cls-3" d="M162.11,240.62c2.92-.15,5.11.48,6,3.89s3.63,3.84,6.47,2.83c3.68-1.3,6.52-.47,8.86,2.53C173.27,255.28,163,250.8,162.11,240.62Z"/></g><g id="Pelo_de_orejas" data-name="Pelo de orejas"><path class="cls-4" d="M311.91,119.21c-.09-3.66.75-6.65,4.93-7.61,1.71-.39,2.69-1.77,3.67-3.23,2.56-3.79,6.49-3.68,10.43-3.2.59.07,1.63.71,1.6,1-.71,6.24,5.89,10.39,4.77,16.72-.22,1.23.37,3-1.61,3.09-1.65,0-1.47-1.56-1.52-2.68-.23-5.11-6.13-7.67-5.76-13.34.1-1.56-2.95-1-3.88.57a10.3,10.3,0,0,1-6.22,4.74c-3.22,1-2.07,3.76-2.26,6Z"/><path class="cls-4" d="M146.3,18.9c-2.5,0-4.7-.31-6.56,1.35a1.68,1.68,0,0,1-2.66-.13c-.66-1-.09-1.93.6-2.74a6.31,6.31,0,0,1,5.18-2.63c5.62.12,11.06.77,15.65,4.43,1.71,1.37,3.36,2.78,5.58,3.28.48.11,1.21.35,1.31.68,1.64,5.51,5.49,9.64,8.48,14.32,1.61,2.54-1.7,4.21-4,4.53-5.35.76-11.26-1-15.63,3.86-.23.27-1.37.09-1.78-.25a2.17,2.17,0,0,1-.29-2.79,7,7,0,0,1,5.72-3.64c1.49-.19,3,0,4.54-.09,1.78-.1,4,.7,5-1.33.91-1.83-1.4-2.82-1.88-4.37-1.92-6.19-6.79-9.4-12-12.44C151.13,19.52,148.76,18.65,146.3,18.9Z"/></g><g id="Ojos"><path class="cls-4" d="M152.6,134.6c-4,.49-7.87,0-9.31-2.75-2.87-5.5-3.46-10.86-.42-16.2,4.37-7.71,11.55-11.46,20.06-12.53,7.49-.94,10.86,6.72,10.11,13.08C171.78,126.81,162.64,133.37,152.6,134.6Z"/><path class="cls-4" d="M258.14,172a32.57,32.57,0,0,1,3.45-14.55c1.11-2.13,2.52-4.31,4.75-5.21,2.42-1,5.7-.35,8.22.13,3.95.77,5.27,3.94,6.4,7.42a33.07,33.07,0,0,1,1.6,12.91c-.49,5.84-3.34,16-10.38,16.68a13.53,13.53,0,0,1-5.95-1,14.09,14.09,0,0,1-5.65-3.64C257.62,181.44,258,176.16,258.14,172Z"/><path class="cls-2" d="M165.53,108.71a3.09,3.09,0,0,1,3.25,1.85,3.58,3.58,0,0,1-5.39,4.48C160.31,112.63,162.83,109.06,165.53,108.71Z"/><path class="cls-2" d="M274.09,159.07c0,2.14-1.22,4.35-3.6,3.78-3.22-.76-3.72-5.95-.54-7.12C272.73,154.71,274.07,156.85,274.09,159.07Z"/></g><path class="cls-5" d="M324.89,238.59c-8,3-13,4-19.34,4.29-4.36.21-12.41-1.14-17.36-1.79-9.13-1.2-16.75-6.07-24.9-9.64a.1.1,0,0,1-.06-.08c-.29-2.44-1.82-4.13-3.46-5.79s-1.67-2.88,1.1-3c1.15,0,2.29,0,3.44-.06l.07,0c9.31,6.79,19.62,11.37,31.08,12.69a50.71,50.71,0,0,0,28.67-4.6C327.55,229,338.26,220,342.89,215a126.39,126.39,0,0,0,16-21.42h0c4-9,4.85-13.46,1-25a37.59,37.59,0,0,0-8-13c-7.53-8-20.48-17.58-33.93-24.17-13.28-6.5-27.17-10.81-42.27-9.17-10.15,1.11-13.8,1.34-19.8,6.34-4.92,4.09-7.28,9.59-8.32,11.19-10,15.54-12.32,32.42-8.64,50.32a.1.1,0,0,1-.05.11c-1.53,1-3,2.28-5,2a.1.1,0,0,1-.09-.07,88,88,0,0,1-1.89-9.59c-.57-5.73-.21-12.14,1-23,1-9-1.77-11.81-6.11-14.56s-6.91-4.31-11.89-5.44c-5.86-1.34-8-1-13.5,4.47-4.14,4.11-8.5,8.53-12.74,13.21s-8.38,6.56-13.31,10.12c-.08.06-.16,0-.17-.09-.28-2.71-1.28-3.71-2-7.17,0,0,0-.07.08-.08,3.51-1,5.83-3.75,8.5-6,15.05-12.54,23-28.13,23.93-48.2.26-5.28-1.74-9.28-3.74-13.28h0c-5-8-13.83-17.79-23.17-22.55-13.29-6.78-26.79-13.62-42-15.1-6.72-.66-13.48-1.67-20.28-.65A24,24,0,0,0,109,55.87c-2.5.91-5.78,1.69-7.31,2.79-8.62,6.2-10.81,15.22-13.63,25.07-1.63,6.7-1,13.52-1,20.3a153.51,153.51,0,0,0,1,19.15c.18,1.46.38,5.26,1,6.95a34.3,34.3,0,0,0,4.79,9.46c4.33,5.76,8.17,8.29,10,10a66.61,66.61,0,0,0,22,13c5.77,1.92,9,2.94,9,3-.61,3.34-.67,4.69-7.34,5.32h0c-1.63-.29-3.29-.49-4.89-.88-11-2.69-19.18-10.27-27.51-17.15-9.14-7.55-15.34-17.26-16.19-29.62-.49-6.75-1.36-13.48-1-20.27,0-9.4.68-19,3.22-28.35C83.73,65.15,87.29,57.29,95.86,52c7-4.37,17.51-5.76,21-5.66,15.92.44,31.5,2,46.77,7.74,18.26,6.88,34.32,15.73,43.7,33.72a57.67,57.67,0,0,1,3.26,6.16c4.45,11,1.92,22-1.6,33.05-1.13,3.53.49,4.63,3.38,5.2a50.58,50.58,0,0,1,21,9c1.72,1.3,3.56,2.38,5.19,0,6.33-9.25,13.58-19.75,24.32-23.53a61.77,61.77,0,0,1,31.42-2.6c14.58,2.6,42.24,16.47,50.58,22.6,10.51,7.71,16.38,15.72,17.86,18.14a49.41,49.41,0,0,1,6.51,19c1.19,8.62-1.05,16.3-5.24,23.63a111.65,111.65,0,0,1-14.26,19.11C341.81,226.08,332.07,235.89,324.89,238.59Z"/><g id="Pelo_de_lentes" data-name="Pelo de lentes"><path class="cls-4" d="M173.14,160.07c.75,2.52,2.34,4.7,2,7.46-1.16.89-2.2,3-3.2-.35-.71-2.37-11-9.22-11-3.08,0,1.3-.4,2.84-1.85,3.28s-2-1-2.82-1.75c-5.1-4.54-11.67-5.29-17.1-2-2.77,1.65-3.46,3.11-.14,4.93a20.79,20.79,0,0,1,3.57,2.72c1.09,1,1.64,2.25.63,3.56-1.15,1.5-2.28.73-3.39-.23-2.79-2.41-11.29.9-12.51,0-1.48-1.15-.14-2.41.22-3.61,6.76-.63,5.36-2.32,4.36-5.32-.71-2.13,1-3,3.05-4.7,6.12-5.07,12.06-4.75,18.54-1.38,1.94,1,3.42,2.25,4.68-1.49,1.63-4.87,5.6-3.48,8.73-2.43S170.89,157.59,173.14,160.07Z"/><path class="cls-4" d="M238.94,190.17c2.1,1.71,4.88.63,7.19,1.88,2.8,1.51,5.15,2.87,2.85,6.44-1.59,2.47-.38,3.82,1.89,4.48,9.9,2.84,14,9.62,13.48,19.58-1.16,0-2.32,0-3.48.06-2.77.09-2.77,1.29-1.1,3s3.19,3.37,3.46,5.85c-.18,3-1.45,3.54-3,.92-1.93-3.36-4.17-5.88-8.12-6.92-2.73-.73-2.37-2.49-.27-3.87a8.26,8.26,0,0,1,2.76-1c6.63-1.37,7.66-3.75,3.75-9.33a13.32,13.32,0,0,0-10.57-6c-3.78-.12-4.3-1.06-2.87-4.39.69-1.59,3.35-3.28,1.12-5.29s-5.08-1.72-7.54-.27c-3.74,2.22-4.82.67-4.72-3C235.91,192.52,237.37,191.2,238.94,190.17Z"/></g></svg>