<svg id="Layer_1" data-name="Layer 1" xmlns="http://www.w3.org/2000/svg" viewBox="0 0 502.55 631.15"><defs><style>.cls-1{fill:#f5cdcd;}.cls-2{fill:#948779;}.cls-3{fill:#e5ddd5;}.cls-4{fill:#e5c29c;}.cls-5{fill:#6b5b45;}.cls-6{fill:#f8f6f3;}.cls-7{fill:#524d49;}.cls-8{fill:#fba865;}.cls-9{fill:#fc666d;}.cls-10{fill:#7df969;}.cls-11{fill:#8368f7;}.cls-12{fill:#fb6ad8;}.cls-13{fill:#6cdcf9;}.cls-14{fill:#fcf969;}.cls-15{fill:#ba4e4f;}.cls-16{fill:#3f392d;}.cls-17{fill:#fff;}</style></defs><title>fulo</title><path class="cls-1" d="M195.4,203.81c-7,.9-13.89,1-20.5-1.87a9.53,9.53,0,0,0-5.72-.45c.12-10,9.46-18.66,21.81-17.57C193.12,190.4,196,196.72,195.4,203.81Z"/><path class="cls-2" d="M321.85,305.49c-2,8-5.6,27.64-6,33-7-3-13-11-15-16-1-5,2-16,3-21C306.34,301,319.83,304.36,321.85,305.49Z"/><path class="cls-1" d="M132.71,604.46c-4.87-1.13-7.72-.73-9.92,2.81a11,11,0,0,1-7.69,4.88c-1.36.23-2.93.42-4-.84a3.49,3.49,0,0,1-.23-4,31.71,31.71,0,0,1,12.61-11.78c1.71-.85,3.22.16,4.85.65,16.2,4.84,32.47,9.35,49.69,9.4-3.27,5.58-10.51,12-15.62,14s-6.94.94-7.65-4.87c0-.28,0-.57,0-.85-.21-1.58.6-3.6-1.39-4.49s-2.82.93-4.16,1.91a86,86,0,0,1-10.73,7.12,45.16,45.16,0,0,1-8.48,3.19c-2,.57-5.59,2.09-7.09-.2-.79-1.2-.12-2.67.44-4C125.28,612.54,128.48,608.63,132.71,604.46Z"/><path class="cls-3" d="M67.93,146.28h-.09l0,.05Z"/><path class="cls-4" d="M227.26,328.91c-7-7.17-16.27-8.22-25.37-2.9-6.77,4-13.75,7.64-21.91,6.35-6.85-1.09-14.06-1.95-17.8-9.24l-7.33.61c-2.53,2.61-5.78,1.74-8.81,1.91l-.19-.15c-2.81-.74-5-2-9.75-.9-6.45-.39-12.89,1.23-19.36-.11-9.24-1.91-17.37-6.2-25.62-10.4-3.94-2-9.33,1.29-9.42,5.62,0,1.67.88,1.59,2.18,1.33,3.34-.67,3.18,1.57,2.49,3.57a39.33,39.33,0,0,1-2.79,5.23,37.69,37.69,0,0,0-3.52,10.35c-.27,1.34-.24,2.95,1.17,3.8s2.59,0,3.91-.62c2.2-1,3.24-3,4.78-4.62,1.23-1.26,2.23-3.47,5.22-2,.06,3-1.22,6-2.48,8.6-3.92,8.16-4.93,16.72-4.48,25.57.22,4.23-1.11,12.91-1.27,20.33-.8-.88-2.15-4.71-3.06-5.72.63.7-2.58,6.08-3,7-1.29,2.85-2.17,4-3,7a84.62,84.62,0,0,1-5,8c-1.09,1.38-.38,4.25-1,6-.11.32,1.55,1,1.65.93a5.88,5.88,0,0,1,6.51,2.3c2.19,2.94,5.17,2.74,8.26,2.26a2,2,0,0,1,2.83-1c4.7,2.75,8.31.64,12.39-1.88,3-1.87,4.77-6,9.15-5.59,0-2.46-1.54-3.89-3.45-5-.63-3.82-2.93-5.2-6.63-4.64-3.16.48-2.26-7.58-.89-7.87,2.43-.52,2.69-3.47,3.43-5.52.82-2.27-.11-5.27,3-6.56,2.48,5.32,2.3,11.64,6.07,16.48,2.36,5.27,5.22,10,11.79,10.52,1-3.55,2.89-6.84,3.18-10.6,2.8-.5,4.16,1.27,5.3,3.39.05,3.46,2.41,5.32,4.92,7.06.56-1.57,2-1.55,3.28-2.13,4.27-2,7.58-4.72,7.22-10.17-.27-4-.52-7.69,5.2-8.94,2.29-.5,4.77-4.16,4.81-7.28.07-4.32,2.59-4.64,5.53-4.11,5.25.95,9-1.9,13.21-4.19,3.32-1.81-.32-7.72,4.8-7.69,3.4,0,5.71-1.58,8.41-3.17,3.16-1.84,6.1-3.91,9.11-5.93,3.35-2.24,5.71-4.17,5.23-8.59-.38-3.5,2.64-2.87,4.74-3.2.09-.49.2-1,.31-1.44,8.66-2.4,4.94-.28,7.66-.4,2.27-.2,3.9-2.81,6.07-3.35C230.51,335.74,231.22,333,227.26,328.91Zm-74.09,15.74v0Zm-5.44-4a4.56,4.56,0,0,0,0,.64A4.56,4.56,0,0,1,147.73,340.68Zm3.48,37.05a7.9,7.9,0,0,0,1.19-2.13A7.9,7.9,0,0,1,151.21,377.73Zm1.84-4.66a20.88,20.88,0,0,0,.21-2.63A20.88,20.88,0,0,1,153.05,373.07Zm.17-30a2.61,2.61,0,0,1,.22-.75A2.61,2.61,0,0,0,153.22,343.11Zm4.21.89a3.68,3.68,0,0,0,1.3,1.3,3.68,3.68,0,0,1-1.3-1.3,14,14,0,0,0-1.35-1.94A14,14,0,0,1,157.43,344ZM171,355.36c-1,.06-1.8.05-2.53.08.73,0,1.56,0,2.53-.08,3.14-.22,6.31-.28,9.49-.39C177.26,355.08,174.09,355.14,171,355.36Z"/><path class="cls-5" d="M185.57,64.42a15,15,0,0,1-2-1.27,2.4,2.4,0,0,1-.92-2.81,1.64,1.64,0,0,1,1.27-.65c1.48,0,1.51,1.23,1.63,2.26.1.79.05,1.61.07,2.41Z"/><path class="cls-5" d="M185.62,40.52c-.53,1.76-2,1.68-3.4,1.72l-.07-.07c.55-1.76,2-1.68,3.41-1.71Z"/><path class="cls-2" d="M67.87,146.34l1.21.68c-1.19,1-.87-.33-1.15-.74Z"/><path class="cls-5" d="M182.22,42.24a2,2,0,0,1-1.7,1.7l-.07-.08a2,2,0,0,1,1.7-1.69Z"/><path class="cls-5" d="M185.63,64.36l1.21.76c-1.16,1.11-1-.26-1.27-.7Z"/><polygon class="cls-5" points="181.38 56.31 181.59 56.88 181.05 56.82 181.38 56.31"/><path class="cls-4" d="M352.78,390.4c-.92,3.83-2.36,7.38-5.2,10.23-.61,1.06-1.23,2.12-1.85,3.18,2,.06,4,.17,5.93.16,2.25,0,5-2.29,5.19-.48,3,.79,3.15-2,6-2,1-2.06,3.38.11,5,0,2.39-.16,4.87.46,7.23-2.2-1.91-.78-1.49-1.62-.32-2.92,5.92-6.62,11.8-13.28,15.66-21.41-.43,0-.85.05-1.26.05.41,0,.83,0,1.26-.05a21.34,21.34,0,0,0,5.3-15.48c-.11-2.34-1.12-5.13,1.54-7,2.94,1.19,4,4.35,6.79,7.32-.64-4,.48-7.6-.24-10.79-.48-4.74.19-12.3-1-15.56-1.2-3.42-4.53-6.24-2.94-9.42,3.35.45,4.15,4.11,7.72,4.32-1.54-7.35-4.83-13.23-8.62-18.61-2.62-3.71-2.12-10.95-.16-14.29-2.51.13-8.46,2.25-11,3-15.34,4.57-36,9-43.62,9a69.53,69.53,0,0,1-11.46-.85c-2.57-.45-5.14-.91-7.72-1.35-1.52-.26-3.45-.87-4.95-.66a6.8,6.8,0,0,1,.36,3.52,22.9,22.9,0,0,1-1.25,3.57,46.93,46.93,0,0,0-2,8,59.33,59.33,0,0,0-1.26,8.88c-.07,1.56,1.12,6.61-1.19,7.2a23,23,0,0,1,2.28,11.9m0,0c-3.14,2.76-4.2,5.39-1,9.19,1.92,2.24,4.36,4.53,4.8,7.84,2,0,3.86.16,5.44,1.77,5.24,5.36,11.73,9.06,19,9.75,5.37.5,6.13,3.91,7.2,7.42.63,2.1.21,4.5.27,6.77"/><path class="cls-1" d="M410.85,574.49c-3.58-3.19-6.91-4.73-11-7-.84-.07-4.18.18-5,0-1.05-.23-2.84.22-2.68-1.36.21-2,3.34.44,4.68.36.48-.16,4.52.85,5,1,1-4.23-4.81-8.63-7-9-2.49-3.19-10-3-15-2a17.11,17.11,0,0,0-12.56,9.56c-3.39.68-5.47,3.54-8.39,5.05-4.16,2.14-16.06,5.26-21,5.39.55,1.12-.54,1.88,0,3,4.63.79,33.84,9.26,37,11,1.89,1,2.45,1.25,4,1,.56,0,3.45,0,4,0,2.67-.2,3.81-.16,5.32-3.09a7.79,7.79,0,0,0-1.67-9.32,7.72,7.72,0,0,1-1-1.31c-.7-1.07-.7-2.24.45-2.83a2.57,2.57,0,0,1,2.24.47c4.74,4,3.55,11.67,9.69,12.08,1.46.1,2.24.52,5,1,.58,0,4.43,0,5,0s3.45-1,4-1c3-.22,2.73-.42,4-4C417.26,579.54,413.6,576.93,410.85,574.49Z"/><path class="cls-6" d="M262.29,332.19c1.87-1.91,4-3.19,6.81-2.81-.27,3.64,2.24,6.27,3.31,9.4,1.77,5.14,4.92,10.23,4.31,15.64a64.55,64.55,0,0,0-.23,14.23l-.44-.33.39.39-3.81-.44c-4.64-6.4-2.94-14.3-4.94-21.37A82.2,82.2,0,0,0,262.29,332.19Z"/><path class="cls-3" d="M163.85,56.49c-12-4-30.68,12.06-31.25,9.62-1.37-5.79-3-6.27-8.24-3.5a24.45,24.45,0,0,0-10.48,10.51c-2.35,4.49-4.46,9.06-5.07,14.17-.13,1.16-.4,2.21-1.77,2.51a3.82,3.82,0,0,1-3.8-1.27c-1.08-1.13-.93-2.58-1.29-3.91-1-3.54-2.55-4.11-5.21-2a14.21,14.21,0,0,0-3.56,4.65,41.42,41.42,0,0,0-4.82,16.81c-.41,5.31-1,5.58-6,2.86-1.22-.65-2.21-2-3.71-.91-2.37,1.7-4,3.68-4,7,0,1.38-.78,2.46-9.78,9.46-17,3-30.13,6.33-37.75,10.24a109.17,109.17,0,0,0-13.7,29.1,110.08,110.08,0,0,0-5.92,23.34c-.82,5.94.13,9.16,5.66,11.25,8.32,3.15,16.71,6.28,25.81,6.48,5.91,4.35,10.92,8.56,10.55,17.48-.24,5.54,2.49,8.06,6.49,7.46.17,5.37.35,11.81-.14,12.65-1.18,2,3.6,13.45,3,20-1,11,3.35,10.48,1,12-.46,2.26,15.46,18.74,15,21,1.88,2.1,23.33,16.93,26,18,5.47-1.78,11.09-36.08,17-40,2-.75-7.06-4.69-4.83-3.95.7-.43,1.41-1.25,2.08-1.23,6.38.25,9.91-3.48,13.1-8.4,2-3,9.16-19.12,10.69-21,3.6-4.47,10.72-33.25,10.46-34.84a19.91,19.91,0,0,0,.32-4.63c-2.27-9.69-5.83-19-9.24-28.3-.16-.44-1.51-.46-2.31-.67-.94-2.74-1.87-5.49-2.81-8.23,13.54-21.72,7.86-23.91,5.54-28.72-.62-1.29-3.52-14.27-2-15,2-.94,50,14.61,50,13l14-41C193.85,73.49,161.6,60.86,163.85,56.49Z"/><path class="cls-2" d="M302.85,403.49c-2.43,16.8-23.32,135.73-24,138-1.42.66-2,3.71-2,5l-2,1a43,43,0,0,1-4,3c-4.43,2.72-12.76-1.31-15-6a11,11,0,0,1,0-4c2.1-9.89,5.18-20.2,7.25-30,2.29-10.85,11.81-64.17,13.75-78,2-14.43,7-27.75,9.5-42.12.45-2.57.67-6.49,1.5-8.88,2.9,1,6.83,4.24,5,8C291.35,392.6,303.46,399.31,302.85,403.49Z"/><path class="cls-6" d="M423.85,450.49c-.36-4-2-15.16-2.06-15.72-1.35-8.39-2.2-16.72-4.34-24.93-3.36-12.86-7.72-27.36-15.81-39.14-8.79,9.79-11.79,16.79-20.44,26.34a6.52,6.52,0,0,1-6.12,2.25c-2.36,2.66-5.39,4.65-7.77,4.81-1.62.11-2.48-2.67-3.46-.61-2.85,0-4,.79-7,0-.22-1.81-2.94.48-5.19.48-2,0-4-.1-5.93-.16a105.47,105.47,0,0,1-17.88-2.32c-2.5-.55-5.54,5-7.48,6.06-5.82,3.77-11.61,7.79-18.78,2.92-2.29,15.82-5.23,31.54-8.35,47.22-2.94,14.81-13,75.41-18.39,88.8-2,5-14.68,1-16.92-3.71a4.19,4.19,0,0,1-.18-2.46c10.54-49.78,19.85-99.83,28.6-150a44,44,0,0,1,1.44-7.19c1.06-3.69.53-7.62-.36-11.27-3.58-.24-7.4-2.31-6.58-3.42-4.63-6.4-11.16-14.52-13.16-21.59a82.2,82.2,0,0,0-5.4-14.71c-3.53-.05-7.47,1.75-10.09-2.48,1.5-2.92,4.66-3.4,7.52-4.35,5.35-1.76,10.28-3.53,13.58-9.06,3.39-5.68,9.63-6.12,14.39-1.65a6.68,6.68,0,0,0,5.94,1.9,74.57,74.57,0,0,1,7.62.09c.89-4.43,1.6-8.15,2.49-13.32a4.62,4.62,0,0,0-2.72-1.77c-20.14-6.09-38.26-16.09-54.75-29-5.43-4.24-11.6-7.95-14.86-14.52a9.66,9.66,0,0,1-1.48-.53c-4.75,3-9.68,5-15.53,4.6-6.12-.4-11.9-1.73-16.45-5.84-2.51-2.27-4.3-2.49-7.38-1.31-4.66,1.79-9.7,3.8-14.34-.51.64-2.9,3.13-1.72,4.8-2.2,12.45-3.62,18.38-11,14.81-23.74-.69-2.43-.51-5-1.7-7.34-2.46-4.88-3.82-10.46-11.55-9.31-3.13.46-6.73-.94-9.62-2.86-2.61-1.73-5.29-3.63-3.79-7.52.12-10,9.46-18.66,21.81-17.57-1.38-12.31-4.27-24.44-3.53-37,.38-6.48,1.39-12.43,1.48-19.39-2.13-.66-3-2.39-3.69-4.29-1.66-4.39-5.13-7.39-8.44-10.43-7.14-6.58-5.21,5.07-8.43,3.45a23.62,23.62,0,0,1-11.33-12.58c-.35-.92-.76-2-1.69-2.3a3,3,0,0,0-2,.27c-6.36,2.54-11.86,7.43-16.62,12.23a13.23,13.23,0,0,0-3.6,5.22c-.9,3,.3,5.73,1,8.59A32.3,32.3,0,0,1,134.7,139c-.22,1.75-.55,3.68.41,5.16.57.87,1.51,1.44,2.13,2.28a6,6,0,0,1,.72,4.87c-.37,1.65-1.11,3.2-1.57,4.83-1.1,4-.47,9.07,2.26,12.29a21.34,21.34,0,0,1,4.43,7.94c1.27,3.52,2.46,7.08,3.43,10.69,1.87,7,3.09,14.46,1.58,21.64-.81,3.85-2.42,7.49-3.38,11.31-.77,3.07-1.24,6.21-2.1,9.26-.91,3.25-2.63,6-4.15,9,0,1.23-1.79,3.54-2.36,4.66l-2.53,5c-1.7,3.34-3.17,7-5.19,10.17-2.91,4.53-7.64,8.5-13.28,8.28-.67,0-1.38.8-2.08,1.23a6.22,6.22,0,0,1-2.77,4c-6.31,4.12-8.18,4.63-10.4,12.94-2.58,9.71.75,15.44.64,24.94,6.79,3.41,13.39,10.06,21.36,10.06,2,0,5,1,7,1h6c7.39-.14,12.67-1.13,20,0A60.92,60.92,0,0,1,168.92,319c-1.62,2.66-4.5,2.9-6.74,4.16,3.74,7.29,10.95,8.15,17.8,9.24,8.16,1.29,15.14-2.39,21.91-6.35,9.1-5.32,18.36-4.27,25.37,2.9,4,4.06,3.25,6.83-2.34,8.23-1.89.47-15.75,1.7-18.38,6.31a1.86,1.86,0,0,0-.31.63c-.21.47-.2,1.37-.1,1.35a.31.31,0,0,0,0,.1c.48,4.42-1.88,6.35-5.23,8.59-3,2-5.95,4.09-9.11,5.93-2.7,1.59-5,3.19-8.41,3.17-5.12,0-1.48,5.88-4.8,7.69-4.19,2.29-8,5.14-13.21,4.19-2.94-.53-5.46-.21-5.53,4.11,0,3.12-2.52,6.78-4.81,7.28-5.72,1.25-5.47,4.95-5.2,8.94.36,5.45-3,8.22-7.22,10.17-1.25.58-2.72.56-3.28,2.13,1.77,2.42,3.53,4.84,6.89,5.09,4.14,3.55,9.61,4.17,14.31,6.48,1.2.6,3.14.51,2.44,2.37-.39,1-2.06,1.56-3.16,2.32-8.38,1.25-15.13-2.55-21.66-7-2.21-1.52-3.86-4.35-7.25-3-3,4.52-6.73,2.52-10.39,1.1-2.88-1.11-4.53-4.31-7.88-4.61-4.38-.4-6.13,3.72-9.15,5.59-4.08,2.52-7.69,4.63-12.39,1.88a2,2,0,0,0-2.83,1c-3.09.48-6.07.68-8.26-2.26a5.54,5.54,0,0,0-6.56-2.25A3.18,3.18,0,0,1,73.1,416a11.66,11.66,0,0,1-.15,2.52c-9.21,33.27-11.67,66.77-3.89,100.73,6.5,28.37,23,48.79,48.71,61.83,16.34,8.29,34,11.84,52,14.64,14.33,2.23,28.26.94,42.07-2.54a238.5,238.5,0,0,0,26.44-8.61c4.34-1.65,8.65-3.37,13-5.08,3.68-1.47,10-5.81,13.22-1.2a4,4,0,0,0,1.2,1.42,2.54,2.54,0,0,0,.9.23c2.24.27,5.5.52,7.58-.52a5.16,5.16,0,0,0,2.3-3c.44-1.15.65-2.83,1.8-3.49a3.63,3.63,0,0,1,2.54-.24c3.16.64,6.31,1.36,9.51,1.84a121.79,121.79,0,0,0,16.85,1c5.74.07,11.5,0,17.23-.43,1.83-.15,3.66-.35,5.47-.65,6-1,25.39-8.4,30-11,.48-1.57,14.09-6.28,17-9,6.92-6.45,14.62-11.63,21-18.78a112.89,112.89,0,0,0,16.57-24.34c4.62-9.16,6-19,7.5-29.16C423.46,471.79,424.8,461.09,423.85,450.49Z"/><path class="cls-1" d="M308.58,341.25c-2.15-3.5-5-3.9-8.53-2.29-.39.18-.79.34-1.2.49-1.57-2.3-3.36-4.76-2.77-5.1,3.82-2.18,5.32-5.68,3.56-9.19-1.6-3.18-14.91-8-17.79-8.67-2.23-.51-2.76,5.38-5,2-1.87,1.28-1.38,3.47,0,5.78-1.86,2.49-5.28,3.28-7.75,5.11-.27,3.64-3.32,9-2.25,12.11,1.77,5.14,10.48,7.52,9.87,12.93a64.55,64.55,0,0,0-.23,14.23c5.1-3.53,10.58-4.89,16.69-3.06a12,12,0,0,0,4.17.42c3.36-.23,4.19-1.71,3-5-2.06-5.92-2.86-5.37,3-7.65,1.34-.53,2.76-2.62,3.63-3.8C308.85,347.05,310.61,344.54,308.58,341.25Z"/><path class="cls-1" d="M352.51,383.63c-1.07-3.51-1.83-6.92-7.2-7.42-7.3-.69-13.79-4.39-19-9.75-1.58-1.61-3.43-1.8-5.44-1.77-1.95,2.86-4,2.31-6.29.35-1.87-1.59-3-4.12-6.94-5.18,2.1,4.89,0,8.35-2.62,11.62-2.33.75-5-.26-7.13,1.61-1.41,1.24-3.66,2-3.13,4.4.47,2.16,1.43,4.24,4.27,4.23a8.1,8.1,0,0,1,2.43,1.13l-.08,2.13c-2.07,2.93-4.81,6.18-2.65,9.65,1.38,2.24,4.81,1.5,7.76,1.05a3.32,3.32,0,0,1,1.25,1.73c-.63,1.23-.09,2.6-.94,3.66-1.2,1.51-1,2.56-.16,4.3,1.47,2.91,5.24,1.44,6.24,1.12,2.26-.72,4.29-3.2,5.52-5.84l.23,0c1-2.22,2.58-4.32,5.1-3.24,7.72,3.3,15.15,3.11,23.88,3.25,2.84-2.85,4.28-6.4,5.2-10.23C352.72,388.13,353.14,385.73,352.51,383.63Z"/><path class="cls-7" d="M392.94,548.44c5.68-4.43,15.7-12.87,20.24-18.5,13.18-16.33,17.41-34.49,19.75-55.31a128.31,128.31,0,0,0,.88-22q-.33-5.52-.91-11c-1.06-9.88-7.3-35.27-8-37.46-3.42-10.24-7.37-20.23-13.6-29.15-1.7-2.42-3.09-4.72-1.81-7.82A35.47,35.47,0,0,0,411,344.65c-.5-2-1.18-4.33,1.59-5.94,3.87-2.27,3.89-6.21,2.73-9.84-2.17-6.78-6.08-14.43-7.44-21.38-.8-4.11-3.2-10.59-6-14-3-.23-4.76-1.44-6,2-2,3.34.54,10.58,3.16,14.29,3.79,5.38,7.08,11.26,8.62,18.61-3.57-.21-4.37-3.87-7.72-4.32-2.23-.29.11,9.82.31,10.78,1.27,6,3.44,12,3.65,18.18.07,2.09-.73,5,.22,6.84-.67-.7-5.62-8.18-6.83-7.35-2.66,1.83-1.65,4.62-1.54,7a21.34,21.34,0,0,1-5.3,15.48c-3.54,4.13-5.8,9.83-9.37,14.17-4,4.89-6.9,7.69-13.36,8.78l-11.3,1.92a37.45,37.45,0,0,1-6.83.73c-4.5-.06-8.81-1.69-13.32-1.7-4,0-7.89.12-11.77-1.2a5.17,5.17,0,0,0-2.82-.46c-1.32.31-1.91,1.71-2.79,2.57a48.6,48.6,0,0,1-3.94,3.79c-1.82,1.42-4.27,2.07-6.42,2.82a1.62,1.62,0,0,1-.72.13A1.38,1.38,0,0,1,307,406c-2-2.32-.3-4.61.88-6.78a4,4,0,0,0,.63-2c0-1.09-1.1-1.75-2-2.07-2.69.3-6.18,2.08-7.81-.55-1.28-2.05-.78-4.29.36-6.27a25.07,25.07,0,0,1,1.77-2.66,4,4,0,0,0,1.05-2.84.79.79,0,0,0-.1-.34.88.88,0,0,0-.34-.26,5,5,0,0,0-2.4-.8,3.87,3.87,0,0,1-2.46-.47,5.71,5.71,0,0,1-1.85-3.5c-.53-2.36,1.72-3.16,3.13-4.4,2.1-1.87,4.8-.86,7.13-1.61,2.64-3.27,4.72-6.73,2.62-11.62,4,1.06,5.07,3.59,6.94,5.18,2.29,2,4.34,2.51,6.29-.35-.44-3.31-2.88-5.6-4.8-7.84-3.24-3.8-.87-5.43,1-9.19s.71-9-2.28-11.9c-1.1-1.08-1.66-2.08-2.87-3.16-2.18-1.92-5.58-.67-4.69-4.83.51-2.43.74-5.24-.92-7.23a12.39,12.39,0,0,0-5-3.9c-2.39-.85-5.1-.3-7.62-.09a6.68,6.68,0,0,1-5.94-1.9c-4.76-4.47-11-4-14.39,1.65-3.3,5.53-8.23,7.3-13.58,9.06-2.86.95-7.65,1.06-7.52,4.35.2,5,6.56,2.43,10.09,2.48,2.56-.7,3.56-1.7,6.81-2.81,3.07-2.27,7.58-2.94,8.8-7.23.6-2.12,1.11-3.8,3.67-3.47s3.17,2.16,2.89,4.43a1.69,1.69,0,0,0,0,.55,1.2,1.2,0,0,0,.29.53c2,2.36,4.27.52,6.37-.49,1.95-.93,6.93-1.72,8.53,1.46,1.76,3.51.26,7-3.56,9.19-1.06.61-2.38,2-2.27,3.42a3.27,3.27,0,0,0,2.36,2.6c1.33.34,2.63-.83,3.88-1.41,3.51-1.61,6.38-1.21,8.53,2.29,2,3.29.27,5.8-1.57,8.28-.87,1.18-2.29,1.27-3.63,1.8-5.85,2.28-5.05,3.73-3,9.65,1.15,3.32.32,4.8-3,5a12,12,0,0,1-4.17-.42,18.09,18.09,0,0,0-9.18-.38c-1.47.33-3.91.4-5.15,1.28-3.47,2.47-6.1,6.19-8.86,9.39-3,2.95-5.55,6.41-8.28,9.57a28.53,28.53,0,0,1-9.06,6.44,26.13,26.13,0,0,1-4.48,1.28c-1.06.83-8.81,2.07-8.32,3.32a6.74,6.74,0,0,0,4,4,14.72,14.72,0,0,0,6,0c6.29-1.21,27.63-21.2,31-24.59,2-2,3.51-4.17,6.67-4,.41,0,.6,9.21.86,10.19a2.14,2.14,0,0,0,.37.86,2.88,2.88,0,0,0,1.34.67c2.67.92,3.25,3,2.08,5.45-1.26,2.59-1.06,6-.74,8.83a2.52,2.52,0,0,0,.19.82,2.43,2.43,0,0,0,.71.79c3.53,2.91,10.29,3.51,9.41,9.67a2.77,2.77,0,0,0,0,1.4c.62,1.46,4.63,2,6,2.1a13.52,13.52,0,0,0,6.09-1.3c3.79-1.63,6.53-5.27,10.9-5.11,2.24.08,8.94-1.1,11.16-.8,7,.95,24.18.24,31-1,11-2,24.2-13.2,34.79-31.79,8.09,11.78,12.45,24.28,15.81,37.14,2.05,7.84,3.53,15.81,5.07,23.76.11.59,1.49,15.83,1.93,19.6a94.69,94.69,0,0,1,.84,13.15C425,475,423.69,485.72,422,492c-3.14,11.39-11.08,28.6-23,42.32-10,11.49-23.11,23.19-37.11,28.19-5,1.78-24.19,8.8-29,11-10.25,4.69-44.57-.31-44,0-.79-.58-8.93-2.41-11-1-1.84,1.26-1.85,7.12-6,7.29-1.9.08-7.82-2.17-8.83-2.83-3.31-2.18-8.24,1.13-11.39,2.39-4.31,1.72-8.62,3.43-13,5.09a242.12,242.12,0,0,1-26.79,8.74c-13.81,3.48-27.74,4.77-42.07,2.54-18-2.8-35.67-6.35-52-14.64C92,568,75.56,547.61,69.06,519.24a196.48,196.48,0,0,1,0-85A186.32,186.32,0,0,1,76.09,410q2.18-5.93,4.72-11.72c.49-1.12,4.33-9,3.55-9.85,2.5,2.78,4.55,4.94,6.47,7.21,3.09,3.65,6.72,6,11.73,5.22,3.7-.56,6,.82,6.63,4.64,1.91,1.15,3.44,2.58,3.45,5,3.35.3,5,3.5,7.88,4.61,3.66,1.42,7.37,3.42,10.39-1.1,0-.12.06-.22.09-.34a28,28,0,0,1,7.16,3.3c6.53,4.46,13.28,8.26,21.66,7,1.1-.76,2.77-1.3,3.16-2.32.94-2.49-15.41-7.79-17.37-8.73-2.77-1.32-3.89-3.55-6.27-5.21s-4.87-3.6-4.92-7.06c-1.14-2.12-2.5-3.89-5.3-3.39-.29,3.76-2.19,7.05-3.18,10.6-6.57-.54-9.43-5.25-11.79-10.52-3.77-4.84-3.59-11.16-6.07-16.48-3.09,1.29-2.16,4.29-3,6.56-.74,2.05-1,5-3.43,5.52-2.62.56-4.82-1.39-6.35-3.41a33.28,33.28,0,0,1-7.14-18.67c-.45-8.85.56-17.41,4.48-25.57,1.26-2.63,2.54-5.57,2.48-8.6-3-1.44-4,.77-5.22,2-1.54,1.59-2.58,3.6-4.78,4.62-1.32.61-2.52,1.45-3.91.62s-1.44-2.46-1.17-3.8a37.69,37.69,0,0,1,3.52-10.35,39.33,39.33,0,0,0,2.79-5.23c.69-2,.85-4.24-2.49-3.57-1.3.26-2.22.34-2.18-1.33.09-4.33,5.48-7.62,9.42-5.62,8.25,4.2,16.38,8.49,25.62,10.4,4.83,1,9.78.9,14.69,1l11.3.16c3.34.05,6.87.47,10.09-.62,4.94-1.68,13-1,16.1-6-3.38.06-6.82-.35-10.18-.15-3.76.23-7.44.34-11.21.33-5.66,0-11.32.52-17,.12A51.1,51.1,0,0,1,115,315.68c-4.86-2-9.77-3.89-14.47-6.25-2.77-.77-5.35-1.85-7.1-4.32C88.59,304,85.72,300,82,297.36c-6-4.21,4.52-8.49,7.14-10.79a96,96,0,0,1,9.39-7.11c3.9-2.67,7.81-5.33,11.77-7.91a6.22,6.22,0,0,0,2.77-4c-4.88-1.62-11.11,3.15-14.74,5.72s-7.81,4.38-11.73,6.55-7.19,5-10.89,7.46c-3.7-4.58-4.76-9.81-4.4-15.56.26-4.21.06-8.46.06-12.69l0,0c-5.67,4.07-6.52,10.41-7.56,18-4.22-5.42-3.1-10.59-2.13-14.82,1-4.58,7.29-5.25,11-5.92,5.74-1,11.39-2.67,17.12-3.8a22.79,22.79,0,0,0,2.28-.53c1.45-.45,2.8-1.19,4.25-1.67,3.8-1.26,9.8.53,11.5,4.41.7,1.59,3,.72,4.55,1,.94-.2,1.24-4.42,1.81-5,4.69-5.06-4.47-28.26-.12-35-7.28-2.45-13.71-4.87-16.25-12.65-1-3.15-.64-6.14-.87-9.19-.14-2,.19-4-.06-6-1.07-8.46,1.33-15.54,7.87-21.14,1.54-1.32,3.28-3.07,2.17-5.09-3.42-6.24-3.07-13.5-6.17-20-2.93-6.11-4.41-13-7.12-19.38-.77-1.8-1.11-3.82-2.09-5.48-2.06-3.5-4.75-4-7.39-.71-1.84,2.25-3,3.82-6.07,2.18-2.19-1.18-3.4-2.38-3.42-5.14,0-3.33,1.62-5.31,4-7,1.5-1.07,2.49.26,3.71.91,5.08,2.72,5.62,2.45,6-2.86a41.42,41.42,0,0,1,4.82-16.81,14.21,14.21,0,0,1,3.56-4.65c2.66-2.1,4.25-1.53,5.21,2,.36,1.33.21,2.78,1.29,3.91A3.82,3.82,0,0,0,107,89.8c1.37-.3,1.64-1.35,1.77-2.51.61-5.11,2.72-9.68,5.07-14.17a24.45,24.45,0,0,1,10.48-10.51c5.26-2.77,6.87-2.29,8.24,3.5.57,2.44,1.42,3.46,3.71,3.56,2-3,4-6.08,8.36-5.3,3.56-6.36,9.24-7.5,15.65-6.58,1.77,1.36.72,2.56.23,3.82-1.37,3.53.52,5.23,3.56,4.3,3.56-1.09,4.95.45,6,3.16.9,2.33,2.4,3.3,4.88,3.94,13.16,3.37,19.7,9.41,24.87,22.48,1.09-.15.1-2,.7-3.19,3-5.85,6-11.73,9-17.6-.15-.83.2-.09,4.3-5.21s6.36-5.13,9-11c3.45-2.23,6.74-4.58,9-8,1.84-1.61.41-2.19,2-4,2.52.06,5-2,3-4.48-5.16-4.1-11.25-5.27-17.55-5a28.59,28.59,0,0,1-14.67-3c-7.37-3.67-15.54-4.53-22.76.21-5.28,3.46-11.51,6.48-13.43,13.56-.56,2-1.9,3.76-4.38,2.68-8.63-3.76-15.36.78-22.09,5-2.59,1.63-4.57,2.62-7.34.11-3.52-3.19-7.78-2.78-12-1.26C115.3,57,110.19,62.05,106.9,69c-1.32,2.8-2.55,4.46-6.25,3.87-5.37-.86-9.32,2.53-12.08,6.55a31,31,0,0,0-5.5,13.21c-.24,1.7-.33,3.62-2.38,4.08-9.28,2.12-12.85,8.45-12.93,17.37,0,1.95-.58,3.14-2.72,3.52-9.35,1.66-18.11,6.58-28.05,5.08a14.88,14.88,0,0,0-3.4,0c-9,.69-15.45,5-18.67,13.65-1.67,4.52-3.55,9-5,13.54C6.28,161.15,2,172.26.32,184.12c-1.44,10.33,2,16.33,11.64,19.76,2.66.94,5.43,1.56,8.13,2.42a40,40,0,0,1,23.22,18.8c1.25,2.17,1.74,4.67,3.58,6.65,2,2.21,5.38.78,7.58,2.62-3.69,7.74-6.51,15-.18,22.26L37.2,265.1c5.73,2.5,10.34-1.62,15.54-1.23,0,2.91-.11,5.15,0,7.37.47,7.6,2.69,10.12,10.32,11.92,4.24,1,7.19,10.24,4.15,13.46-3.34,3.54-6.8,6.92-9,11.44,3.17,1.19,4.55-.87,6.23-2.34,8.4-7.36,8.4-7.35,15.92,1a6.39,6.39,0,0,1,.5.71c-1.76,2.49-3.66,4.9-5.25,7.5-1.33,2.17-3,4.94-1.38,7.14,3.23,4.47,1.29,8.19-.17,12.51-2,6.07-3.08,13.16,3.15,17,4.84,3,4.77,6.16,4,10.46-.36,1.94-1.12,4-.86,5.85,1.46,10.27-3.32,20-8.12,28.72A113.61,113.61,0,0,0,64.59,413c-2,5.7-3,11.67-4.17,17.56a252.92,252.92,0,0,0-5,39.45,216.34,216.34,0,0,0,2.4,43.74,102,102,0,0,0,26.76,54.85C93.37,578,104,584.7,115,590.93c-.61,1.63-1.91,2.26-3,3.09a24.49,24.49,0,0,0-8.74,11.26c-3,7.88-.57,12.37,7.78,13.7,1.77.28,3.75.25,3.75,2.42,0,3.48,3.6,8.34,6.92,9.41a7.43,7.43,0,0,0,2.15.34c4.51.12,8.73-2.25,12.87-3.71,3.46-1.23,6.9-2.63,9.71-5.05,1-.85,2,0,3,.71,8.86,6.65,13.41,6.64,22.51.34a67.38,67.38,0,0,0,14.24-13.34c2.55-3.17,5.35-4.38,9.3-4.91A162.39,162.39,0,0,0,250.76,587c5-2.67,9.43-4.65,14.94-2.72,6.28.87,13,3.36,16.93-4.53.76-1.53,14.05-.53,15.22-.3,5,1,30.67,1.82,33,2s11.68,1.45,15,2c6,1,6.87,1.54,12,4,3.79,1.82,7.15,4,11.15,5.19a29.09,29.09,0,0,0,5.92,1.52c2.44.26,4.89.46,7.34.62a18.94,18.94,0,0,0,4.76-.12,11.33,11.33,0,0,0,6.82-4.73c.61-1.05.6-1.52,1.77-1.22a16.65,16.65,0,0,1,2.22,1c1.39.61,2.75,1.27,4.11,1.95a13,13,0,0,0,2.62,1.07,12.74,12.74,0,0,0,5.42-.19,5.54,5.54,0,0,0,3.85-2.42c1.82-2.4,3.67-6.29,3-9.62-.7-3.62-1.66-5-3.92-7.93l-.06-.08c-2.12-2.68-5.87-3.31-8-6s-2-5-5-8c-3.5-3.5-6.84-5.43-11.9-5.94C385.68,552.33,392.18,549,392.94,548.44ZM49.5,220.38c.37-8.92-4.64-13.13-10.55-17.48-9.1-.2-17.49-3.33-25.81-6.48-5.53-2.09-6.48-5.31-5.66-11.25a110.08,110.08,0,0,1,5.92-23.34,109.17,109.17,0,0,1,13.7-29.1c15.39-7.88,34.3-1.59,40.74,13.56-3.34.36-5.31-1-7.13-4.07-2-3.42-4.67-7.05-9.74-6.27-.63,2.11,1.13,3.53,1.54,5.34,3.79,6.26,7,12.64,3.58,20.19a2.34,2.34,0,0,0-.17,1.65c2.57,6.07-.53,11.55-1.71,17.23-.42,5.28,1.26,10.7-1.08,15.84-1.13,2.49,1.06,3.47,2.18,5,3.25,4.29,6.21,8.68,5.8,14.46a4.21,4.21,0,0,0,1.18,3.79c3.43,3.24,3.36,3.31-.92,6.16C54.66,230,49.17,228.16,49.5,220.38Zm29.58,19.79c3.33-3.11,5.79-1.82,7.68,1.73,4.18.66,7.58-1.37,11.19-3,1.85-.81,4.69-1.5,5.54,1.62s-.53,4.25-3.38,4.77c-10.08,1.86-22.48,1.78-31.7,6.54-1,.54-2.84.77-3.49-1-.57-1.55,1.12-2.38,1.44-3.68C65.91,246,65,245,63.87,245.64a50.52,50.52,0,0,0-5.32,4.29c-2.24-4.51.13-7.12,3.26-9.23,1.84-1.25,4-1.95,6-3.09,6.41-3.83,6.46-3.82,6.95,4.37m87.7,377.57c-5.25,2-6.94.94-7.65-4.87,0-.28,0-.57,0-.85-.21-1.58.6-3.6-1.39-4.49s-2.82.93-4.16,1.91c-5.91,4.31-11.78,8.78-19.24,10.2-.81.16-1.56.73-2.38.85-1.66.24-3.6.71-4.68-.94-.79-1.2-.12-2.67.44-4,1.93-4.78,5.13-8.69,9.36-12.86-4.87-1.13-7.72-.73-9.92,2.81a11,11,0,0,1-7.69,4.88c-1.36.23-2.93.42-4-.84a3.49,3.49,0,0,1-.23-4,31.71,31.71,0,0,1,12.61-11.78c1.71-.85,3.22.16,4.85.65,16.2,4.84,32.47,9.35,49.69,9.4C174.79,611.15,167.55,617.58,162.44,619.55Zm225.32-61.9c3.87,0,10.75,4.85,12.09,8.84.36,1.06-7.43-2.75-7.68-.35-.15,1.52,1.28,1.72,2.47,1.82,2.86.25,5.42,1.81,8,2.86a22.32,22.32,0,0,1,6.8,3.72c2.75,2.44,5.62,5.36,4.22,9.32-.87,2.45-3.72,3.08-6,3.3a26.21,26.21,0,0,1-4.84.33c-.19,0-2.82-.92-3-1a35.53,35.53,0,0,1-3-2,23.54,23.54,0,0,0-2.9-3.58,50.2,50.2,0,0,0-5.79-5.5,2.57,2.57,0,0,0-2.24-.47c-1.15.59-1.15,1.76-.45,2.83a7.72,7.72,0,0,0,1,1.31,7.78,7.78,0,0,1,1.67,9.31c-1.68,3.29-8.13,2.05-10.82,1.56l-17.64-6c-3.5-1.31-8.23-4.09-12-4.14-2.76,0-5.52,0-8.27-.15a1.43,1.43,0,0,1-1.49-1.56,1.46,1.46,0,0,1,1.51-1.53c2.2-.12,4.41-.09,6.61-.12,5-.13,8.71-3.24,12.87-5.38a64.83,64.83,0,0,0,8.39-5.05C375,560.53,379.51,557.58,387.76,557.65Z"/><ellipse class="cls-6" cx="342.35" cy="154.49" rx="153.5" ry="148"/><path class="cls-8" d="M355.18,256.74c.7-4.75,1-9.6,1.67-14.25-14.66-3-28.17-7.47-39-18a42.63,42.63,0,0,0-7-5c-2.45,5-6.75,13.35-9.7,18.14-7.91,12.84-20,18-34.28,19.44-1.67.17-3.35.27-5,.39,3.92,8.27,10.85,14,17.71,19.41,4.68,3.68,10.53,8.49,16.3,10.62,9,3.34,28,9.71,38,10,3.44-3.14,3.77-5.28,6-9,3.5-5.84,8-11,11.14-17.16A46.81,46.81,0,0,0,355.18,256.74Z"/><path class="cls-8" d="M205.76,121a13.68,13.68,0,0,0-6.91-2.49c-4.15,7.36-2.13,15.9-2.91,24-1.31,13.5.2,24.62.91,38,.18,3.25,3.52,9.26,6,12.26,10,3.34,19.24.17,28.43-3.37.11-4.76.27-9.52.33-14.28.12-8.08,2.33-15.65,4.29-23.61,1.32-5.36,2.9-11.36,3-17C226.19,135,214.75,128.78,205.76,121Z"/><path class="cls-8" d="M334.17,170.7l.38-.26c4.14-3,3.74-5.26,1.77-9.69a60.37,60.37,0,0,1-2.31-7.16c-3-9.74-2-19.4.58-29-3.63.57-14.64,6.77-17.74,8.93A37.07,37.07,0,0,0,301.57,156a76.79,76.79,0,0,0-1.64,14.82c-.07,2.24-1.13,5.81,2.08,5.89a110,110,0,0,0,16.44-.45A35.54,35.54,0,0,0,334.17,170.7Z"/><path class="cls-9" d="M295.85,167.49a67.36,67.36,0,0,0,1-10A58.42,58.42,0,0,1,250.6,155a43.06,43.06,0,0,1-8.35-5.76,66.17,66.17,0,0,0-5.4,22.27c-.69,9.14-1.2,18.74,0,28,1.59,12.24,7.91,24,11.89,35.55,4.29-.25,8.13,1.89,12.3,2.39,8.81,1.06,18.81-1.94,29.66-10.58,5.28-4.21,11.5-11.23,12.15-18.36.72-3.82-2.44-6.52-3-10C297.9,186.28,292.62,179.4,295.85,167.49Z"/><path class="cls-9" d="M279.85,23.49c-9.38,2.41-18.82,9.11-26,15-11,9-21.79,17.12-30,29-3.71,5.39-10.13,9.44-10,17,1.36,17.36,15.9,33.58,32,40,1.47-.93,6.11-6.53,7-8,7.2-11.83,10.63-17.95,22-26,8.2-5.8,14.8-13.12,24.36-16.49,2.25-.79,4.92-1.57,5.92-4.34C287.57,60.13,281.73,42,279.85,23.49Z"/><path class="cls-9" d="M386.5,150.68c-4.33-12.87-12.64-24.43-25.65-28.19-6.33,3.08-12,11.74-13.5,18.36-1.21,5.14-2.21,9.72-1.64,15.48a41,41,0,0,0,5.14,16.16c1.95,1.1,2,2.07,4,3,13,6,27-.52,30.35-14.19C386.06,157.82,387.77,154.45,386.5,150.68Z"/><path class="cls-10" d="M483.85,182.49c-10.31-6.87-16-8-22-10-6.48-2.16-13.53-.45-20.26-.11,1.71,8.52-2.19,15.79-5.55,23-3.77,8.08-8.35,15.76-14.82,22.11-.54.53-.6,1.54-.89,2.33,3.52,3.66,7.57,3.54,12.52,5.66,7,3,10.84,7.09,15,16,1,2,5.1,7.91,6,10,2.58-.23,10.68-9.29,12-11,10.32-13.38,20.16-31.49,25-48C489.19,191.4,489.85,186.49,483.85,182.49Z"/><path class="cls-10" d="M258.85,263.49c-2,.53-5.76,6.32-6,8,4.25,4.39,11,6.32,17.62,6.85C267,273.16,264.61,266.21,258.85,263.49Z"/><path class="cls-10" d="M384.85,167.49a96.17,96.17,0,0,1-15,13c.79,3.83,3,9.47,3.31,13.34,1.31,16.86-5.06,30.57-17.63,41.6a12.87,12.87,0,0,0-1.87,2.76c7.44,3.07,14.87,1.63,22.48.51A68.25,68.25,0,0,0,416,218.45c-.22-16.23-6.06-30.23-17.05-42C396.08,173.37,389.15,168.46,384.85,167.49Z"/><path class="cls-11" d="M415.62,96.85c-20.23-18-43.56-28.66-71.3-27.46-2.51,4.37-6.59,8.17-7.48,13.12-2,11,0,15,3.64,26.88,1.08,3.53,5,8.2,5.37,12.1,11.26.52,19.48,2,29,8a44.4,44.4,0,0,0,5,3c3.41-11,10.34-21.91,22.23-23.45,6.59-.86,13.45-1.3,20,1.07,1.26.45,2.78.16,4.17.21C425.23,103.89,419.76,100.54,415.62,96.85Z"/><path class="cls-11" d="M469.54,77.91a154.36,154.36,0,0,0-29.36-32.67c-7.8-6.68-15.4-14.12-25.76-17.15-7.57,6.4-11.44,9.35-16.57,18.4a129.46,129.46,0,0,0-9,20c-.32,1-2,3.88-2,5,15.58,6,24,14,35,26,1.46,1.59,7.1,7.28,8,9,1.31-.72,4.92-8,6-9,10-9,14-11.82,25-14,2.5-.49,7.11-2.34,9.65-2.4A11.44,11.44,0,0,0,469.54,77.91Z"/><path class="cls-12" d="M382.79,15c-10-2.51-19.91-5.28-30.35-5.3-14.83,0-35.15-1.7-49.59,2.83.16,1.7,0,4,0,8,0,7.6,0,11.57.24,19,.37,10.67,6.32,22.17,12.76,30a42.31,42.31,0,0,0,7-1c9-2.82,15.8-5.64,25.11-6,9.94-.42,18.17,6.15,27.89,7-.33-1.36-2.8-13.16-2-18,2-12,1.1-13.24,9-23.1,2.43-3,8.4-7.15,10-10.9C391.18,14.48,385.71,15.7,382.79,15Z"/><path class="cls-12" d="M319.41,80.28a55.75,55.75,0,0,0,1.44-8.79c-9.92.27-19.51,6.16-27.9,11.31-3.06,1.88-6.74,3-10.1,4.69-10.56,5.37-16.6,16.33-24.51,24.74a9.93,9.93,0,0,0-3,6.82c9.53,15.44,15.53,18.44,27.58,23.87,5.32,2.39,11.43,2.27,17.15,3.41,7.76-2.82,13.88-11.54,22.79-17.83,2.87-2,7-1.6,9.61-4,3.82-3.51-3.46-8.46-5.93-10.81C317.37,105,316.46,91.94,319.41,80.28Z"/><path class="cls-13" d="M487.22,111.89c-.91-2.54-2.58-4.29-3.89-6.4-3.48-2-6.48-2-12.48-2-7,0-12.4-.24-21.07,4.83-4.61,2.7-8.56,6.94-11.93,10.17,2.59,8.43,5.13,12,5,21,.78,1.58,2.2,7.32,2,9,1.26,4-1.4,9.23,1,13,3.31-.65,9.89-1.18,13.23-1.49,8-.74,15.76.2,22.93,4.38,3.15,1.84,6.65,3.08,10,4.6.47-.68,1.3-1.33,1.36-2C494.67,148.22,493.64,129.78,487.22,111.89Z"/><path class="cls-13" d="M442.85,151.49c-.08-1.05-1.91-7-2-8-2.25-5.56,1.26-7.1-3-12-2.3.1-8.4-3.28-12-4-7.71-1.55-14.71-4.12-22-3-6,1-15.65,6.12-18.58,15.21,2.28,6.55,4.65,13.09,3.3,20.24,17.69,2.92,46.27,35.51,46.27,35.51.41-.73,1.6-6.27,2-7,0-.44,2.84-6.59,3-7,.32-7,.25-7.31,2-14,.09-1.08.91-5.92,1-7C442,156.4,442.12,155.58,442.85,151.49Z"/><path class="cls-14" d="M425.84,238c-5-3.56-10.55-6.15-16.08-8.74-12.9,6.73-26.18,12.17-41,12.54.25,5,4.76,8.22,6.17,12.53,3.94,12.12,2.94,19.12-1.68,31.16a100.67,100.67,0,0,0-3.38,12c3.79,1.23,17.41-2.56,21-3,19.26-2.35,34.71-16.55,50-28,.18-3-2-9-4-13C433.85,247.49,432.14,242.51,425.84,238Z"/><path class="cls-14" d="M229.89,207c-3.83,4.67-8.79,6.25-14.62,5.86-1.63-.11-6.51-.26-7.42,1.59,2.06,8,7.3,16.78,11,24,4.22,2,9,2,11.47,6.31l.05.29a44.44,44.44,0,0,0,3.74,8.44c4.74,5,6.06,8.3,10.74,10,1.54-2.73,6.73-8.48,10-9-9.6-15.85-16.66-31.76-20-50C233.87,204.94,230.51,206.28,229.89,207Z"/><path class="cls-14" d="M361.37,181.49c-4.43-2-6.82-5.85-10.52-9a8.92,8.92,0,0,0-5.93,3.22c-8.56,13.76-21.19,19.29-37,18.4-1.69-.09-3.39.06-5.09.1.14,2.9,1.43,5.4,2.64,7.95,4.82,10.14,12.75,17.58,21.32,24.44,7,.82,13.22-1.69,19.29-4.49,7.37-3.4,11-10,13.56-17.27C362.32,197.22,361.05,189.29,361.37,181.49Z"/><path class="cls-15" d="M501.73,137.76c-4.29-35.41-25.06-69.13-50.91-92.51-27.16-24.57-57.77-41.16-95-44.62a141.8,141.8,0,0,0-38,1.52,150.41,150.41,0,0,0-54,20.76,174,174,0,0,0-20.56,15.71c-3.82,3.3-8.2,6-11.88,9.4a143.69,143.69,0,0,0-27.45,35c-4,7.23-8.09,14.71-10.37,22.71-2,7.09-3.31,14.52-4.62,21.77-1.09,8-1.1,12.91-1.48,19.39-.74,12.56,2.15,24.69,3.53,37,.86,6.57,1.86,10.57,4.41,19.89,3.18,6.89,6.6,13.67,9.45,20.69,3.68,9.08,4,12,16.7,11.84-1.84-.31-5.84-10.39-6.73-12.17q-3.6-7.17-6.53-14.65a178.43,178.43,0,0,1-9-30.78c-2.81-14.35-5-28.51-2.8-43A138.62,138.62,0,0,1,205.14,104c4.09-10.1,10.27-18.31,16-27.5a129.45,129.45,0,0,1,25.61-29.76c12.71-10.87,25.32-18.43,40.39-25.58,21.19-10,42.24-11.56,65.3-11.51,15,0,28,4.89,41.93,9.78,16.7,5.87,32.45,16.36,45.81,27.8,22.16,18.95,39.51,44.69,47.6,73,9,31.57,4.61,62-9.5,91.3-10.36,21.48-23.68,42-42.13,57.11-26.77,21.91-62.95,30.69-97.39,27.38-22.2-2.13-44.38-9.28-61.65-23.39C255.22,254.79,243,227,239.39,199c-3-23.45-.33-47.95,10-69.24a107.77,107.77,0,0,1,45.31-47.22c27.15-14.81,61-17.46,89.54-5.48s50.68,38.87,55.37,69.45-9.06,63.63-35,80.55c-16,10.47-36.32,14.63-55,10.21a66.5,66.5,0,0,1-41.47-30.61c-11.08-18.86-11.6-44.15.86-62.12s38.22-26.24,57.91-16.74c7,3.38,13.13,8.87,16.38,15.93s3.3,15.72-.68,22.39c-6.5,10.88-23.72,13.11-32.77,4.25,1.63,7.23,9.73,11.56,17.14,11.2,14.62-.7,25.45-16.81,23.19-31.27s-14.94-25.82-29.07-29.62c-21.09-5.67-45,4.27-57.18,22.38s-12.82,42.92-3,62.43c10.4,20.66,31.79,35.11,54.73,38.07s46.85-5.33,63.78-21.08c23.16-21.54,32.42-56.39,24.42-87s-32.35-56-62.08-66.82-64-7.12-91.61,8.35a118,118,0,0,0-56.26,73.52c-10.94,44.12,5.63,91.74,34.49,126.86-14.64-6.5-29.26-17.86-38.58-30.89-8.77,8.12,2.69,14.19,7.75,19,38.7,36.59,96.94,51.13,148.29,37,58.33-16,102.17-67,113.85-125.66q1.54-7.8,2.32-15.72A107.19,107.19,0,0,0,501.73,137.76Zm-58.56,21.37c0,.26,0,.52,0,.77C443.15,159.65,443.17,159.39,443.17,159.13Z"/><path class="cls-9" d="M227.33,245.62c0-.15-.07-.29-.1-.44a7.69,7.69,0,0,0-2.17-3.76,7.78,7.78,0,0,0-2.75-1.64c-1.09-.38-2.33-1-3.46-1.29-1.52-.36-3,.27-4.55.2l-4.86-.21c-.78,2.25,2.89,4.25.91,6.07s-3.83-1.61-6.08-1.26a10.65,10.65,0,0,0-4.54,4.86c2.16,2.56,3.12,6.34,7.12,8.34,8,2,10.86.63,16-1.31a7,7,0,0,0,4.85-6.29A12.47,12.47,0,0,0,227.33,245.62Z"/><path class="cls-16" d="M230.31,244.12a12.61,12.61,0,0,0-1.35-2.33,17.9,17.9,0,0,0-6.11-5.3,9.44,9.44,0,0,0-5-1c-9,0-10.44-4.68-13-11-2.85-7-6.27-13.81-9.45-20.7-7,.9-13.89,1-20.5-1.87a9.53,9.53,0,0,0-5.72-.45c-1.5,3.89,1.18,5.79,3.79,7.52,2.89,1.92,6.49,3.32,9.62,2.86,7.73-1.15,9.09,4.43,11.55,9.31,1.19,2.35,1,4.91,1.7,7.34,3.57,12.76-2.36,20.12-14.81,23.74-1.67.48-4.16-.7-4.8,2.2,4.64,4.31,9.68,2.3,14.34.51,3.08-1.18,4.87-1,7.38,1.31,4.55,4.11,10.33,5.44,16.45,5.84,5.85.38,10.78-1.63,15.53-4.6.91-.57,1.43-2.74,1.64-3.71a13.24,13.24,0,0,0,.14-4.12A18.39,18.39,0,0,0,230.31,244.12Zm-7.47,11.06c-5.13,1.94-10,2.31-15.32-.12-3.67-1.57-5.63-4.35-7.79-6.91a10.65,10.65,0,0,1,4.54-4.86c2.25-.35,4.16,3,6.08,1.26s-1.69-3.82-.91-6.07l8.44.37a29.4,29.4,0,0,1,6.34,2.61,8.86,8.86,0,0,1,3.07,4.17C228.49,250.07,227.06,253.58,222.84,255.18Z"/><path class="cls-16" d="M126.58,192c-.46,9.11-5.08,17.84-13.43,17.66C100.75,209.34,98.8,192,102,182.86,108.73,163.45,127.43,174.75,126.58,192Z"/><path class="cls-17" d="M114.11,177.17c2.43.62,4.14,1.66,3.78,4.06-.24,1.62-.91,3.52-2.94,3.68-2.34.18-3.71-1.42-3.9-3.57S112.33,177.82,114.11,177.17Z"/></svg>