<svg id="Layer_1" data-name="Layer 1" xmlns="http://www.w3.org/2000/svg" viewBox="0 0 569.94 395.37"><defs><style>.cls-1{fill:#f7c9cd;}.cls-2{fill:#f0aeb3;}.cls-3{fill:#e1c3b7;}.cls-4{fill:#ecbebb;}.cls-5{fill:#f5cdcd;}.cls-6{fill:#fef9fa;}.cls-7{fill:#e69ca0;}.cls-8{fill:#f4cacb;}.cls-9{fill:#eec8c7;}.cls-10{fill:#3f392d;}.cls-11{fill:#524d49;}.cls-12{fill:#696562;}.cls-13{fill:#7e7568;}.cls-14{fill:#c8b9b0;}.cls-15{fill:#93887f;}.cls-16{fill:#ead13f;}.cls-17{fill:#d4cecb;}.cls-18{fill:#dddad7;}</style></defs><title>fulo</title><g id="_0FE1Bd.tif" data-name="0FE1Bd.tif"><path class="cls-1" d="M308,87.23c-1.4,2.61-2.2,6-4.34,7.67-4.54,3.57-5.71,8-5.83,13.3,0,.29-1.28.56-2,.83v-4.75c-13.17,7.34-27.06,3.91-41,5-.14-5.36-2-10.39,4.59-12.33,5.4-3.06,11.61-4.76,16-9.61.53-.58,2.26-.08,3.43-.08,2.59.4,4.46,2.26,7.34,2.68C293.9,91,300.56,86,308,87.23Z"/><path class="cls-2" d="M308,87.23C300.56,86,293.9,91,286.24,89.91c-2.88-.42-4.75-2.28-7.34-2.68,5.23-8.6,8.88-17.58,7.32-28a40.72,40.72,0,0,1,0-5.95c1.36-5.37,5.57-5,9.71-4.85.95,3.83,3.52,5.24,7.29,4.85,2,7.33-5.38,3.3-7.29,5.94v2.37c0,2.75.47,5.6-.09,8.24-1.49,7.06,2.7,11.06,7.38,14.94h7.28A2.06,2.06,0,0,1,308,87.23Z"/><path class="cls-3" d="M278.9,55.73c.4,0,1.11-.1,1.14,0,2.91,9.4,2.13,18-5.59,25.05-4.41,4-8,9.11-14.16,10.85-.18,0-.64-.48-.78-.82a3.25,3.25,0,0,1,0-1.17c0-2-.45-4,1.69-5.33,4.17-2.51,6.74-6,8.55-10.71C272.13,67.4,275.78,61.67,278.9,55.73Z"/><path class="cls-4" d="M73.64,352.94c-4.87,5.45-6.88,11.66-12.16,15.25-1.1.74-3.14.1-5.91.1,0-4.27,0-8.56-.07-12.84a2.19,2.19,0,0,0-1.38-1.61c-1.11-.23-2.85-.41-3.12.94-.94,4.74-3.77,8.18-6.83,11.71-3.56,4.11-7.41,5.57-13.24,3.26,1.48-3.48,2.52-6.81,4.94-9.91,1.81-2.33-.25-5.23-3.86-6-1.57-.34-3.17-.06-3.19-2.44,0-1.51.69-2.41,1.92-2.4,2.93,0,4-2.43,5.6-4a4,4,0,0,1,4.44-.81C50.87,348.76,62.31,348.11,73.64,352.94Z"/><path class="cls-5" d="M448.83,322.26c5.24,1.85,6.82-4,10.86-5.39,4.26-1.43,6.92-6.85,11.76-8.8,2.25-.91,1.65-3.28,1.65-5.2,3.66,1.09,6.07,4.11,7.81,6.89,2.72,4.36,4.67,8.64,10.94,8.41,1.07,0,3.77,2.18,3,4.45-1.08,3.22-3.5,5.06-7.19,4.48-1-4.52-4.14-2-6.54-2-1,2.34,3.54,3.26,1.47,5.84-.67.34-1.33,1-2,.95-5.8,0-12.12,1.63-16.17-4.72-.27-.43-2.09-.27-3.18.76-5.87,5.57-6.32,5.51-10-.68C450.33,325.66,449.64,323.93,448.83,322.26Z"/><path class="cls-6" d="M553.21,126c-.4,0-1.11.13-1.17,0-9.46-21.21-25.28-37.72-40.36-54.8C500.89,59,487.6,49.59,474.84,39.77c-7.57-5.82-16-11.33-26-13.12-2.87-2.29-6.2-2.71-9.71-2.42.27-1.53-.67-2.12-1.93-2.42-6-1.45-12.25-1.84-18.34-2.73-15-2.18-14.94-2.81-29.56.3-2.29.49-6-2.32-5.13-4.23s2.52-3,.31-5.62c-5,.74-10.4-.62-16.3.94,3.56,2.93,4.12,5.66,1.86,8.91-.78,0-1.86.34-2.33-.05-12.59-10.55-26.8-7.5-40.85-4.63-2.34.47-5.09,2.51-3.92,6.56,6,1.36,11.31,5.77,18.09,5.36,3.34-.2,3.92,2.36,8.16,5.21-14.26-1-24.86.45-33.82,8.06,3,3.78,6.79,4.71,10.3,6.09,2,.8,2.13,2.25,1.64,3.74-.42,1.27-2.39,1.71-3,1.08-3.18-3.27-8.31-1.59-11.41-4.76-3.09.41-6.32-.8-9.93.88,8,4.56,16.22,8,22,15-2.37,1.87-5,.33-7.08,1.19-2.27.93-7.68,1-2.86,5.83.46.47.15,2.74-.43,3.08-5.31,3.07-4,8.13-4.15,12.78A2.06,2.06,0,0,1,308,87.23c-1.4,2.61-2.2,6-4.34,7.67-4.54,3.57-5.71,8-5.83,13.3,0,.29-1.28.56-2,.83-6.29,4.67-13.13,8.09-21.18,7.19-5.86-.66-9.72,1.63-12.5,6.45,3.8,1.57,7.33,3.85,12.09,3.65-2.32,4.37-6.44,4.9-9.48,6.89a53.39,53.39,0,0,0-16.13,16.47c-2.95,4.61.56,5.44,2,7.44,6.26-1.82,10.18-10.38,19.47-5.36-6.67,9.93-18.11,17.79-15.28,31.35,9.27,5,13.17-7.3,22-5.78-1.5,4.4-.28,8.23-2,12.75-2.48,6.38-2.47,14.3,6,18.29,3.68-1.75,7.91-2.75,10.55-6.41,1.2-1.66,3-.53,4.48-.85,0,3.51.47,7.1-.09,10.52-1.28,7.8,2.13,13.48,7.38,18.55,1.5-.38,2.12.88,2.85,1.71s1,.64,1.77-.18c1.64-1.67,3.38-3.2,2.55-6.9,6.46,6.17,5,16.74,15.47,18.53-7.3,3.63-12.71.62-14.59-4.44-1.93-5.24-5-3.4-8.05-3.87-3.09-.13-6.74,1.09-8.58-2.57-2.68-5.32-6-10.4-6.62-16.82-7.27,0-14.44,1.11-19.47-6.3-1.8-2.66-1.15-5.17-2.24-7.6-2.8-6.26-2.75-6.35-9.18-4.31-5.63,1.79-12.21-2.1-12-7.74s-1.87-11.76,2.11-17.25c.75-1,1.68-4.88-2.39-5.28-9.11-.89-8.91-8-9.57-14.51-3.9,1-3.21,5.59-6.16,7.78-2.39,1.77-2.39,6.74-.19,8.51,5.07,4.1,4.94,9.3,4.08,14.2C225.27,227,257.77,304.41,262.27,307c8.78,2.7,5.23-1.58,13.73,1.81,2.74,1.09,5.17,1,7.75,1.33,5,4.59,12,4.12,17.65,7.23,3.64,2,8.61,1,11.49,4.89,2,0,5.11-.82,5.83.14,2.69,3.59,7.84.81,10.16,4.49l7.12-7.11c2.75,3.27-.5,4.52-.91,6.49,1.27,1.59,3,.53,4.5.83,2.07-3.13,2.47-7.3,6.16-9.46l4.88,4.59c3.24-3.48,5.85-7.16,5.95-12.09.52-2.52,2.35-3.84,4.76-5,4.48.3,2,8,7.38,7.43,1.52-3.65,5.28-3.52,8.18-4.85,8.27-3.79,17.14-1.49,25.63-2.62,6.23-.83,11.41,2.28,17.12,3.1,3.51.51,7.76,2.44,11.53,4,6.37,2.69,11.11,7.92,17.65,10,5.24,1.85,6.82-4,10.86-5.39,4.26-1.43,6.92-6.85,11.76-8.8,2.25-.91,1.65-3.28,1.65-5.2V298c-1.93-3.79-2-8.66-6.83-4-.88.85-9.54,3.45-8.36,0,1.36-4,7.36-4,9.5-8.47,1-2,1.13-4.49,3.38-5.93.87-.55,1.2-1.06,1.77-.3,1.58,1.92-1,6.84,1.71,8.69,3,0,7-4.32,8-7,1.74-4.53,3.53-8.38,5-13,1.85-5.78,7,0,10,1,7.85-4.05,8.79-22.1,12-22,5.46-5.06,5-6.77,3-12s-3.69-10.33-9-12c4.21-5.25,6.43-4.08,11.21-6.22,13.85-6.19,24.86-15.76,33.87-27.79v-2.41c0-15,.31-15.14-6.93-29.73-3-6-4.53-13.94-2.77-18.19C539.69,136.14,549.27,128,553.21,126ZM453.79,295.44a.7.7,0,0,0,0,.14A.7.7,0,0,1,453.79,295.44Zm.36-1.08c.11-.23.25-.46.4-.71C454.4,293.9,454.26,294.13,454.15,294.36Zm-91.43-34.95.5.44-.5-.44ZM323.31,150.74a1.39,1.39,0,0,1,1-.3A1.39,1.39,0,0,0,323.31,150.74Zm31.75,135.84a2.89,2.89,0,0,0-.15.31A2.89,2.89,0,0,1,355.06,286.58Z"/><path class="cls-7" d="M303.18,53.31c4.9,1.26,5,1.17,9.22,5.56.42,5-12,5.12-4.38,12.6-5,3.23-5.43,8.09-4.84,13.33-4.68-3.88-8.87-7.88-7.38-14.94.56-2.64.09-5.49.09-8.24V59.25C297.8,56.61,305.22,60.64,303.18,53.31Z"/><path class="cls-8" d="M548.35,189v-2.41c0-15,.31-15.14-6.93-29.73-3-6-4.28-13.84-2.77-18.19C540.27,134,549.27,128,553.21,126c8.11,7.39,10.16,13.54,8.75,26.73-1.69,4.27-.32,2.25-2.69,6.27-1.51,2.58-2.69,3-3.52,14.36C555.28,179.72,552.06,184.37,548.35,189Z"/><path class="cls-9" d="M286.18,329.53a1.85,1.85,0,0,0-2.38,1.91c-.08,9.27-.15,18.55,0,27.82.07,4.33,2.21,6.8,6.36,6.48,5.74-.44,11.67,1.89,17.35-2.05,2.19-1.51,6.3-.23,9.53-.25,1.64,0,3.32,0,3.13-2.41l9.34,10.88c-2,5.59-7.38,2.77-11.36,4.06,2.47,3.52,2.43,7.14,1.57,11.21-7.1,1.78-12-.3-14.16-7.8a2.33,2.33,0,0,0-2.91-1.37,2.16,2.16,0,0,0-2,2.4c0,1.49.71,3.09-.74,4.51-1.75,1.72-3.31,3.21-6.13,2.83a6.25,6.25,0,0,1-5.09-4.28c-1-2.44,1.07-5.54-1.27-7.91-1.16.15-2.38-.41-3.33.82-2,2.53-3.67,1.79-5.89-.11-2.6-2.22,0-2.87.57-4.39,1.47-3.9,2.91-7.72,2.67-12.22-.48-9.21-.14-18.47-.14-27.71.33-1.72-1.1-4.22,1.82-4.79C284.73,326.85,286.36,327.22,286.18,329.53Z"/><path class="cls-10" d="M327.27,341c-5.26-.39-30.75-12-37-13-1.21-.22-4.72-1.86-5-1-4.41-2.82-13.31-4.16-15.55-5-5-1.79-7-15.8-8.09-19.93-6.22-23.22-19.58-46.56-24.36-70.11-3.57-17.64,4.59-48.87-7.8-62.5a4.48,4.48,0,0,0-.62-.56c-2.2-1.77-2.2-6.74.19-8.51,3-2.19,2.26-6.77,6.16-7.78,4.72-4.32,5.85-11.28,11.38-15.1a90,90,0,0,0,8.11-6.9c-.3-9.53,2-18.19-6.27-21.94-4.67-12.19,3.87-19.36,8.71-28.75-3.63,0-25.27,2.08-43.07,3.74l1.72-1.32c0-3.32-2.59-2.09-4.32-2.44-2.65-.53-3.48,2.75-6.27,2.54-12.53-1-24.63,1.36-36.74,4.56-7.2,1.9-35.06,9.11-41.83,13A226.37,226.37,0,0,0,96.2,120.2c-16.45,13.24-33.61,31.47-45,45.31-.19,5.12-8,7.24-5.38,13.52.22.54-.23,1.95-.61,2.05-5.8,1.55-8,8.12-12.79,10-6.16,2.41-7.79,7.15-10.43,11.25,2.31,2.4,5.31-.38,6.62,2.29-7,9.26-18.45,14.81-22.22,28.69,4.18-1.58,7.34.78,10.14-1.76,2.5-2.26,4.9-2.12,7.16-.47-2.37,6.29-8.45,10.54-9.45,17.41,2.47,1.49,7.23,1.17,4.22,5.22-3.51,4.7-4.54,9.67-4.14,15.23a1.87,1.87,0,0,0-2.38,1.92c-.14,2.82,1,6.25-.23,8.37-5.42,9.43-.29,17.77,1.78,26.49,1.19,5,2.59,9.73,8.11,11.68-.37,2.55.15,4.78,2.54,6.15,7.44,4.25,14.62,9.18,22.48,12.46a69.63,69.63,0,0,0,21.73,5.4c16.32,1.08,32.69.8,48.5-4.58a2.71,2.71,0,0,0,1.62-1.19c41.79-.14,102.55-1.2,105.22-1.24,10.36-.12,20.73,0,31.09,0,3.59,0,7.34-.68,10.72.17,1.86.47,5.15,1.64,13.79,4.46,0,6.31.9,12.69,1,19,.07,4.33,5.74,8.06,9.89,7.74,5.74-.44,14.29,1.4,21.11.26,6-1,8.77-2,12-2,1.65,0,.19-1.61,0-4,0-3.2.55-6.9,0-10C322.6,346.17,328.42,344.75,327.27,341Z"/><path id="ojo" class="cls-10" d="M416.58,111.3c-5.08-.15-10.44,1.69-13.5,5.75-8.95,11.87.47,32.34,14.2,35.3,10.45,2.25,22.18-3.82,22.72-15.18,0-.13,0-.26,0-.39C440.35,122.66,430.82,111.71,416.58,111.3Z"/><path class="cls-11" d="M561.66,123.42a23.55,23.55,0,0,1-7-9.16C546,93.54,507.27,48,478.8,31.23,458.06,19,437.27,8.22,412.53,9.87c-12.15.81-22.17-5.23-33.23-7.88-.42-.1-.59-1.3-.87-2H356.58c-1.36,5-5.27,5-9.36,4.87-8.13-.16-16.05-.21-23.51,4.55-3.69,2.36-7.36,3.9-8.41,8.54s1.88,7.29,4.82,9.81c-1.72,3.78-6.41,3.2-8.42,6.18-3.1,4.57-7.52,5.09-12.52,4.87-7.66-.33-14.9,1.49-19.55,7.92-3.57,4.94-8.18,4-12.87,4.14.56,4.6,4.63,1.24,6.8,3.12-1,3.78-4.2,5.63-6.74,8.35a23.63,23.63,0,0,1-9.26,6.56,70.53,70.53,0,0,0-7.42,3.38c-11.18.53-24.49,1.22-24.65.4-6.87,0-13.82.63-20.6-.17-7.31-.87-13.65,3.84-20.85,2.6s-14.14,1.51-20.58,3.19c-10.71,2.79-21.45,6.07-31.78,11-16.11,7.64-26.83,13.27-38.35,21.7-10.41,7.63-18.72,17.22-28,25.9-8.84,8.29-15.32,18.39-22,28.39-5.88,8.77-9.92,19.26-20.67,24.05-2.07.93-4.43,3-5,5.08C16,200,8.5,204.61,14.57,211.32-.58,227.39-.58,227.39.32,241.67,7.91,243,7.37,242.91,5.6,250c-1.47,5.85-6.52,11.46-1.31,18.41,1.51,2,.68,6.66-.71,10.25C1,285.29,2.34,296,4.14,303.84c2,8.5,7,16.43,5.31,25.69,4.78-.23,9.29.22,12.13,4.84,3.37,1.74,7.12,2.86,9.9,6.31-2.3,2.14-4.28,5-7,6.34-4.39,2.11-1.37,6.89-4.2,9.26-4.15,3.48,2.92,5.14,1.32,8.2,3.35,2.18,2.3,5.58,2.43,8.66a13.16,13.16,0,0,0,7.28,7.27c5.78,1.14,9.74-3.14,14.57-4.85,1.48-4.29,4.32-2.55,7-1.51a23.93,23.93,0,0,1,2.76,1.51c10.24.95,16.05-6.36,20.94-13.05,2.78-3.81,6.19-6.94,9.1-11.22,13.23,1.17,25.31-3,36.77-9.58.91-.52,88.83-1.09,88.55-.07h12.14c12.12,0,24.23.07,36.35-.05,2.64,0,5.11,0,7.91-1.36,5.63-2.71,8.95-.15,9.1,6.08.17,6.85,0,13.71,0,20.56-2.22,3.2-6.08,5.07-7.78,9.4,1.72,1.73,3.11,4,5.11,5,6.65,3.34,12.78,7.15,17.75,12.84,1.58,1.82,4.55,1.71,6.41-.08,3.33-3.19,5.55-4.77,11.12-2.34,5.73,2.49,14,3.59,17.28-6.19,1-2.93,4.37-5.49,8.19-6.07.65-6.36.49-12.51-4.77-17.22-3.58-3.22-2.9-6.91-1.23-10.69.75-1.7,23.26-23.06,24.69-24.87,3.47-4.37,20.06-11.54,20.93-11.75,12-2.94,29.1-2.78,39-1.87,11.08,1,30,13.86,33.77,18.47s9.31,4.55,16.31,2.55c2.67-.76,14.22,2.21,18,1s4.12-5,9-5c3,0,9-5.2,9-6a13.14,13.14,0,0,0-1-6c-2-4-6.63-3.46-9-6-2.78-3-3.38-5.12-7-8-2.6-2.07-2-1-4.32-4.78a6.06,6.06,0,0,1,0-6c4.14-6.37,11.77-7.76,12.14-15.86.17-3.7,2.27-5.63,5.88-5.93,6-.51,8.74-4.6,11.15-9.41,3-6-2.18-10,5.14-14,.61-.32,4.44-5.27,4.54-7.45.17-3.66-4.17-9.54-4.29-14-.14-5.64,3.23-3.69,9.34-5.73,8.41-2.8,19.86-11,27.79-19.74C557.93,191.93,564,182,562.93,169c-.26-3-.27-6.32,1.25-9.07,1.43-2.56,3.74-4.23,4.65-6.09,1-2,1.22-6.06,1.07-9.07a53.82,53.82,0,0,0-.78-7.79C568.1,131.73,565.81,126.9,561.66,123.42ZM312.89,45.11a1.75,1.75,0,0,0-1.37-1.39A1.75,1.75,0,0,1,312.89,45.11Zm-43.17,28.5c2.41-6.21,6.06-11.94,9.18-17.88.4,0,1.11-.1,1.14,0,2.91,9.4,2.13,18-5.59,25.05-4.41,4-8,9.11-14.16,10.85-.18,0-.64-.48-.78-.82a3.25,3.25,0,0,1,0-1.17c0-2-.45-4,1.69-5.33C265.34,81.81,267.91,78.31,269.72,73.61ZM61.48,368.19c-1.1.74-3.14.1-5.91.1,0-4.27,0-8.56-.07-12.84a2.19,2.19,0,0,0-1.38-1.61c-1.11-.23-2.85-.41-3.12.94-.94,4.74-3.77,8.18-6.83,11.71-3.56,4.11-7.41,5.57-13.24,3.26,1.48-3.48,2.52-6.81,4.94-9.91,1.81-2.33-.25-5.23-3.86-6-1.57-.34-3.17-.06-3.19-2.44,0-1.51.69-2.41,1.92-2.4,2.93,0,4-2.43,5.6-4a4,4,0,0,1,4.44-.81c10.09,4.59,21.53,3.94,32.86,8.77C68.77,358.39,66.76,364.6,61.48,368.19ZM217.57,339.4l1.11,0A5,5,0,0,1,217.57,339.4ZM562,152.73c-4.64-.17-6-3.54-7.69-5.73a66.65,66.65,0,0,0-6.32-6.48c-1.3-1.1-4.36-5-6.72-1-1.52,2.57,1.74,4.14,3.38,5.68,8.17,7.67,12,16.83,11.14,28.16-.47,6.36-3.69,11-7.4,15.63a83.4,83.4,0,0,1-33.87,26.79c-4.78,2.14-16.69,2.12-14.73,8.55,1.61,5.32,8.66,5.13,10.63,10.23s3.88,7.55-3.09,10.16c-3,1.13-3.73-4.91-6.5-4.63-1.34.14-1.22,2.33-1,3.12a38.14,38.14,0,0,0,2.18,5.1c2,4.27,2.78,19.11-6,17.91-.8-.11-3.27-3.58-4.72-4.22-1.89-.84-4.21-.1-6.06,5.67-1.48,4.63-3.12,9.21-4.86,13.74-1,2.68-3,5.49-5.84,4.62-3.15-.94-.37-4.8-1.95-6.72a1.58,1.58,0,0,0-2.29-.31c-2.25,1.44-2.43,4.81-2.86,6.54-.77,3.09-8.14,4.46-9.51,8.47-1.17,3.44,5,1.74,6.62,1.38,2.19-.48,6.65-1.15,8.58,2.64v4.84c3.66,1.09,6.07,4.11,7.81,6.89,2.72,4.36,4.67,8.64,10.94,8.41,1.07,0,3.77,2.18,3,4.45-1.08,3.22-3.5,5.06-7.19,4.48-1-4.52-4.14-2-6.54-2-1,2.34,3.54,3.26,1.47,5.84-.67.34-1.33,1-2,.95-5.8,0-12.12,1.63-16.17-4.72-.27-.43-2.09-.27-3.18.76-5.87,5.57-6.32,5.51-10-.68-.94-1.6-1.63-3.33-2.44-5-6.54-2.11-11.28-7.34-17.65-10-3.77-1.59-8-3.52-11.53-4-5.71-.82-10.89-3.93-17.12-3.1-8.49,1.13-17.36-1.17-25.63,2.62-2.53,1.16-12.17,2.3-15.58,5,0-.24-19.66,11.24-21.73,14.37,1.19.53-20.21,20.52-19.53,24.35.55,3.1.11,6.38.11,9.58l9.34,10.88c-2,5.59-7.38,2.77-11.36,4.06,2.47,3.52,2.43,7.14,1.57,11.21-7.1,1.78-12-.3-14.16-7.8a2.33,2.33,0,0,0-2.91-1.37,2.16,2.16,0,0,0-2,2.4c0,1.49.71,3.09-.74,4.51-1.75,1.72-3.31,3.21-6.13,2.83a6.25,6.25,0,0,1-5.09-4.28c-1-2.44,1.07-5.54-1.27-7.91-1.16.15-2.38-.41-3.33.82-2,2.53-3.67,1.79-5.89-.11-2.6-2.22,0-2.87.57-4.39,1.47-3.9,2.91-7.72,2.67-12.22-.48-9.21-.14-18.47-.14-27.71h-4.86c-4.09-1.16-6.59,3.7-11,2.59-3.38-.85-7.13-.17-10.72-.17-10.36,0-20.73-.08-31.09,0-4.09,0-103.95,1.44-106.84,2.43-15.81,5.38-32.18,5.66-48.5,4.58A69.63,69.63,0,0,1,46.6,336c-7.86-3.28-15-8.21-22.48-12.46-2.39-1.37-2.91-3.6-2.54-6.15-5.52-2-6.92-6.65-8.11-11.68-2.07-8.72-7.2-17.06-1.78-26.49,1.23-2.12.09-5.55.23-8.37A1.87,1.87,0,0,1,14.3,269c-.4-5.56.63-10.53,4.14-15.23,3-4.05-1.75-3.73-4.22-5.22,1-6.87,7.08-11.12,9.45-17.41-2.26-1.65-4.66-1.79-7.16.47-2.8,2.54-6,.18-10.14,1.76,3.77-13.88,15.25-19.43,22.22-28.69-1.31-2.67-4.31.11-6.62-2.3,2.64-4.09,4.27-8.83,10.43-11.24,4.82-1.89,7-8.46,12.79-10,.38-.1.83-1.51.61-2.05-2.59-6.28,5.19-8.4,5.38-13.52,11.41-13.84,28.57-32.07,45-45.31A226.37,226.37,0,0,1,126.62,100c6.77-3.85,34.63-11.06,41.83-13,12.11-3.2,24.21-5.52,36.74-4.56,2.79.21,3.62-3.07,6.27-2.54,1.73.35,4.29-.88,4.32,2.44,1.43.27,35.49-.38,41.35-2.42-4.84,9.38-13.38,16.56-8.71,28.75,8.32,3.75,6,12.41,6.27,21.94a90,90,0,0,1-8.11,6.9c-5.53,3.82-6.66,10.78-11.38,15.1.66,6.5.46,13.62,9.57,14.51,4.07.4,3.15,4.24,2.39,5.28-4,5.49-1.95,11.53-2.11,17.25s6.41,9.53,12,7.74c6.43-2,6.38-2,9.18,4.31,1.09,2.43.44,4.94,2.24,7.6,5,7.41,12.2,6.29,19.47,6.3.61,6.42,3.94,11.5,6.62,16.82,1.84,3.66,5.49,2.44,8.58,2.57,3,.47,6.12-1.37,8.05,3.87,1.88,5.06,7.29,8.07,14.59,4.44-10.5-1.79-9-12.36-15.47-18.53.83,3.7-.91,5.23-2.55,6.9-.81.82-1.05,1-1.77.18a7.61,7.61,0,0,0-2.85-1.7h0c-5.25-5.07-8.66-10.75-7.38-18.55.56-3.42.09-7,.09-10.52-1.49.32-3.28-.81-4.48.85-2.64,3.66-6.87,4.66-10.55,6.41-8.5-4-8.51-11.91-6-18.29,1.75-4.52.53-8.35,2-12.75-8.83-1.52-12.73,10.74-22,5.78-2.82-13.56,8.61-21.42,15.28-31.35-9.29-5-13.21,3.54-19.47,5.36-1.42-2-4.93-2.83-2-7.44a53.39,53.39,0,0,1,16.13-16.47c3-2,7.16-2.52,9.48-6.89-4.76.2-8.29-2.08-12.09-3.65,2.78-4.83,6.64-7.11,12.5-6.45,8.05.9,14.89-2.52,21.18-7.19v-4.75c-13.17,7.34-27.06,3.91-41,5-.14-5.36-2-10.39,4.59-12.33,5.4-3.06,11.61-4.76,16-9.61.53-.58,2.26-.08,3.43-.08,5.23-8.6,8.88-17.58,7.32-28C286,57.74,287.37,53,288,50c2-1.85,4.95-1.66,7.91-1.52.95,3.83,3.52,5.24,7.29,4.85,4.9,1.26,5,1.17,9.22,5.56.42,5-12,5.12-4.38,12.6-5,3.23-5.43,8.09-4.84,13.33h7.28c.11-4.65-1.16-9.71,4.15-12.78.58-.34.89-2.61.43-3.08-4.82-4.81.59-4.9,2.86-5.83,2.07-.86,4.71.68,7.08-1.19-5.79-7-14-10.44-22-15,3.61-1.68,6.84-.47,9.93-.88,3.1,3.17,8.23,1.49,11.41,4.76.61.63,2.58.19,3-1.08.49-1.49.38-2.94-1.64-3.74-3.51-1.38-7.33-2.31-10.3-6.09,9-7.61,19.56-9.09,33.82-8.06-4.24-2.85-4.82-5.41-8.16-5.21-6.78.41-12.08-4-18.09-5.36-1.17-4.05,1.58-6.09,3.92-6.56,14-2.87,28.26-5.92,40.85,4.63.47.39,1.55.05,2.33.05,2.26-3.25,1.7-6-1.86-8.91,5.9-1.56,11.35-.2,16.3-.94,2.21,2.59.52,3.81-.31,5.62s2.84,4.72,5.13,4.23c14.62-3.11,19.93-2.39,35-.38,30,4,43,15,50.57,20.77C487.6,49.59,500.89,59,511.68,71.18c15.08,17.08,27.9,29.59,37.36,50.8.06.15,3.83,5,4.23,5C561.38,134.39,563.37,139.54,562,152.73Z"/><g id="Camara"><path class="cls-12" d="M425.27,319c-4-2-8,.85-11,2-5,3-21.52,6.85-32,10-8.67,2.6-38.7-2.12-42.68-3.9-5-2.23-11.52-2.47-16.86-3.76-6.9-1.67-13.71-3.71-20.46-5.9-17.51-5.68-34.91-11.57-52.5-17-4.5-2.59-4.27-8.21-7.84-11.67-14.94-14.42-29.46-29.27-44.22-43.87-2.88-2.85-9.08-8.75-14.21-10.86-4.81-6-12.4-2.76-17.95-4.21-2.24-3.27-6.38-8.9-4.47-7.12,1.65,1.54,1.2,3.28,1.3,5a41.83,41.83,0,0,1-8.53-1.87c-5.06-1.35-6.13-7-10.89-7.82.36-2.49-4-3.12-2.28-6.3,3.81-1.89,7.56-1.36,11.2,1a2,2,0,0,0,.76-.81,3.5,3.5,0,0,0,0-1.17c.82-4-5.82-.84-4.91-5.05.89-3.4,4.4-4.88,5.55-8.56,2.19-7,6-13.57,9-20.34a6.35,6.35,0,0,0,0-2.39c5.58-3.83,5.77-10.86,9.58-15.92,9.47-12.57,17.11-26.46,28.23-37.89,2-2,2.95-5.25,5.27-7.4,11.72-10.91,22-23.34,34.6-33.29,4.76-5.37,11.13-8.53,17.5-11a23.63,23.63,0,0,0,9.26-6.56c2.54-2.72,5.76-4.57,6.74-8.35-2.17-1.88-6.24,1.48-6.8-3.12-10.78,0-10.82-.06-19.14,5.82-7.44,5.25-14.76,10.65-22.13,16A1.78,1.78,0,0,1,223.77,75c-4.56-.64-6.28,1.08-5.64,5.63.14,1-.92,2-2.35,1.72-5.92,4.5-11.84,9-15,16.08-.77,1.72-2.71,3-4.2,4.32-10.82,9.86-18.94,22.09-27.9,33.42-7.12,9-12.16,19.89-18.34,29.82-.54.88-.07,2.38-.07,3.59s.38,2.16,1,2.13c-.64,0-1-.79-1-2.13-2.41-.09-3.78,2-4.43,3.4-4.4,9.66-15,35.4-19.27,35.46-1.93,0-5-1.64-5.43,2.33,4.16,3.44,9.38,2.2,14.81,2.49-1.4,8.81,1.08,15.64,7.44,21,1.47,1.24,3,.44,4.45.74-.72,4.44-5.45,2.82-6,2.1-3.33-4.5-5.81-.63-8.57.32-4.56-3.69-9.56-6.92-11.76-12.85-.85-2.29-3.29-1.69-5.23-1.68v-4.85c-2,0-3.78-.23-5.38,1.64-5.83,6.85-12.08,13.37-17.77,20.34-8.62,10.57-18.86,20.1-23,33.75.31,1.47,36,46.95,48.55,58.15,3.81.3,2.41,3.28,2.34,5.13-.15,3.74,5.68.54,5,4.56,4.86,3.65,10.14,6.86,14.49,11,5.33,5.13,13,5.86,18.31,10.77,6.66-.95,12.94,4.87,19.17,2.07a22.5,22.5,0,0,1,8.71-2.07c4.21-1.65,6.34-5.68,9.61-8.39,5.1-4.24,8.62-10.21,14.67-13.42,1.53-5.64,7.1,0,9.46-3.38-1.75-3-5.06-6,.25-8.73a2.06,2.06,0,0,1,2.43-2.43,49.91,49.91,0,0,0,14.56-14.53c.27-.42,9.77,2.91,10.78,3.2,3.91,1.1,7.88,2,11.78,3.11,12.73,3.77,24.52,9.5,36.82,14.39,4.32,1.71,8.7,3.25,13.11,4.71q3.42,1.13,6.84,2.21c1.23.39,3.31.81,5.64,1.45,1.92.53,4.1,1.49,6,1.9,8.18,1.79,16.61,4.82,25,5.46a163.08,163.08,0,0,0,25.68.06c6.86-.55,13.08-2.39,19.67-4.21,4.42-1.23,22.12-10.68,26.61-15,2-1.87,6.72-5.29,9.76-5.86C432.27,322,430.49,321.61,425.27,319ZM154.65,168.75a18.49,18.49,0,0,0-1.91,1.94A18.49,18.49,0,0,1,154.65,168.75Zm-12.08,57.86a6.19,6.19,0,0,0,1.63.8A6.19,6.19,0,0,1,142.57,226.61ZM179.48,235c.47,3.1,4.9,5.62,8.05,8.82,11.81,12,32.26,30.35,44.2,42.2,3.36,3.34,5.71,7.11,5.9,12-6,1-10.24-1.41-14.54-5.76-9.49-9.6-18.22-20-29.15-28.16-2.67-4.21-7-6.74-10.36-10-6.84-6.63-15.83-10.89-21.2-19.05Zm-67.23,83.42a1.85,1.85,0,0,0,.48,1.43A1.85,1.85,0,0,1,112.25,318.45Zm6.58-2.46c2.42-2.11,6.35-1.88,7.84-.77,7.51,5.59,14.44,1.25,20.65-1.4,6.56-2.79,14.06-14.76,15.06-20.08S156,275,150.62,271.3c-7.63-5.24-16.08-5.07-24.65-4.77-3.38,3-6.91,5.77-10.1,8.93-7.34,7.28-9,18.34-4.51,28.77a7,7,0,0,1,0,2.47L104.12,298c-.35,2.57-3.62,4.18-2.43,7.27-6.48-3.85-10.67-10.15-16.23-15C84,289,85,287.37,84.7,285.91c-5.78-3.26-3.94-9.05-5.07-14-1.38-6.11,2.69-10.3,5.39-13.37,9.26-10.52,16.66-22.91,28.81-30.74,8.06,7.38,17.56,13.46,21.85,24.23l-19.84,9.7c-2.11,1-4,2.25-4.44,4.84,4.2-.07,8.57.76,12.14-2.42,7.81-2.93,15.48-3.25,23.46-.1s13.8,7.88,17.92,15.42c3.52,6.43,3.34,12.63.6,18.9-.72,1.64-.39,3.06-.71,4.54-6.15,8.41-13,15.6-23.91,18.07-4.62,1-8.74,2.35-13-.38-2.23-1.45-4.58-.34-6.84-.73C121.52,317.87,119.29,317.5,118.83,316Zm4.71-32.13c-.09-7.53,3.87-12.34,10.28-12.49,3.17-.07,6.13-.21,8.5,2.85s4.61,8.58,2.74,10.56c-2.53,2.68-4.39,7.05-9.47,6a12,12,0,0,0-2.4,0C125.47,290.76,123.6,289.43,123.54,283.86Zm47.84,16.56a12.61,12.61,0,0,1-5.46,2.27A12.61,12.61,0,0,0,171.38,300.42Zm-13,53.76a11.23,11.23,0,0,1,2.21,1.19A11.23,11.23,0,0,0,158.41,354.18Zm-1-5.24c-2.38-.2-4.8,0-7.2,0-1.68.06-2.49-.75-2.43-2.42-1.2,0-3,.51-3.53-.08-6.64-8-16.14-12.72-23.45-20.85,4-1.69,8-1.09,11.66-.77,7.56.67,14.83-.84,21.92-2.73,3.85-1,7.58-3.58,10.6-6.29,3.46-3.13,7.61-5.85,9.51-10.47-.82-3.76,1.88-6.42,3.44-9.19a10.2,10.2,0,0,0,1.41-5.35c2.52-.35,4.28.58,6.2,2.4,6.82,6.48,12.56,14.11,20.5,19.41-.36,1.83,1.21,4.64-2.42,4.84.27,1.51-.77,2.57-1.87,2.34-5.51-1.14-8.79,2-12.17,5.55-5.81,6-11.88,11.85-17.77,17.82C167.86,347.16,163.27,349.45,157.44,348.94ZM173,354.35c.56-.86,1.32.22,1.52,1.28C174.27,354.57,173.51,353.49,173,354.35Zm50.12-34.52c-13.15,10.52-24.19,23.21-36.07,35-3.62,3.59-7.14,4.45-11.62,3.3-.43-.11-.58-1.29-.86-2,9.12-7.76,18.26-15.41,24.8-25.76,3.07-4.86,8.82-7.68,11.61-13h12.14ZM239.54,302c-1.25,1.91-3.5,3.16-4.78,5.06-3.5,5.18-8.42,6.23-14.12,5.51h-6.86c-1.65,0-3-.33-2.85-2.43-6.79-4.13-11.25-10.77-17.14-15.86-3.21-2.76-5.37-6.73-9.56-8.37-2.28-4.25-5.82-7.6-7.43-12.44-3.09-9.33-10.53-14-19.65-16.86-2.32-.73-6-1-6.91-4.62l-4.85-2.42a6,6,0,0,0-4.86-4.85,1.86,1.86,0,0,1,1.91-2.37c3.21-.14,6.49.35,9.64-.13,8.29-1.26,14.12,1.85,19.78,8s13,11,19.65,16.35c12.11,10.52,23.83,21.44,34,33.92q6.07,4.67,12.14,0C238.81,300.36,240.25,300.92,239.54,302Z"/><path class="cls-13" d="M133.19,290.76c-7.72,0-9.59-1.33-9.65-6.9-.09-7.53,3.87-12.34,10.28-12.49,3.17-.07,6.13-.21,8.5,2.85s4.61,8.58,2.74,10.56c-2.53,2.68-4.39,7.05-9.47,6A12,12,0,0,0,133.19,290.76Z"/><path class="cls-14" d="M164.92,279.43c-4.12-7.54-10-12.31-17.92-15.42s-15.65-2.83-23.46.1c-3.57,3.18-7.94,2.35-12.14,2.42l-7.28,14.54v17l7.28,8.67a7,7,0,0,0,0-2.47c-4.45-10.43-2.83-21.49,4.51-28.77,3.19-3.16,6.72-6,10.1-8.93,8.57-.3,17-.47,24.65,4.77,5.38,3.7,12.78,17,11.76,22.44s-8.5,17.29-15.06,20.08c-6.21,2.65-13.14,7-20.65,1.4-1.49-1.11-5.42-1.34-7.84.77.46,1.51,2.69,1.88,2.28,3.84,2.26.39,4.61-.72,6.84.73,4.21,2.73,8.33,1.42,13,.38,10.94-2.47,17.76-9.66,23.91-18.07.32-1.48,0-2.9.71-4.54C168.26,292.06,168.44,285.86,164.92,279.43Z"/><path class="cls-15" d="M237.63,300.45q-6.06,4.67-12.14,0h0c-10.15-12.48-21.87-23.4-34-33.92-6.61-5.39-13.91-10.15-19.65-16.35-3.36-3.63-6.79-6.19-10.76-7.42a.88.88,0,0,0,.07-.23c-1.47-.29-13-11.94-14.5-13.18-6.36-5.36-12.15-7.25-10.75-16.06-5.43-.29-10.65,1-14.81-2.49l-4.85,7.27v4.85a6.21,6.21,0,0,1,5.37,3.8c2.2,5.93,7.06,7,11.62,10.73a4.9,4.9,0,0,1,1.08-.24c1.78,2.17,4,4.79,6.2,7.51a6,6,0,0,1,4.86,4.85l4.85,2.42c.88,3.59,4.59,3.89,6.91,4.62,9.12,2.89,16.56,7.53,19.65,16.86,1.61,4.84,5.15,8.19,7.43,12.44,4.19,1.64,6.35,5.61,9.56,8.37,5.89,5.09,10.35,11.73,17.14,15.86-.15,2.1,1.2,2.44,2.85,2.43h6.86c5.7.72,10.62-.33,14.12-5.51,1.28-1.9,3.53-3.15,4.78-5.06C240.25,300.92,238.81,300.36,237.63,300.45Zm-14.56,2.42c1.47.06,2.28-.56,2.41-1.85C225.35,302.31,224.54,302.93,223.07,302.87Z"/><path class="cls-16" d="M210.93,317.41c-2.79,5.33-8.54,8.15-11.61,13-6.54,10.35-15.68,18-24.8,25.76.28.69.43,1.87.86,2,4.48,1.15,8,.29,11.62-3.3,11.88-11.82,22.92-24.51,36.07-35v-2.42Z"/><path class="cls-16" d="M113.83,227.76C101.68,235.59,94.28,248,85,258.5c-2.7,3.07-6.77,7.26-5.39,13.37,1.13,5-.71,10.78,5.07,14,.44.18.92.3,1.36.47-.44-.17-.92-.29-1.36-.47.29,1.46-.7,3.13.76,4.41,5.56,4.83,9.75,11.13,16.23,15-1.19-3.09,2.08-4.7,2.43-7.27v-17l7.28-14.54c.41-2.59,2.33-3.81,4.44-4.84l19.84-9.7C131.39,241.22,121.89,235.14,113.83,227.76Z"/><path class="cls-16" d="M189.61,325.3c3.38-3.51,6.66-6.69,12.17-5.55,1.1.23,2.14-.83,1.87-2.34,3.63-.2,2.06-3,2.42-4.84-7.94-5.3-13.68-12.93-20.5-19.41-1.92-1.82-3.68-2.75-6.2-2.4a10.2,10.2,0,0,1-1.41,5.35c-1.56,2.77-4.26,5.43-3.44,9.19-1.9,4.62-6.05,7.34-9.51,10.47-3,2.71-6.75,5.27-10.6,6.29-7.09,1.89-14.36,3.4-21.92,2.73-3.71-.32-7.7-.92-11.66.77,7.31,8.13,16.81,12.87,23.45,20.85.5.59,2.33.08,3.53.08-.06,1.67.75,2.48,2.43,2.42,2.4,0,4.82-.17,7.2,0,5.83.51,10.42-1.78,14.4-5.82C177.73,337.15,183.8,331.34,189.61,325.3Z"/><path class="cls-17" d="M162.38,220.49c-1.49.15-3.21.45-1.3,2.23,1.65,1.54,1.2,3.28,1.3,5a41.83,41.83,0,0,1-8.53-1.87c-5.06-1.35-6.13-7-10.89-7.82.36-2.49-4-3.12-2.28-6.3,3.81-1.89,7.56-1.36,11.2,1a2,2,0,0,0,.76-.81,3.5,3.5,0,0,0,0-1.17l4.85,2.42Z"/><path class="cls-18" d="M182.26,237.26l5.27,5.27c2.64,2.64,4.78,4.07,8.49,7.84,11.82,12,23.77,23.83,35.71,35.68,3.36,3.34,5.71,7.11,5.9,12-6,1-10.24-1.41-14.54-5.76-9.49-9.6-18.22-20-29.15-28.16-2.67-4.21-7-6.74-10.36-10-6.84-6.63-15.83-10.89-21.2-19.05,7.28,0,7.33-.41,14.61-.41C178.67,234.56,181.07,236.07,182.26,237.26Z"/></g></g></svg>