<svg id="Layer_1" data-name="Layer 1" xmlns="http://www.w3.org/2000/svg" viewBox="0 0 570.85 827"><defs><style>.cls-1{fill:#948b87;}.cls-2{fill:#efe5e8;}.cls-3{fill:#5fd55c;}.cls-4{fill:#3e3b3c;}.cls-5{fill:#786e6c;}.cls-6{fill:#332625;}.cls-7{fill:#5f494f;}.cls-8{fill:#0e890c;}.cls-9{fill:#d7bdc4;}.cls-10{fill:#82f283;}.cls-11{fill:#c39ea7;}.cls-12{fill:#ded6de;}.cls-13{fill:#f9f9f9;}.cls-14{fill:#fcfcfc;}.cls-15{fill:#f5f3f1;}.cls-16{fill:#768a99;}</style></defs><title>fulo</title><g id="DF30EP.tif"><path class="cls-1" d="M.18,436.3Q3,429.88,5.92,423.46l3,.21c-1.07,4.93,4.35,5.66,5.79,9-9.2-.14-14,2.8-9,12.73l-.91,4.75L.18,443.6Z"/><path class="cls-2" d="M397.43,1.88c.06-.57.09-1.13.1-1.7h16.4c0,1,.07,2,.1,3.05l-3.79-1.07Z"/><path class="cls-3" d="M434,77c-11.92-5.43-23.09,4.71-34.89,1.68-1-.66-2.48-1.11-2.86-2-1.26-3,1.48-1.46,2.34-1.64,15.32-3.2,30.93-5.37,45.92-9.7C457.6,61.51,469.59,55.1,474,40.13c2.07-7,8-12.86,14.82-9.82,8.31,3.7,9.06-.61,12.37-5.8,4-6.21-3.81-9.91-1.66-15.15h0c7.68,6.42,6.07,14.55,3.86,22.58-6.34,23-4.17,27.51,17.46,37.25,4.9,2.21,9.73,5.34,10.12,11.81.5,8.39-4.67,13.42-10.76,17.75-10.56,7.5-21.35,14.68-31.74,22.4-2.76,2-5.49,5.43-3.81,9.47,1.48,3.56,5.24,2.09,8.08,2.55,3,.47,6.3.28,8.9,1.56,5.43,2.67,13.77,3.84,13.05,11.8-.65,7.24-7.34,10.62-14,12.53-9.92,2.83-19.58,5-30.16,1.17-9-3.23-17.1.49-23.23,7.93-8.48-1.51-5.51,5.18-6.16,9-.49,2.86-.5,5.46-4.32,5.62-3.41.14-5.56-.87-6.78-4.47-1.91-5.64.19-10.18,3.38-14.27,7.64-9.78,3.83-14.21-6.45-18.48-12.53-5.21-27.65-5.26-36.93-17.4l10.29-28.19.41-.32c12.87-1.27,23.15-8.36,33.32-15.4C435.45,83.24,440.22,79.3,434,77Z"/><path class="cls-4" d="M37.74,616.37l1.44-4.5c4.15-1.14,2.85-4.62,3.16-7.41l.06-.06,6.85-7.79,2.32,2.19Q46.13,616.92,40.67,635l-1.62,2.49,2.7.41,8.73-3.15c3.88-.11,7.74-.23,10-4.2l12.62-2.52c1.7,2.2,2.85,1.29,3.81-.68l3.54-1.54,20.15-.81,27,2.49c1,2.06,2.21,2.68,3.79.5,9.28.31,18.48,1,27.18,4.71.81,2,1.86,3.17,3.75,1l32.73,7.77c1.21,3.36,3.11,3.58,5.58,1.24l3.52.89c1.78,3.73,5,2.49,7.92,2.33l4.85,1.39c.85,2.23,2,3.07,3.77.77l11.11.35,5.18.65c13.4,2.76,27.43,7.83,29.78-14,2-18.82,5.32-37.5,8.05-56.23,2-.91,3-2,.82-3.8.29-2.4.57-4.8.86-7.19,3.55-2.05,3.26-4.61,1-7.43l-.89-3.82q.87-4.41,1.73-8.82c2.36-1,3-2.25.51-3.9l-.08-36.55q.81-5.32,1.61-10.67a121.11,121.11,0,0,0-.07-53.18l-1.11-10.83c2.19-1.66,1.57-2.85-.62-3.78l-1.05-5.4c.43-2.6.85-5.19,1.28-7.79l1.69-1.45c2.89.42,4.11,2.38,4.61,5q.54,7.63,1.1,15.27c-1.73,1.33-1.57,2.54.22,3.66l1.29,20.16a145.41,145.41,0,0,0,0,45.38q-.6,11.88-1.22,23.78c-2.84,2.93-2.74,6-.39,9.13q-.62,10-1.24,20c-3.28,2.88-2.82,6-.54,9.2l-1,12.7c-2.94,1.48-3.12,3.35-.75,5.56l-1.43,12.69c-2,1-2.53,2.23-.43,3.74-.34,1.79-.69,3.58-1,5.37-2.94,1.46-3.14,3.33-.82,5.56l-.84,5.4c-2.19.71-3.34,1.72-1.06,3.7-.19,1.21-.37,2.41-.56,3.61-3.74,3-5.79,6.36-2.86,11.05q-2.49,10.89-5,21.79c-2.28,1.2-2.39,3-1.36,5.1l-1.35,4.17c-2.63.46-4.19,2.93-2.22,4.14,4.56,2.8,8.76.8,11.92-3.32l25.39-4.66,14.56-.29,38.18,2c1.06,2,2.27,2.55,3.76.39l32.7,2.73c1.39,3.13,3.25,3.41,5.57.92l25.41,2.8c1.52,3.15,3.41,3.23,5.63.69l3.66-.62c24.33,2.49,48.69,3.65,73.12,1.63l28.9-2.61q1.83,2.65,3.67,5.3c-1.29,3.47,3,7.68-1.41,10.73-2.06-3.23-3.26-7.72-8.85-5.26-1.74.77-5-.14-4,3.23,1.54,5.14,4.67,9,10.52,9.62l-.14,4.81-7.16.19c-7.27,1.16-1.53,13-10.46,12.79l1.86-5c2.64-2,4.54-4.21,1.51-7.4,0-1.83,0-3.66.07-5.49,2.48-2.44,1.92-4.31-1-5.74-.8-3.06-1.7-5.29-5.9-5.2-20.82.42-41.65.45-62.48.62l-9.13-.6-16.28-2.85c-.86-2.3-2-3.23-3.81-.77l-10.92.1L386.73,676c-.91-2.25-2.08-3-3.79-.67l-3.7.79-14.35-1.35L343,672c-1.75-2.69-3.63-2.72-5.63-.28L315.61,671q-2.79-6.11-5.68,0l-19.94.68c-1.55-2.22-2.76-1.65-3.8.45l-27.07,6.32-1.89-6.71c-1.09-3.46,3.15-7.8-1.74-10.64-3-3.3-6.07-2.94-9.25-.34-12.3,0-24.52-.63-36.31-4.63-.75-2.17-1.76-3.36-3.74-1l-34.55-8c-1.78-2.8-3.53-5.71-7.43-2.73l-14.43-3.2c-1-2.1-2.18-2.73-3.77-.54l-3.68.37L137,639.23c-.94-2-2.1-2.76-3.74-.63l-3.71.41-7.25-.8L119,637.8c-14.52,1.27-33.58-10.8-40.17,13.72-5.81,6,.54,8.86,3.26,12.66l-2.16,1.89c-4.35.64-5.2,3.67-5,7.4l-4.36,5.46c-3.46.49-8.55,4.89-8.27-3.49,7-6.43,7.92-14.81,7.48-23.61,2.1-.61,4.11-1.26,1.73-3.87-1-2.88,4.61-9.35-1.29-8.36-12.1,2-26.4,2.27-31.73,17.46l-5.14-.2-1.71-17.94c.22-1.74.44-3.48.65-5.21,5.27-1.44,4.2-5.74,4.28-9.52C36.93,621.58,37.34,619,37.74,616.37Z"/><path class="cls-5" d="M538.11,332.17c-.85,11.18.51,22.17,2.89,33.07l-5-.12c-2.8-1.24.56-10.54-5-6-19.52,16-43.46,18.05-66.37,23.6l-1.79.16c-10,.22-20,.6-29.95.58-4.71,0-6,1-5.44,6.29.79,7.51,5.31,15,1.05,22.77-4.29-23-17.45-38-40.13-44.26,1.7-3.39,4.31-7-1.9-8.64-.1-1.83-.21-3.66-.31-5.49.05-1.81.11-3.61.17-5.41l8.74-21.37c24.37-27.25,35.2-57.87,23.32-94.13-.3-1.09-.59-2.19-.88-3.29,1.8-12.2-7.64-24.36-.11-36.58,4.32-1,9-1.22,11.88-5.44l16.55-2c21-2.7,23.25,19.18,35.93,27.39l-16.41-1.18c-1.84-6.2,2.71-16.08-5.92-18.05-11.32-2.59-23.87-2.89-33.91,4.62-5.74,4.3-1.56,11.1-.25,16.78.47,2.52.93,5,1.4,7.55q2.21,14.51,4.42,29l1.11,9.26c.15,1.16.31,2.33.46,3.49l.48,11a35.92,35.92,0,0,1-6,20.6c-8.42,12.57-16.95,25.11-24.58,38.17-11.26,19.3-5.65,32.44,16.27,36.62,34.17,6.53,67.1,1.56,97.88-14.79,16.94-9,19.37-20.5,7-35-9.58-11.17-21-20.78-31.56-31.08.2-3.6,3.12-3.36,5.49-3.88,5.73.67,7.52,8.95,14.36,7.47.88,4.33,3.91,6.71,7.65,8.43,1.26,3.51,4.48,2.11,6.88,2.75.49,1.06,1,2.12,1.48,3.19-.38,2.43-1.06,5,2.12,6.18a2.66,2.66,0,0,0,.86,1.36c0,2.39-.25,4.9,2.69,6a3.08,3.08,0,0,0,1,1.34C534.52,326.6,535.28,329.78,538.11,332.17Z"/><path class="cls-6" d="M437.65,790.12l-8.79-.71c-1.39-3.42-3.49-6-7.42-6.56l-.05-.05c-.48-4.93-2.34-8.93-7.28-10.87l0,0c.07-6.08-2.56-10.83-7.18-14.59l-.07-.08c-2.28-6.37,1.23-16.71-11.07-16.23.07-2,.13-4.11.2-6.16l.78.35.85,0,1.75.24c33.15,1.52,62.95-9.69,91.9-24.17l7,3.94-.05,0c-.73,3.39-.14,6.2,3.37,7.73l-.1,3.65c0,1.19,0,2.38,0,3.58,6.06,7.88,15.24.61,22.34,4.64,3.9,2.22,10.8,4.06,9.42,7.82-1.44,3.94-6.07-1.83-9.56-2.39-2.06-.33-4.12-.72-6.18-1.08-7-1.36-18.81,4.38-20.43-3.74-3.5-17.48-9.82-13.11-18.93-5.55-1.32,1.09-3.31,1.45-5,2-17.6,5.35-35.33,10-53.83,11.37-4.54.32-11.38.55-7.05,9.17,6.3,12.57,16.18,19.39,30,21.7,27.57,4.6,54.83-.45,82.23-1.75,17.75-.84,19.8-3.31,13.16-20.56.71-3.65,2.33-4.49,4.24-.9,4.53,8.52,8.5,17.23,3.74,27.08l-3.52-.5c-19.34,1.2-38.68,2.34-58,3.64a93.06,93.06,0,0,0-9.74,1.67c2.65,3.66,6.46,4.11,10.53,3.73,2.1-.19,4.22-.86,6.29-.73,16.32,1.06,32.54-5.34,48.9-.62-2.28-.16-3.73.73-4,3.15l-12.76,2A545.07,545.07,0,0,0,437.65,790.12Zm-8.81-13.36c6.15,6.76,14,6.16,21.1,7.6,1.09.22,3.37-.84,3.59-1.69.66-2.57-1.72-2.59-3.41-2.84C443.35,778.81,436.56,777.87,428.84,776.76Z"/><path class="cls-6" d="M202.42,770.23c-.5,2.28-1,4.55-1.51,6.83-1,2.61-2,5.21-3,7.82.22,1.18.43,2.36.65,3.55-.18,1.73-.35,3.46-.53,5.2l-6.14,4.84-4-4.41c-8.67.21-11.75,9.29-18.89,11.92l-1.14-1.14c.73-4.74,4.22-7.23,7.92-9.35C187.15,789,194.36,780,193.57,766c-.22-3.9,4.45-9.11-.55-11.45-5.63-2.62-11.54-8.28-18.88-2.6-5.36,4.16-11.34,3.74-18,2.42-6.94-1.36-19.68-13.35-18.6,7.23l-2.45,1.54c-5.48,0-11-3.78-16.44.07-9.57,1.61-19,3.62-27.29,9.08l-3.72-.21c.67-2.38,1.33-4.76,2-7.13l0-.05c6.21-1.08,13.63-.5,13.65-10,.41-1.56.83-3.12,1.24-4.68h13.93l3.1,2.11c4.17,5.27,7,4.16,8.81-1.85l3.63-9.13q2.22-3.84,4.43-7.67l1.74-.07,3.89-1a7.65,7.65,0,0,0,1.56.35l1,3.09c.51,4.2,2.46,7.36,6.47,9,4.49,5.05,10.3,3.93,14.93,1.57,9.06-4.61,17.56-9,26.75-.76,1.48,4.35,3.62,2.9,5.86.66l10.6,1c3.61,4.34,8.8,1.46,13.05,2.87l0,2.73c-6,3.58-17-5.52-19.2,7.65C200.64,762.88,200.26,766.19,202.42,770.23Z"/><path class="cls-6" d="M465.39,212.08l16.41,1.18A1.5,1.5,0,0,1,483,214l1.79,3.5-.06,3.19-1.27,4-2.51.81c-3.85.1-7.72,0-11.55.33-4.69.39-9.66,1.7-9.51,7.32.11,4.12,2.51,8.19,8.16,7.41,4.29,1.31,11.07-1.65,11.29,6.61-6.29,1.37-16.7-1.95-12.66,11.16,0,6,4,6.44,8.66,6.54,2.86.06,5.7.84,8.56,1.3-1.57,2.37-3.23,4.69-4.67,7.15a55.07,55.07,0,0,0-2.44,5.35c2.12.81,4.36,2.53,6.34,2.27,6.43-.85,11.9-2.62,13.37-10.82,2.35-13.11,4.39-25.91-2.38-38.33,7.08-.8,4.2,9.28,10.35,9.5l-1,10.51q2,6.18,3.91,12.37-4.87,11.1-9.74,22.19c-2.37.53-5.29.29-5.49,3.89l-6.76.3c-6.55-1.49-16.61.11-17.49-8.19-1.42-13.38-11.85-22.1-13.88-36.84-2.15-15.61,1.29-22.65,9.27-32Zm14.87,7.81a2.62,2.62,0,0,0-.78-.25c-.08,0-.17.38-.25.59a2.6,2.6,0,0,0,.78.24C480.09,220.48,480.18,220.09,480.26,219.89Z"/><path class="cls-7" d="M536.07,675.38q-1.85-2.64-3.67-5.3c3.64-1.25,7.25-2.58,10.92-3.74,9-2.85,21.14-3.14,14.73-18.37-11.59-50.9-25.21-101.12-49.64-147.69l-14-29.08,6.84,1.74,0,.05c-.23,5.38,1.21,9.66,7.22,10.91l.06.06c.24,2.81-.8,6.19,3.22,7.33l1.56,4.36c-1.91,5.81,1,8.62,6.2,10.08l0,0c.27,2.88-1,6.56,3.61,7.26a1.78,1.78,0,0,1,.83,1.05c-.85,2.86-1.32,5.56,2.73,6.29a1.85,1.85,0,0,1,.78,1.11c-.76,2.73-1,5.28,2.49,6.32.31,1,.63,2,.94,3-.48,2.46-1.1,5,2,6.29.38.6.75,1.21,1.12,1.81.22,2.68-.94,5.92,3,7.05l1.47,4.37c-.88,2.91-1.32,5.64,2.63,6.62l.2.19c.3,2.64-.94,5.93,2.94,7.07.49,1.48,1,3,1.46,4.44-.72,2.65-1.38,5.28,2.17,6.51.51,2.67,1,5.34,1.54,8-.8,2.69-1.49,5.35,2.16,6.58.48,1.47,1,2.93,1.45,4.4.43,7.46.62,15,5.81,21.15l1.5,8c-.78,2.69-1.45,5.35,2.18,6.57.48,1.47,1,2.93,1.45,4.4-.76,2.68-1.47,5.35,2.19,6.55.2,2.4.41,4.81.62,7.21-1.92,7.31-1.59,15.38-7.22,21.43l-.18.18c-2.64.28-5.88-.91-7.08,2.89l-3.55.7C543.83,669.91,539.88,672.2,536.07,675.38Z"/><path class="cls-5" d="M545.54,777.84c4.76-9.85.79-18.56-3.74-27.08-1.91-3.59-3.53-2.75-4.24.9C524.42,759,510,758,495.88,757.44c-7.15-.27-19.5,3.39-20.06-3.94-.51-6.82,12.46-3.12,18.93-5.54,7.6-2.85,18.52,2.43,22.73-8.92,2.06.36,4.12.75,6.18,1.08,3.49.56,8.12,6.33,9.56,2.39,1.38-3.76-5.52-5.6-9.42-7.82-7.1-4-16.28,3.24-22.34-4.64,13.8,2.6,29.06-.88,40.06,12.47,11.66,14.16,11.15,40.47-2,45.41L540,785c-16.36-4.72-32.58,1.68-48.9.62-2.07-.13-4.19.54-6.29.73-4.07.38-7.88-.07-10.53-3.73A93.06,93.06,0,0,1,484,781c19.33-1.3,38.67-2.44,58-3.64.32,1,.63,2,1,3Z"/><path class="cls-6" d="M163.77,821.48l-6.88,1.44a356.77,356.77,0,0,0-67.37,0l-7-.62c-1.61-1.12-3.29-2.14-4.81-3.38-6.31-5.1-13.94-9.59-12.14-19.54,1.27-7,2-14.69,11.17-16.4.64,1.22,1.29,2.44,1.93,3.67-7,2-5.87,7.79-5.34,12.7.6,5.54,5.5,3.4,8.74,3.7,28.53,2.61,57.08,4.25,85.72,1.79l1.13,1.14c-2.16,3.34-5.29,4.37-9.19,4.82-26.11,3-52,.4-78-2.1-2.38-.23-5.9-3.67-7.42.84-.17.5,4.62,3.68,7.29,4,29.92,3.24,59.85,3.54,89.74-.58l2.75,3-1.1,2.87-3,1C167.62,819.19,165.23,818.64,163.77,821.48Z"/><path class="cls-7" d="M270,748.52l-17.32,2.26-6.54-.74-3.61-2.86,18.67-5.09,3.26-1,34.23-9c.09,1.14.17,2.29.25,3.44l-14.17,14.1c-.56,1.1-1.12,2.2-1.69,3.3,4.32,1.2,8.63,2.35,11.9-2.18,7.05-2.45,14.08-5,21.15-7.36,7.93-2.66,15.38-14.15,21.65-10.12,6.8,4.39-4,14.31-2.5,22.43-6.81,4-6.15-13.5-14.51-5.07l-3.64.74c-2.6-2.14-4.42-1.62-5.44,1.61l-4.38,1.42c-7.45.5-15,.57-21.14,5.86h-6.95C275.68,756.7,275.78,750.3,270,748.52Z"/><path class="cls-5" d="M31.59,638.92l1.71,17.94c1.27,2.47,2.08,5.6,5.91,4.46a36.74,36.74,0,0,0-.77-4.26c5.33-15.19,19.63-15.42,31.73-17.46,5.9-1,.33,5.48,1.29,8.36l-1.73,3.87c.44,8.8-.45,17.18-7.48,23.61-3.94,3.46-9.47-9.48-12.71,1.23C33.77,671.92,27.87,659.52,31.59,638.92Z"/><path class="cls-7" d="M49.54,676.67c3.24-10.71,8.77,2.23,12.71-1.23-.28,8.38,4.81,4,8.27,3.49,2.61,3.25-5.55,5.19-1.2,8.31,3.8,2.72,7.29-.1,10.78-1.64a54.07,54.07,0,0,1,8.14-2.91,31,31,0,0,1,5.89-.37,57.24,57.24,0,0,1-3.57,4.58C77.27,700.63,69.26,716.21,73,736c1.29,6.81,3.66,11.4,11.17,5.48,3.79,6.72-5.19,7.11-5.77,11.67l-3.38,0c-11.28-9.6-8-23.64-10.84-35.79.2-1.18.39-2.36.59-3.54,4-1.1,2.74-4.43,3-7.09l.18-.18c5-2.81,4.41-6,.69-9.49l-1.12-1.56c-.13-4.23-2.69-6.39-6.41-7.56l-1.06-3.07c-.32-6.69-4.74-8.06-10.29-7.94Z"/><path class="cls-8" d="M445.87,185.87l-16.55,2-8-9.57.14-7.94c4.41-5.07,12.27-9.34,10.72-16.43-1.28-5.86-9.4-4.91-14.92-5.8-13.71-.89-24.39-8-34.3-16.74.71-2.4,1.41-4.8,2.12-7.19l5,3.89c9.28,12.14,24.4,12.19,36.93,17.4,10.28,4.27,14.09,8.7,6.45,18.48-3.19,4.09-5.29,8.63-3.38,14.27,1.22,3.6,3.37,4.61,6.78,4.47,3.82-.16,3.83-2.76,4.32-5.62.65-3.77-2.32-10.46,6.16-9Q446.6,177,445.87,185.87Z"/><path class="cls-5" d="M320.78,750.61c8.36-8.43,7.7,9,14.51,5.07,8.31,2,14.5-1.71,19.91-7.48l18.87,1.88,4.11-5.13c5,.25,6.33-4.36,9.13-7,1.85,3.68,5.18,3.29,8.44,3.06,12.3-.48,8.79,9.86,11.07,16.23-5.56-16.85-12.24-11.76-25.85-6.25-11.57,4.67-24.85,6.55-36.76,13.12-6.61,3.64-14.51.06-17-8.78C326.19,751.69,324.21,750.43,320.78,750.61Z"/><path class="cls-7" d="M491.66,454.45l.27,3.78-3.07,1.57c-5.51-4.88-10.91.74-16.38.18l-2.43.38c-11.9-7.16-26.92-10.4-32.31-25.75,1.8.88,3.59,1.78,5.4,2.65,13.11,6.25,24.61,18.36,41.48,10.61,4.13-1.9,7.61-6.27,13.05-4.61C497.62,448,489.72,448.6,491.66,454.45Z"/><path class="cls-5" d="M4.8,450.11c.31-1.59.61-3.17.91-4.75l3,.09c1.07,2.5,2.17,5,3.2,7.49C22,477.62,38.36,497.78,57,516.33l-7.72.32-1.5-1.2L35.88,503.6l-1.14-1.48c-.43-7.95-6.1-11.57-12.2-14.85l-2.33-3.49c0-2.27.3-4.71-2.57-5.69l-1.11-1.56c-.31-2.9,1.13-6.68-3.67-7.33h0c-.28-2.9,1.14-6.65-3.61-7.34h0c-.26-2.8,1-6.23-3.08-7.44C5.73,453,5.27,451.55,4.8,450.11Z"/><path class="cls-3" d="M419.45,7.41c15.63,9.5,31.19,4.21,47,.24,11-2.76,22.41-5.26,33.11,1.72h0c-14.64-2.48-28.33.26-42.27,5.4-13.34,4.93-27.7,7.74-37.91-7.24Z"/><path class="cls-5" d="M76.75,783c-9.2,1.71-9.9,9.43-11.17,16.4-1.8,10,5.83,14.44,12.14,19.54,1.52,1.24,3.2,2.26,4.81,3.38-16.74-1.31-21.44-12-19-26.44,2.56-15,12.19-25,26.07-30.9-.67,2.37-1.33,4.75-2,7.13l.08-.05c-3.07-.59-5.4-.07-5.55,3.7l.07-.07c-3.76.17-4.28,2.5-3.7,5.57l.07-.09-1.91,1.91Z"/><path class="cls-5" d="M526.94,421.7l-2.32,3.53a43.38,43.38,0,0,0-15.83,14.82l0,0-7.83-.28,6.22-6.95c13.88-10.25,22-24.68,28.79-40-.08-.82-.15-1.64-.23-2.46l-.24-.18,5.45.44-7.17,20.08C529.25,412.93,527.1,416.69,526.94,421.7Z"/><path class="cls-1" d="M507.39,264.17q-2-6.18-3.91-12.37c15.15,14.5,19.25,33.8,23.06,53.22-2.4-.64-5.62.76-6.88-2.75-.4-7.65-.8-15.3-7.14-20.92C510.45,275.73,515.93,267.85,507.39,264.17Z"/><path class="cls-5" d="M437.65,790.12a545.07,545.07,0,0,1,85.62,0Z"/><path class="cls-4" d="M118.49,750.2H104.56q-.78-7.4-1.55-14.79c3.24-4.66,3.11-9.89,2.5-15.19l1.32-1.5,4.56.43C110.82,730.18,112.1,740.77,118.49,750.2Z"/><path class="cls-5" d="M89.52,822.92a356.77,356.77,0,0,1,67.37,0A480.88,480.88,0,0,1,89.52,822.92Z"/><path class="cls-5" d="M501.44,726.47c0-1.22.07-2.43.1-3.65,3.09.26,5.64-.6,7.15-3.54l5.89-7.79c8.93.2,3.19-11.63,10.46-12.79C524.24,714,518,724.59,501.44,726.47Z"/><path class="cls-1" d="M49.25,596.61,42.4,604.4c4.33-16.09,12.72-30.22,21.33-44.25l1,1Q57,578.86,49.25,596.61Z"/><path class="cls-5" d="M536.07,675.38c3.81-3.18,7.76-5.47,12.67-2.13-9.69,0-11.13,4.4-8.06,13.06,2.32,6.58,1.25,13-8.48,12.2,0-1.6.1-3.21.14-4.81,4.93-1.26,3.07-4.59,2.32-7.59C539.12,683.06,534.78,678.85,536.07,675.38Z"/><path class="cls-1" d="M49.29,516.65l7.72-.32-.23.14c.61,1.23,1.23,2.47,1.85,3.7,3.69,1.84,7.28,5,11.11,5.3,15.82,1.43,10.26,9.49,6,17.42l-1-.94c4.6-9.2,2.41-13.61-8.47-14.92A22.88,22.88,0,0,1,49.29,516.65Z"/><path class="cls-5" d="M484.81,217.5,483,214c13.16,4.36,19.72,13.94,21.47,27.29-6.15-.22-3.27-10.3-10.35-9.5a6.85,6.85,0,0,0-.11-1.63c.33-3.2-.25-6-3.57-7.39l.06.06L488.65,221l0,0Z"/><path class="cls-7" d="M105.51,720.23c.61,5.3.74,10.53-2.5,15.19a.14.14,0,0,0,0,0l-2.63-.19a1.05,1.05,0,0,1-.92.9c-4.1-2.4-7.51,4.68-11.71.86A55.59,55.59,0,0,1,105.51,720.23Z"/><path class="cls-5" d="M64.2,717.37c2.88,12.15-.44,26.19,10.84,35.79C58.19,745.25,64.36,730.35,64.2,717.37Z"/><path class="cls-5" d="M173,818.82c.37-1,.73-1.91,1.09-2.87,7.48-4.23,13.09-10.37,17.75-17.47l6.14-4.85C193.47,805.77,185.27,814.3,173,818.82Z"/><path class="cls-7" d="M541,390.58l-5.45-.44q.24-12.51.49-25l5,.12Z"/><path class="cls-1" d="M66.64,553.94c1.58-4.74,3.88-9,8.06-12l1,.94c-1.31,2.91-.57,4.61,2.81,4.74-1.57,5.53-3.14,11-8.14,14.68-1.76-2.09,3.54-6.7-2.58-7.23A15.33,15.33,0,0,0,66.64,553.94Z"/><path class="cls-5" d="M87.79,737c4.21,3.82,7.62-3.26,11.72-.86-6.77,6-10.78,15.44-21.09,17.09.58-4.56,9.56-4.95,5.77-11.66l.7.41c3.6,1,4.72-.33,3.58-3.79A1.13,1.13,0,0,1,87.79,737Z"/><path class="cls-1" d="M501,439.75l7.83.28-17.15,14.42c-1.94-5.85,6-6.41,6-11.19l0,.24,1.83-1.81,0,0,1.89-1.93Z"/><path class="cls-1" d="M488.86,459.8l3.07-1.57c3.27,4.8,9,8,9.29,14.71l-6.84-1.74Z"/><path class="cls-4" d="M242.54,747.18l3.61,2.86-1.94,3.21-19.9-.18c0-.91,0-1.82,0-2.73,4.86-1.49,10.69,2.21,14.91-2.77Z"/><path class="cls-5" d="M559.55,669.48c5.63-6.05,5.3-14.12,7.22-21.43C566.66,656,572.21,665.8,559.55,669.48Z"/><path class="cls-1" d="M508.79,440.05a43.38,43.38,0,0,1,15.83-14.82A26.4,26.4,0,0,1,508.79,440.05Z"/><path class="cls-5" d="M270,748.52c5.77,1.78,5.67,8.18,9.22,11.71C270.27,761,272.25,753.08,270,748.52Z"/><path class="cls-5" d="M286.18,760.24c6.12-5.29,13.69-5.36,21.14-5.86C300.85,758.4,293.5,759.27,286.18,760.24Z"/><path class="cls-1" d="M22.54,487.27c6.1,3.28,11.77,6.9,12.2,14.85C29.65,498,24.82,493.69,22.54,487.27Z"/><path class="cls-5" d="M558.83,615.29c-5.19-6.15-5.38-13.69-5.81-21.15C557.15,600.58,557.59,608.05,558.83,615.29Z"/><path class="cls-1" d="M35.88,503.6l11.91,11.85Q38.24,513.14,35.88,503.6Z"/><path class="cls-5" d="M103.32,754.89c0,9.52-7.44,8.94-13.65,10Z"/><path class="cls-5" d="M406.89,757.3c4.62,3.76,7.25,8.51,7.18,14.59A22.49,22.49,0,0,1,406.89,757.3Z"/><path class="cls-1" d="M519.53,505.73c-5.16-1.46-8.11-4.27-6.2-10.08C516.93,498.06,519.47,501.13,519.53,505.73Z"/><path class="cls-1" d="M508.49,483.9c-6-1.25-7.45-5.53-7.22-10.91C505.52,475.4,507.47,479.34,508.49,483.9Z"/><path class="cls-5" d="M49.81,676.94c5.55-.12,10,1.25,10.29,7.94Z"/><path class="cls-5" d="M61.16,688c3.72,1.17,6.28,3.33,6.41,7.56C63.52,694.61,60.22,693.08,61.16,688Z"/><path class="cls-5" d="M202.42,770.23c-2.16-4-1.78-7.35,2.69-9.51Q203.76,765.47,202.42,770.23Z"/><path class="cls-5" d="M414.11,771.93c4.94,1.94,6.8,5.94,7.28,10.87C417.14,780.4,415.3,776.38,414.11,771.93Z"/><path class="cls-5" d="M36.52,624.19c-.08,3.78,1,8.08-4.28,9.52l2.49-9.5h.9Z"/><path class="cls-1" d="M526.94,421.7c.16-5,2.31-8.77,6.86-11C533.51,415.58,531,419.1,526.94,421.7Z"/><path class="cls-5" d="M68.69,697.07c3.72,3.45,4.35,6.68-.69,9.49Z"/><path class="cls-9" d="M538.11,332.17c-2.83-2.39-3.59-5.57-3.43-9.1C538.94,324.93,539.52,328.18,538.11,332.17Z"/><path class="cls-5" d="M421.44,782.85c3.93.54,6,3.14,7.42,6.56C424.23,789.68,422,787.22,421.44,782.85Z"/><path class="cls-3" d="M410.24,2.16,414,3.23l5.42,4.18-.09.11C415.34,7.4,411.44,7.08,410.24,2.16Z"/><path class="cls-5" d="M244.21,753.25l1.94-3.21,6.54.74Z"/><path class="cls-1" d="M9.27,461.87c4.75.69,3.33,4.44,3.61,7.34C8.93,468.12,9.9,464.6,9.27,461.87Z"/><path class="cls-5" d="M537,546c-3.9-1.13-2.74-4.37-3-7.05C537.6,540.17,537,543.19,537,546Z"/><path class="cls-1" d="M523.16,513c-4.66-.7-3.34-4.38-3.61-7.26C523.13,507,522.91,510.12,523.16,513Z"/><path class="cls-5" d="M552.29,672.55c1.2-3.8,4.44-2.61,7.08-2.89C558,673.05,555,672.51,552.29,672.55Z"/><path class="cls-5" d="M197.9,784.88c1-2.61,2-5.21,3-7.82,1.82,3.2,0,5.54-1.85,7.88A3.76,3.76,0,0,1,197.9,784.88Z"/><path class="cls-1" d="M511.77,491.29c-4-1.14-3-4.52-3.22-7.33C511.93,485.38,512,488.26,511.77,491.29Z"/><path class="cls-1" d="M12.86,469.2c4.8.65,3.36,4.43,3.67,7.33C13.36,475.06,13.32,472,12.86,469.2Z"/><path class="cls-1" d="M6.19,454.43c4.1,1.21,2.82,4.64,3.08,7.44C6,460.32,6.06,457.39,6.19,454.43Z"/><path class="cls-1" d="M42.34,604.46c-.31,2.79,1,6.27-3.16,7.41C38.82,608.8,38.46,605.73,42.34,604.46Z"/><path class="cls-5" d="M544.24,564.2c-3.88-1.14-2.64-4.43-2.94-7.07C544.86,558.41,544.31,561.41,544.24,564.2Z"/><path class="cls-5" d="M67.82,706.74c-.29,2.66.94,6-3,7.09C64.86,711.06,64.34,708,67.82,706.74Z"/><path class="cls-5" d="M562.51,629.89c-3.63-1.22-3-3.88-2.18-6.57Q561.42,626.61,562.51,629.89Z"/><path class="cls-1" d="M530,527.79c-3.54-1-3.25-3.59-2.49-6.32C530.42,522.75,530.43,525.18,530,527.79Z"/><path class="cls-5" d="M566.15,640.84c-3.66-1.2-2.95-3.87-2.19-6.55Z"/><path class="cls-5" d="M311.7,753c1-3.23,2.84-3.75,5.44-1.61Z"/><path class="cls-1" d="M532.92,537.09c-3.09-1.33-2.47-3.83-2-6.29C533.8,532.19,534.35,534.33,532.92,537.09Z"/><path class="cls-1" d="M36.52,624.19l-.89,0h-.9c.36-2.86-.44-6.17,3-7.84C37.34,619,36.93,621.58,36.52,624.19Z"/><path class="cls-1" d="M526.72,520.36c-4.05-.73-3.58-3.43-2.73-6.29Z"/><path class="cls-1" d="M63.73,560.15l2.91-6.21a15.33,15.33,0,0,1,1.14,1.14l-3.06,6Z"/><path class="cls-5" d="M551.57,589.74c-3.65-1.23-3-3.89-2.16-6.58Z"/><path class="cls-5" d="M541.1,556.94c-4-1-3.51-3.71-2.63-6.62Q539.79,553.62,541.1,556.94Z"/><path class="cls-5" d="M163.77,821.48c1.46-2.84,3.85-2.29,6.24-1.7C168.5,822.44,166.4,822.9,163.77,821.48Z"/><path class="cls-9" d="M533.69,321.73c-2.94-1.08-2.68-3.59-2.69-6C534.4,316.62,534.46,319,533.69,321.73Z"/><path class="cls-5" d="M547.87,575.15c-3.55-1.23-2.89-3.86-2.17-6.51C546.42,570.81,547.15,573,547.87,575.15Z"/><path class="cls-9" d="M530.14,314.39c-3.18-1.21-2.5-3.75-2.12-6.18C531,309.5,530.91,311.82,530.14,314.39Z"/><path class="cls-1" d="M17.64,478.09c2.87,1,2.54,3.42,2.57,5.69C17.57,482.69,16.92,480.7,17.64,478.09Z"/><path class="cls-4" d="M540,785l-.48,2.9-3.48.25C536.26,785.76,537.71,784.87,540,785Z"/><path class="cls-7" d="M197.9,784.88a3.76,3.76,0,0,0,1.16.06l-.51,3.49C198.33,787.24,198.12,786.06,197.9,784.88Z"/><path class="cls-5" d="M100.43,735.19l2.63.19C102.18,735.33,101.3,735.26,100.43,735.19Z"/><path class="cls-10" d="M410.24,2.16c1.2,4.92,5.1,5.24,9.12,5.36,10.21,15,24.57,12.17,37.91,7.24,13.94-5.14,27.63-7.88,42.27-5.4-2.15,5.24,5.62,8.94,1.66,15.15-3.31,5.19-4.06,9.5-12.37,5.8-6.81-3-12.75,2.82-14.82,9.82-4.42,15-16.41,21.38-29.48,25.15-15,4.33-30.6,6.5-45.92,9.7-.86.18-3.6-1.36-2.34,1.64.38.91,1.88,1.36,2.86,2-9.63,1.21-19.27,2.08-28.91.07-2.89-9.13-13-7.06-18.68-11.9-1.34-1.13-3.94-.79-6-1.13l2.59,5.4c-5.67-1.29-10.64-3.71-10.59-10.4.05-6.85,4.27-10.8,10.72-12.51,0,3.92,1.31,6.12,5.39,3.72,11-6.46,23-6.2,35.12-6.13,4.57,0,9.68,0,11.52-5.07,1-2.87-1.21-5.81-4.22-7.23-6.62-3.11-6.75,2.19-8.1,6.17-.15.45-2.23.25-3.42.35.91-3.07-.31-4.91-2.86-6.84-14.31-10.83-13.87-15.45,2.08-24.26,4.47-2.47,9.08-4.67,13.62-7Z"/><path class="cls-6" d="M40.15,380.28l4.74-2c3.73-2.54,4.52-8.34,10-9l9-.24,7,5.4L73.59,378c2.94,3.1,5.75-.31,8.63-.18,10.55,5.52,18.21-3.56,27.31-5.41l3.63,1.91L111.53,378l-.07.13L95,385.2,106,386.37l5.36-.18c3.79,1.26,7.48,1.29,11-.88-.3,6.26-3.84,7.15-9.29,6.32-4.93-.76-10.59-3.83-14.5,2.38l-2,4.07-1.47,5.45-7.44,3.86c0-3.59.08-7.19,0-10.78-.17-6.22-6.6-11.49-9.08-8.23-11.74,15.47-10.27-2.49-14.65-5-.38-3.94-2.61-6.19-6.46-5.27-5.66,1.35-6.72,5.9-6.35,11C43.93,402,40.16,388.38,34.82,387l-7,.25-.22-.21C29.2,380.05,36.49,383.54,40.15,380.28Z"/><path class="cls-4" d="M67.87,191.81l.24-3.76,1.63-5.2c.48-.07,1-.12,1.46-.16,8.19,1.75,14.9-.84,20.36-7,15.15-6.58,30.09-4.65,44.94,1.1l-.15,8.49c-22.59-13.53-51.78-6.15-53.53,14.89-.92,11.13-3.61,17.5-13.54,21.14-5.64,4.07-5.78,9.89-5,16l-2,.06c-.83-3.11,1.29-6.93-2.28-9.38l-3.08-3.76q.07-3.22.13-6.45c7.64,1.09,11.52-5.65,16.75-9,1.6-1,5.67-10.71-4.37-11.21Z"/><path class="cls-4" d="M421.46,170.39c0,2.65-.09,5.29-.14,7.94l-9.13,9.92-3.59,2L404.86,192h-3.61c-.62-1.34-1.24-2.69-1.87-4,10.79-1.78,11.51-10,11.72-18.47,1.2-4.65,2.84-10.75-1.31-13.17s-7.56,2.89-10.48,6.15c-13.07,8.1-20.9-.86-29-8.94-3.11-5.15-3.91-10.81-3.62-16.7,5.56,7,11,14.16,16.78,20.94,2.58,3,6.47,3.74,9.77,1.1,3-2.39,5.4-5.5,8.06-8.3-2.73-1.51-5.76-2.67-8.15-4.62-6.65-5.42-16-6.74-21.2-14.33l7.55-.21H383c9.91,8.7,20.59,15.85,34.3,16.74Z"/><path class="cls-5" d="M311.71,72.19c12.92,2.41,12.41,9.91,7.25,19.17-9.57-3.87-5.94,7.53-10.68,9.25L284.6,108c-1.93-7.39,4-14.8-.11-22.18-.1-3.41-2.63-3.24-5-3.37l8.05-4.29C297.15,82.36,305.28,80.71,311.71,72.19Z"/><path class="cls-7" d="M117.09,116.49c0-1.07,0-2.15,0-3.23.88-5.55.26-11.62,5.44-15.67h3.07c4.75,4.72,10.54,5.62,16.85,4.64q.76,0,1.53,0c9.12,3.68,18,8,28.08,8.7l4.95.64c2,.49,4.28-2.75,6.06.47l-.72,5.28-5.18,1.57c-13.3-4.23-26.48-8.87-39.94-12.48-5.13-1.38-10.89-.42-16.36-.52.13,6.71,7.14,8.36,9.76,13.25.43.79,1,1.5,1.52,2.26l3.84,5.88c-2.26-.19-4.53-.31-6.77-.58-9.54-1.16-18.92-4.36-28.7-2.14,1.23-8.73,10.13-.93,13-6.07l1.92-1.25Z"/><path class="cls-5" d="M379.5,131.43l-7.55.21-8.1-1.9c-11.55-9.88-22.47-20.68-37.45-25.51,6.21-5.5,14.37-2.57,22.59-4.54l-18.82-2.53c7.45,0,14.94-.46,22.35.08,5.83.42,8.41,5.35,5.53,9.7-8.1,12.25,1.32,14.36,9.13,17.94C371.41,126.82,376.92,126.38,379.5,131.43Z"/><path class="cls-7" d="M62.24,237.31l2-.06c5.36,12.17,13.53,20.05,28,19,6.92-.49,13.89-.4,20.84-.57l-7.31,6.87L94.94,265c-11.52.9-21.41-3.7-31-9.22q-.33-5-.64-10.05Q62.75,241.52,62.24,237.31Z"/><path class="cls-7" d="M89.6,155.47a1.73,1.73,0,0,1,1.1-.76l6.09-1.29,11.94-2.68c9.33,0-2.39-9.55,4.74-10.57,7.57,5.84,16.17,9.48,25.34,11.91q-.62,3.49-1.25,7c-13.7-3.08-27.32-3.27-40.84,1l-18.21,4.37Z"/><path class="cls-5" d="M6.34,407.37c-.4-8.51,6.13-10.45,12.17-12.85-2,4.72-.94,7.55,4.65,7.66-.59,11.51,3.69,20.56,13.54,26.78-3.15,3.11-7.08,1.31-10.65,1.72l-5.93-5.25-3.18-3.92c-1.77-3.66-5.74-7.94-4.91-10.86C15.19,399.46,8.92,407.07,6.34,407.37Z"/><path class="cls-7" d="M235.4,89.79l3.34-4,4.36,2.47c-1.27,3.71-2.45,7.46-3.82,11.13-2.66,7.13-1.46,16.53-11.28,19.51-3.73-14.64-5.86-29.28-.1-43.93l3.51.1.18,14.56c-2.84,3.44-2.11,7.29-1.14,11.1.07.26,2,.37,2.06.26C233.55,97.26,234.47,93.52,235.4,89.79Z"/><path class="cls-1" d="M183.12,112c-1.78-3.22-4.07,0-6.06-.47,8.22-17.71,16.27-35.54,34.16-46.06l4,2.12C200.74,79.65,191.81,95.75,183.12,112Z"/><path class="cls-3" d="M384.59,40c1.19-.1,3.27.1,3.42-.35,1.35-4,1.48-9.28,8.1-6.17,3,1.42,5.26,4.36,4.22,7.23-1.84,5.07-6.95,5.1-11.52,5.07-12.08-.07-24.15-.33-35.12,6.13-4.08,2.4-5.43.2-5.39-3.72C359.14,39.87,372.8,44,384.59,40Z"/><path class="cls-7" d="M56.75,268.62l7.41.54,1.38-2.56c.09-1.22.17-2.44.26-3.66,4-3.24,5.64-1.64,7.47,2.74,2.85,6.84,6.74,13.25,10.2,19.85-.28,3.25-2.7,2.88-4.89,2.89-5.55-7.9-15.35-9.89-22.19-16Z"/><path class="cls-2" d="M83.46,285.53c-3.45-6.6-7.34-13-10.19-19.85-1.83-4.38-3.44-6-7.47-2.74l-1.89-7.14c9.62,5.52,19.51,10.12,31,9.22-2.8,5-10.12,8.54-5.41,16.1Z"/><path class="cls-1" d="M31.23,328.63c-1.38-13.63,7.55-17.46,18.43-19.44l.09,4.6-2.18,2.08c-12.37,3.87-11,10.4-3.49,18.1l-1.66,3.2c-4.52,1-7.13-2-9.84-4.73Z"/><path class="cls-4" d="M42.42,337.17c.56-1.06,1.11-2.13,1.66-3.2l3.72-1.12,19.86.17,5.39,0,5.6-1.64L78.44,334,76,337.16l.39.57-.33-.61-5.59,6.06-5.73,4.4-4.39-.69c4.15-9.43-2.3-8.77-8.26-8.86C48.89,338,45.66,337.48,42.42,337.17Z"/><path class="cls-1" d="M113.47,140.17c-7.13,1,4.59,10.53-4.74,10.57,2.35-5.54-2.76-7.51-5.38-10.16-5.52-5.56-10-12.27-6.43-19.31,3.07-6.08,10.76-3.41,16.68-2.8-2.9,5.14-11.8-2.66-13,6.07l0-.24-1.89,3.21,2.57-.08,8.32,7.74Z"/><path class="cls-10" d="M390,128.12l-5-3.89C382,111,388.54,103.8,400.34,99.93Q395.18,114,390,128.12Z"/><path class="cls-7" d="M257.56,92.93l3.34,2.91c3.9,2,6.76,1.76,7.27-3.44l2.22-1.5L272,93.45c-1.15,7.51-9.86,11.81-8.63,20.33-.89,3.17-.85,6.82-4.36,8.67-.88-10.06-2.59-19.92-6.68-29.24Z"/><path class="cls-5" d="M60.39,346.89l4.39.69-.9,2.93c-3.72,5.91-10.77,10.21-9,18.76-5.43.66-6.22,6.46-10,9C47.67,366.62,49.36,354.44,60.39,346.89Z"/><path class="cls-6" d="M6.34,407.37c2.58-.3,8.85-7.91,5.69,3.28-.83,2.92,3.14,7.2,4.9,10.86-.3,2.42.88,3.63,3.19,3.92L26,430.68c-3.32,3.37-7.54,1.53-11.36,1.95-1.44-3.3-6.86-4-5.79-9-.25-3.34,2.58-7.51-2.54-9.55Z"/><path class="cls-7" d="M330.17,97.16,349,99.69c-8.22,2-16.38-1-22.59,4.54l-18.12-3.62c4.74-1.72,1.11-13.12,10.68-9.25C317.05,104.22,327.13,93.88,330.17,97.16Z"/><path class="cls-5" d="M67.87,191.81c.5,1.89,1,3.79,1.52,5.68q-7.22,8.1-14.42,16.22l-4.59.22C51.89,203.14,61.88,199.06,67.87,191.81Z"/><path class="cls-7" d="M49.75,313.79l-.09-4.6c4.52-1.27,9.52-2.21,6.18-8.93.31-2.45.61-4.89.91-7.34l3,2L65,301l3.29,4.27v2.91Z"/><path class="cls-10" d="M434,77c6.2,2.34,1.43,6.28,0,7.25-10.17,7-20.45,14.13-33.32,15.4,9.32-4.93,18.79-9.59,27.85-15C431.05,83.18,432.25,79.58,434,77Z"/><path class="cls-5" d="M43.39,281a9.9,9.9,0,0,1-.2-10.54l4.6-4.32,3.15-.07c.08,1.95.15,3.9.23,5.85-7,7.37,1.08,12.13,3.08,17.95L49.6,292l-3.89-5.26C44.94,284.83,44.17,282.91,43.39,281Z"/><path class="cls-11" d="M215.26,67.61l-4-2.12c4.83-6.07,10.12-11.39,18.61-11.5l1,5.18Z"/><path class="cls-1" d="M257.56,92.93l-5.26.28c-2.88-2-4.26-6.79-9.2-5l-4.36-2.47C249.34,76.74,253.49,84.75,257.56,92.93Z"/><path class="cls-3" d="M348.17,71.08l-2.59-5.4c2,.34,4.62,0,6,1.13,5.72,4.84,15.79,2.77,18.68,11.9L362.85,78c-1.16-3.87-4.37-2.64-7-2.82l-.38-.35c-.61-3.84-3.2-3.35-5.86-2.68A2.55,2.55,0,0,1,348.17,71.08Z"/><path class="cls-1" d="M89.6,155.47l-11.09,9,.09-.12-1.92,3.82.12-.15-2,2,.13-.12-5.76,5.36a15,15,0,0,1-1.63.15C69.14,162.3,79.05,158.53,89.6,155.47Z"/><path class="cls-7" d="M311.71,72.19c-6.43,8.52-14.56,10.17-24.13,6l.11,0c5.66,1,9.92-1.42,13.42-5.61Z"/><path class="cls-7" d="M40.15,380.28c-3.66,3.26-10.95-.23-12.59,6.79l-6.92,3.7C23.43,380.35,29.8,376.62,40.15,380.28Z"/><path class="cls-5" d="M230.82,59.17l-1-5.18c12.7,6.11,2.3,13.95,1.58,21.06L227.9,75Q229.36,67.06,230.82,59.17Z"/><path class="cls-6" d="M20.64,390.77l6.92-3.7.22.21c-.49,4.76-1,9.52-1.44,14.29l-3.19.62c-5.58-.12-6.66-2.95-4.64-7.67Z"/><path class="cls-1" d="M172.11,110.91c-10.05-.67-19-5-28.08-8.7C154.59,101.23,163.37,106,172.11,110.91Z"/><path class="cls-1" d="M122.58,97.59c-5.18,4-4.56,10.12-5.44,15.67C113.77,106.23,110.74,99.32,122.58,97.59Z"/><path class="cls-1" d="M142.5,102.24c-6.31,1-12.1.08-16.85-4.64C131.66,97.72,137.5,98.45,142.5,102.24Z"/><path class="cls-5" d="M235.4,89.79c-.93,3.73-1.85,7.47-2.89,11.18,0,.11-2,0-2.06-.26-1-3.81-1.7-7.66,1.14-11.1Z"/><path class="cls-7" d="M279.53,82.44c2.33.13,4.86,0,5,3.38L272,93.45l-1.58-2.55c.27-.53.55-1,.82-1.56,4.67.2,7-2.47,8.05-6.63Z"/><path class="cls-5" d="M62.24,237.31q.51,4.22,1,8.44c-4.08-5.39-3.52-11.63-3.31-17.82C63.53,230.38,61.41,234.2,62.24,237.31Z"/><path class="cls-1" d="M49.6,292l4.65-2.13a6,6,0,0,1,1.26.16l1.24,2.89c-.3,2.45-.6,4.89-.91,7.34Z"/><path class="cls-5" d="M67.58,175.34a15,15,0,0,0,1.63-.15c.18,2.56.35,5.11.53,7.66l-1.63,5.2Z"/><path class="cls-5" d="M301.11,72.52c-3.5,4.19-7.76,6.58-13.42,5.61C291.63,75,295.88,72.55,301.11,72.52Z"/><path class="cls-5" d="M57,217.72q-.06,3.22-.13,6.45c-4.1-.6-6.94-2.36-6.54-7.12l4.93.28A3.28,3.28,0,0,1,57,217.72Z"/><path class="cls-5" d="M6.35,414.12c5.12,2,2.29,6.21,2.54,9.55l-3-.21C6.06,420.35,6.21,417.23,6.35,414.12Z"/><path class="cls-5" d="M279.26,82.71c-1.08,4.16-3.38,6.83-8.05,6.63C272.44,85.35,275.28,83.34,279.26,82.71Z"/><path class="cls-1" d="M51.17,271.92c-.08-1.95-.15-3.9-.23-5.85q4-1.31,5.81,2.55l-.36,3.81Z"/><path class="cls-5" d="M268.17,92.4c-.51,5.2-3.37,5.42-7.27,3.44Z"/><path class="cls-4" d="M55.27,217.33l-4.93-.28c0-1,0-2.08,0-3.12l4.59-.22Z"/><path class="cls-1" d="M47.79,266.14l-4.6,4.32C42.54,266.68,44.14,265.32,47.79,266.14Z"/><path class="cls-10" d="M355.84,75.13c2.64.18,5.85-1,7,2.82C360,78.21,357.26,78.33,355.84,75.13Z"/><path class="cls-10" d="M349.6,72.1c2.66-.67,5.25-1.16,5.86,2.68Z"/><path class="cls-1" d="M96.79,153.42l-6.09,1.29C92.28,152.14,94.3,151.66,96.79,153.42Z"/><path class="cls-1" d="M43.39,281c.78,1.91,1.55,3.83,2.32,5.74C43.17,285.54,42.53,283.58,43.39,281Z"/><path class="cls-12" d="M31.23,328.63l1.35,3.81C30.31,331.81,28.72,331,31.23,328.63Z"/><path class="cls-1" d="M117.09,116.49l-1.57.73Z"/><path class="cls-2" d="M65.54,266.6l-1.38,2.56Z"/><path class="cls-7" d="M14.68,432.63c3.82-.42,8,1.42,11.36-1.95,3.58-.41,7.51,1.39,10.66-1.72,20.5,1.15,35.39-11,50.94-21.57l7.44-3.86,3.68-3.9,9-1.66c-2.45,11.25-13.53,14.17-20.39,21.16L65.62,430.46l-28.92,8c-7.46-.05-15,.26-22.39-.26-6.11-.43-7.58,1.82-5.64,7.22l-3-.09C.65,435.43,5.48,432.49,14.68,432.63Z"/><path class="cls-13" d="M437.74,434.61c5.39,15.35,20.41,18.59,32.31,25.76q.21,3.48.44,7c-7.32,4.08-2.26,13.64-8.4,18.56-5.88,4.69-3.58,9.91-1.88,16.69,3.31,13.21,11.23,25.76,8.19,40.29-5.63-2.33-11.51-6.93-15.88,1.82a.64.64,0,0,0-.64.6c-3.82,2.06-6.55,5-7.35,9.38,0,.24,1.64,1.18,1.8,1,2.72-2.58,5.33-5.28,8-8a.86.86,0,0,0,.72-.92c12.54-3.53,18.62,8.31,28.18,11.87.1,3,.2,6.2,3.39,7.7.45.21,1.87-1.67,2.83-2.58l4.88,3.42c4,15,8.84,30.29-11.14,38.56-1.18.49-1.76,3.79-1.67,5.74.4,8.48-3.89,11-11.74,11-16.75.11-31.86-8.25-49-7.79-13.1.35-27.41.12-39.6-7-17.52-10.31-34.94-17.59-55.95-9.44-10.34,4-19.1,8.5-20.61,20-1.91,14.62-2.48,29.41-3.64,44.12l-25.39,4.66c-3.17-1-6.87,4.23-9.7-.82l1.35-4.18c.45-1.7.91-3.4,1.36-5.09q2.49-10.9,5-21.79,1.42-5.52,2.86-11.05c.19-1.2.37-2.4.56-3.61.36-1.23.71-2.46,1.06-3.7l.84-5.4q.4-2.77.82-5.56c.34-1.79.69-3.58,1-5.37l.43-3.74q.72-6.35,1.43-12.69l.75-5.56,1-12.7.54-9.2q.62-10,1.24-20l.39-9.13q.62-11.9,1.22-23.78a174.53,174.53,0,0,0,0-45.38l-1.29-20.16c-.07-1.22-.15-2.44-.22-3.66q-.56-7.63-1.1-15.27c9.23-2.92,18.29-6.73,27.74-8.52,13-2.48,19.82-8.54,19.8-22.61,0-4.75-.4-13,9.39-12.36,16,1,31.23-3.06,46.38-7.49,22.68,6.3,35.84,21.25,40.13,44.26C431.06,420.11,432,428.35,437.74,434.61ZM319.13,569.55c9.74-.12,13.54-6,13.92-14,.33-7-2.91-13-11-12.65-8.37.41-14.53,4.87-14.93,14C306.77,565.12,312.13,568.59,319.13,569.55Zm11.58-72.29c-.49-7.42-3.7-11.86-11.32-11.59-7.44.27-13.44,2.92-13.25,11.54.19,8.4,5.48,12.65,13.6,12.58S330.21,503.94,330.71,497.26Zm-19.15-66.1c-7.49.91-11.25,5.68-11.41,12.76-.17,7.55,4.12,11.9,11.84,11.73,7.07-.15,10.46-4.72,10.29-11.26S319.89,431.8,311.56,431.16Z"/><path class="cls-13" d="M87.34,419.13c6.86-7,17.94-9.91,20.39-21.16a1.31,1.31,0,0,0,.28-1.59c8.19.74,7.1,12.25,15.19,13.1.87,1,1.75,2.1,2.62,3.16,2.35,9.21,6.06,18.14,5.71,27.92,0,1.19.87,2.41,1.34,3.62a20.13,20.13,0,0,0,2.49-3.34c3.94-8.57-2.53-16.28-2.12-24.57,3.89-1.69,6,6.7,8.64,2.73s-3.9-5.33-5.79-8.31a51.3,51.3,0,0,0-4.41-5.31l17.78-5.45c11.4,10.67,18.57,23.47,20,39.25.14,1.51,1.38,2.92,2.11,4.38.85-1.3,2.6-2.72,2.44-3.88-2.22-16.43-3.61-33.41-21.71-41.55,2-2.94,4.91-3.89,8.28-3.9,37.39,3.38,74.59.7,111.43-5.42,13-2.16,19.39-.32,20.61,13.89.88,10.28-10.91,4.85-12.15,11.52l-1.69,1.45c-3.4,2.11-3,4.84-1.28,7.79l1.05,5.4c.2,1.26.41,2.52.62,3.78l1.11,10.83q0,26.59.07,53.18-.81,5.34-1.61,10.67c-6.75,9.35-4,21-7.47,31.13-2.18.56-3.89,1.3-1.42,3.66-.11,1.82-.22,3.65-.34,5.47-2.22.55-4,1.28-1.42,3.68q-1.1,5.46-2.2,10.92c-2.34.33-3.27,1.74-3.09,4q-3,11.68-5.92,23.37c-2.37.27-3.36,1.66-3.21,4q-2.64,6.35-5.29,12.67c-1.27-1.09-3.43-2-3.68-3.3-3.51-18.16-13.92-25.65-32.65-28.92-14.32-2.5-28.29-11.84-39-23.53,7.2-1.6,12.41-11.59,21.46-5.15,2,1.44,3.16,5.76,6.14,3.84,3.57-2.29.24-5.38-1-7.84-2.82-5.73-6.89-7.95-13.2-4.62-6.64,3.49-13.54,6.5-20.32,9.72-11.83-8.22-11.57-22.42-16.78-33.92L159.06,502c8.32-7.11,6.78-10.22-9.73-16.2C117.17,474.17,92.26,456,87.34,419.13Z"/><path class="cls-14" d="M242.54,747.18l-3.3.39-28-.1-10.6-1-5.86-.66c-9.19-8.21-17.69-3.85-26.75.76-4.63,2.36-10.44,3.48-14.93-1.57.14-4.66.72-9.63-6.47-9l-1-3.09c-.35-1.24-.69-2.47-1-3.7l-2.3,1.74-2.12,2.64-1.74.07c-4.57.77-10.16,1-4.43,7.67l-3.63,9.13-8.81,1.85-3.1-2.11c-6.39-9.43-7.67-20-7.1-31l.75-6.58c-3.64.44-4.12,3.6-5.31,6.15l-1.32,1.5A55.59,55.59,0,0,0,87.8,737a1.12,1.12,0,0,0,.68,1.2c-3.17-.63-3.38,1.57-3.59,3.78l-.7-.41c-7.51,5.91-9.88,1.32-11.17-5.49-3.76-19.82,4.25-35.4,17.54-49.13a57.24,57.24,0,0,0,3.57-4.58,31,31,0,0,0-5.89.37,54.07,54.07,0,0,0-8.14,2.91c-3.49,1.54-7,4.36-10.78,1.64-4.35-3.12,3.81-5.06,1.2-8.31l4.36-5.46c3.27-1.39,5.19-3.69,5-7.4l2.16-1.89c2.57-2.36,7.72-5.73,7.26-6.89-1.82-4.65-5.16.44-8,0-3.72-.56-1.22-4.07-2.57-5.79C85.41,627,104.47,639.07,119,637.8c-.29,2.87-.82,5.88,3.3,6.53V648c-1.16,8.68,1.67,14.7,11,16.42l5.46,1.83c1.84,2.65,3.22,5.83,5.58,7.88a260.42,260.42,0,0,0,59.25,38.5c12.26,5.82,23.16,19.3,37.21,14.8,12.77-4.09,16.86-.4,20.09,10,.13,1.56.25,3.12.38,4.69Z"/><path class="cls-13" d="M260.83,737.4c-3.23-10.39-7.32-14.08-20.09-10-14.05,4.5-25-9-37.21-14.8a260.42,260.42,0,0,1-59.25-38.5c-2.36-2.05-3.74-5.23-5.58-7.88,7.36-.34,11.37,5,15.82,9.46,21.86,22.1,50.08,36.1,78.56,41.86a260,260,0,0,0,98.14.77c29.19-5.44,58.31-11.43,87.19-18.32,11.18-2.67,25.78-1.07,30.18-16.74,20.83-.17,41.66-.2,62.48-.62,4.2-.09,5.1,2.14,5.9,5.2l1,5.74c0,1.83,0,3.66-.07,5.49-.5,2.47-1,4.93-1.51,7.4l-1.86,5-5.89,7.79a11.94,11.94,0,0,1-10.52-4.19l.05,0c-.42-2.43-.83-4.85-1.25-7.28l-5.74,3.34c-29,14.48-58.75,25.69-91.9,24.17l-1.75-.24-.85,0-.78-.35c.16-.22.5-.51.45-.66a7.05,7.05,0,0,0-.73-1.27l1-1.59c1.06-3.71,1.2-7.21-3.51-8.22-2.08-.44-5.39-.71-2.88,3.36q-1.49,5.74-3,11.48c-2.8,2.66-4.1,7.27-9.13,7L373,746l-.53-.55c1.55-2,1.15-3.48-1.2-4.43l-1.17-10.75-2.05-3L366.5,730,355.2,748.2c-5.41,5.77-11.6,9.45-19.91,7.48-1.5-8.12,9.3-18,2.5-22.43-6.27-4-13.72,7.46-21.65,10.12-7.07,2.38-14.1,4.91-21.15,7.36l-10.21-1.12L299,735.51l2.86-1.45c-1-.67-2.07-1.33-3.11-2l-34.23,9A3.45,3.45,0,0,0,260.83,737.4Z"/><path class="cls-2" d="M421.09,671l-25.41-2.8-5.57-.92-32.7-2.73-3.76-.39-38.18-2c-3.58-20.35.38-38.33,19.67-48.67,11.24-6,22.79,2.17,31.08,7.73,32.35,21.69,67.52,29.21,105.57,26.79,10.1-.64,24.58-1.65,24-12.62-1.11-20.51,10.75-30.07,23.92-40.35,7.51,5.62,2.66,14.57,0,16.93-19.15,17-15.73,39.27-16.2,60.76-24.43,2-48.79.86-73.12-1.63-.77-2.67-1.92-3.58-3.85-.83Z"/><path class="cls-15" d="M519.7,595c-13.17,10.28-25,19.84-23.92,40.35.59,11-13.89,12-24,12.62-38.05,2.42-73.22-5.1-105.57-26.79-8.29-5.56-19.84-13.76-31.08-7.73-19.29,10.34-23.25,28.32-19.67,48.67l-14.56.29c1.16-14.71,1.73-29.5,3.64-44.12,1.51-11.52,10.27-16,20.61-20,21-8.15,38.43-.87,55.95,9.44,12.19,7.17,26.5,7.4,39.6,7,17.17-.46,32.28,7.9,49,7.79,7.85,0,12.14-2.53,11.74-11-.09-1.95.49-5.25,1.67-5.74,20-8.27,15.1-23.51,11.14-38.56,8.32,5.88,23.34,6.1,19.2,22.68,0,.13,2.83,1,4.34,1.48Z"/><path class="cls-12" d="M195.07,641.47l-32.73-7.77-3.75-1c-8.7-3.67-17.9-4.4-27.18-4.71l-3.79-.5-27-2.49c-3.08-14.42,2.34-27.83,5.36-41.41,4.25-19.08,9.48-37.94,14.29-56.89l18.27-6.94c-1.22,2.32-1.95,5.16-3.74,6.88-8.53,8.17-7.15,26.23,2.87,34.24-3.45,2.31-6.7,5-10.41,6.81-6,2.85-5.13,7.52-3.79,12.22.48,1.68,2.74,4.41,3.53,4.2,5.44-1.45,1.62-5.9,2.45-8.95,1.54-5.64,6.78-5.86,11.1-7.39,7.83,20.27,23.72,31.78,43.82,36.15,32.81,7.14,39.06,16.07,24.29,39.09l-4.48.55-3.52-.89Z"/><path class="cls-12" d="M255.49,661.06c4.89,2.84.65,7.18,1.74,10.64-1.48,2.84-2.1,5.42,1.89,6.71l27.07-6.32,3.8-.45,19.94-.68,5.68,0,21.75.68L343,672l21.9,2.82c-.6,4.64-4.15,6-7.86,6-20.19.27-38.39,10.16-58.6,11.36-17.79,1.06-34.89,6.5-53.42,5.82-20.43-.75-34.57-12.79-49.95-21.94-5.73-3.41-9.1-12.37-18-11.54-18.26,1.71-27.43-9.38-34.7-23.57l3.68-.37,3.77.54,14.43,3.2,7.43,2.73,34.55,8,3.74,1c11.79,4,24,4.62,36.31,4.63Z"/><path class="cls-15" d="M448.59,683.26c-4.4,15.67-19,14.07-30.18,16.74-28.88,6.89-58,12.88-87.19,18.32a260,260,0,0,1-98.14-.77c-28.48-5.76-56.7-19.76-78.56-41.86-4.45-4.49-8.46-9.8-15.82-9.46l-5.46-1.83-11-16.42v-3.65l0-6.12,7.25.8c.59,2.93.75,6,1.83,8.77,6.39,16.05,22.76,19.63,35.53,27.2,28.13,16.68,55.66,34.63,91,33.56,32.62-1,65.18-1.74,96.52-11.34,22.55-6.91,45.67-6.8,68.63-9.09l5.48,0h3.62c3.33-.63,6.7-1.19,7.31-5.46Z"/><path class="cls-2" d="M423.05,688.11c-23,2.29-46.08,2.18-68.63,9.09-31.34,9.6-63.9,10.36-96.52,11.34-35.31,1.07-62.84-16.88-91-33.56-12.77-7.57-29.14-11.15-35.53-27.2-1.08-2.73-1.24-5.84-1.83-8.77l3.71-.41,3.74.63,5.31,1.71c7.27,14.19,16.44,25.28,34.7,23.57,8.93-.83,12.3,8.13,18,11.54C210.44,685.2,224.58,697.24,245,698c18.53.68,35.63-4.76,53.42-5.82,20.21-1.2,38.41-11.09,58.6-11.36,3.71,0,7.26-1.39,7.86-6l14.35,1.35c.86,2.72,2.09,3.31,3.87.67l3.62-.79,21.72,3.13C410.68,686.44,421.84,679.17,423.05,688.11Z"/><path class="cls-12" d="M519.7,595l-1.87-3.6c1.56-5.51,7.84-10.63,1.41-16.82-.59-3.77-.62-7.74-1.88-11.27-3.83-10.81-8.13-21.44-12.25-32.14,1.52.83,3.88,1.28,4.46,2.54,14.06,30.51,28.86,60.74,35.7,94,1.69,8.2,3.81,16.48,12.78,20.23,6.41,15.23-5.72,15.52-14.73,18.37-3.67,1.16-7.28,2.49-10.92,3.74l-28.9,2.61c.47-21.49-2.95-43.76,16.2-60.76C522.36,609.57,527.21,600.62,519.7,595Z"/><path class="cls-2" d="M208.65,643.05c14.77-23,8.52-31.95-24.29-39.09-20.1-4.37-36-15.88-43.82-36.15,6.61-3.24,12-9.14,20-9.45,15.76,18.52,39.15,22.45,60,31,7.82,3.19,14.33,6.1,14.92,15.65.51,8.35,1.28,16.69,1.94,25-.08,2.34-.15,4.69-.23,7-.12.52-.22,1-.3,1.57-4.72,1.69-5.12,5.63-5.06,9.8l-11.11-.35-3.77-.77-4.85-1.39Z"/><path class="cls-11" d="M70.36,562.31c5-3.63,6.57-9.15,8.14-14.69,5.93-16.12,20.35-17,34.14-19.09-3.51,8.47-5.35,18.27-10.83,25.17-17,21.43-28.69,43.79-21.35,72.15l-3.54,1.54-3.81.68-12.63,2.52c-4.35-1-7.57.62-10,4.2l-8.73,3.15L40.67,635q5.44-18.12,10.9-36.24Z"/><path class="cls-7" d="M280.49,414.22c1.24-6.67,13-1.24,12.15-11.52-1.22-14.21-7.62-16.05-20.61-13.89-36.84,6.12-74,8.8-111.43,5.42,1.65-2.84,7.16-.48,7.26-5.4l5.49-1.71L229.73,384l3.72-.68c15-1.5,30.26-1.91,45-4.85,12.58-2.51,19.28-.15,22.12,13.2.83,3.9-1.89,13.26,8.15,11.95,9.23-1.21,15.85-4.71,16-15.71.11-7.26,1.83-14.45,6.24-20.62l8.25-.18c16.64,3,31.88-2.79,47.29-7.53,6.21,1.65,3.6,5.25,1.9,8.64-15.15,4.43-30.42,8.49-46.38,7.49-9.79-.62-9.4,7.61-9.39,12.36,0,14.07-6.76,20.13-19.8,22.61-9.45,1.79-18.51,5.6-27.74,8.52C284.6,416.6,283.38,414.64,280.49,414.22Z"/><path class="cls-9" d="M80.46,625.85c-7.34-28.36,4.33-50.72,21.35-72.15,5.48-6.9,7.32-16.7,10.83-25.16l7.62-1.8c-4.81,19-10,37.81-14.29,56.89-3,13.58-8.44,27-5.36,41.41Z"/><path class="cls-11" d="M236.88,638.64c.08-.53.18-1,.3-1.57,11-9.7,14.88-23.31,20.11-36.27,4.9-12.18,5.31-26.76,17.91-35l1.31,2c-.29,2.39-.57,4.79-.86,7.19-.27,1.26-.55,2.53-.82,3.8-2.73,18.73-6,37.41-8.05,56.23-2.35,21.86-16.38,16.79-29.78,14Z"/><path class="cls-9" d="M275.2,565.8c-12.6,8.24-13,22.82-17.91,35-5.23,13-9.09,26.57-20.11,36.27.08-2.35.15-4.7.23-7.05,6.42-6.66,9.83-14.72,11-23.82q2.64-6.33,5.29-12.67l3.21-4q3-11.68,5.92-23.37l3.09-4q1.09-5.46,2.2-10.92c.48-1.23.95-2.46,1.42-3.68.12-1.82.23-3.65.34-5.47.48-1.22.95-2.44,1.42-3.66,3.51-10.13.72-21.78,7.47-31.13q0,18.29.08,36.55l-.51,3.9q-.85,4.41-1.73,8.82c-2.45.74-3.8,1.78-1,3.88C275.47,562.24,275.33,564,275.2,565.8Z"/><path class="cls-7" d="M70.36,562.31,51.57,598.8l-2.32-2.19Q57,578.87,64.72,561.1l3.06-6C73.9,555.61,68.6,560.22,70.36,562.31Z"/><path class="cls-7" d="M280.37,496.65q0-26.58-.07-53.18A121.11,121.11,0,0,1,280.37,496.65Z"/><path class="cls-7" d="M287.71,458.32a174.53,174.53,0,0,1,0,45.38A145.41,145.41,0,0,1,287.71,458.32Z"/><path class="cls-12" d="M423.05,688.11c-1.21-8.94-12.37-1.67-14.6-9l10.92-.1,3.81.77,16.28,2.85c-.61,4.27-4,4.83-7.31,5.46l-1.41-2.74-2.21,2.75Z"/><path class="cls-12" d="M534.66,686.11c.75,3,2.61,6.33-2.32,7.59-5.85-.63-9-4.48-10.52-9.62-1-3.37,2.25-2.46,4-3.23C531.4,678.39,532.6,682.88,534.66,686.11Z"/><path class="cls-7" d="M78.82,651.52c1.35,1.72-1.15,5.23,2.57,5.79,2.79.42,6.13-4.67,8,0,.46,1.16-4.69,4.53-7.26,6.89C79.36,660.38,73,657.52,78.82,651.52Z"/><path class="cls-7" d="M265.82,666.25c2.83,5,6.53-.2,9.7.82-3.16,4.12-7.36,6.12-11.92,3.32C261.63,669.18,263.19,666.71,265.82,666.25Z"/><path class="cls-9" d="M236.88,638.64l.12,10.45-5.18-.65C231.76,644.27,232.16,640.33,236.88,638.64Z"/><path class="cls-7" d="M276.36,624.14q-1.44,5.54-2.86,11.05C270.57,630.5,272.62,627.1,276.36,624.14Z"/><path class="cls-7" d="M50.48,634.79c2.43-3.58,5.65-5.24,10-4.2C58.22,634.56,54.36,634.68,50.48,634.79Z"/><path class="cls-7" d="M284.81,556.61l-.54,9.2C282,562.6,281.53,559.49,284.81,556.61Z"/><path class="cls-7" d="M286.44,527.48l-.39,9.13C283.7,533.46,283.6,530.41,286.44,527.48Z"/><path class="cls-7" d="M255.49,661.06l-9.25-.34C249.42,658.12,252.52,657.76,255.49,661.06Z"/><path class="cls-7" d="M38.44,657.06a36.74,36.74,0,0,1,.77,4.26c-3.83,1.14-4.64-2-5.91-4.46Z"/><path class="cls-7" d="M277.52,423.46c-1.71-2.95-2.12-5.68,1.28-7.79C278.37,418.27,278,420.86,277.52,423.46Z"/><path class="cls-7" d="M79.92,666.07c.15,3.71-1.77,6-5,7.4C74.72,669.74,75.57,666.71,79.92,666.07Z"/><path class="cls-7" d="M171.64,647l-7.43-2.73C168.11,641.33,169.86,644.24,171.64,647Z"/><path class="cls-7" d="M275.2,565.8c.13-1.78.27-3.56.4-5.33l1.89-.06c2.28,2.82,2.57,5.38-1,7.43Z"/><path class="cls-7" d="M259.12,678.41c-4-1.29-3.37-3.87-1.89-6.71Z"/><path class="cls-7" d="M208.65,643.05l3.44,2.88c-2.91.16-6.14,1.4-7.92-2.33Z"/><path class="cls-5" d="M516.44,706.47c.5-2.47,1-4.93,1.51-7.4C521,702.26,519.08,704.44,516.44,706.47Z"/><path class="cls-13" d="M122.32,638.21l0,6.12c-4.12-.65-3.59-3.66-3.3-6.53Z"/><path class="cls-5" d="M518,693.58l-1-5.74C519.94,689.27,520.5,691.14,518,693.58Z"/><path class="cls-7" d="M195.07,641.47l5.58,1.24C198.18,645.05,196.28,644.83,195.07,641.47Z"/><path class="cls-7" d="M279.64,605.87q-.42,2.79-.82,5.56C276.5,609.2,276.7,607.33,279.64,605.87Z"/><path class="cls-7" d="M283.28,578.51l-.75,5.56C280.16,581.86,280.34,580,283.28,578.51Z"/><path class="cls-7" d="M390.11,667.27l5.57.92C393.36,670.68,391.5,670.4,390.11,667.27Z"/><path class="cls-7" d="M315.61,671l-5.68,0Q312.81,664.9,315.61,671Z"/><path class="cls-7" d="M343,672l-5.63-.28C339.36,669.24,341.24,669.27,343,672Z"/><path class="cls-7" d="M421.09,671l5.44-.76a6.48,6.48,0,0,0,.19,1.45C424.5,674.22,422.61,674.14,421.09,671Z"/><path class="cls-7" d="M149.78,641.11l-3.77-.54C147.6,638.38,148.8,639,149.78,641.11Z"/><path class="cls-7" d="M137,639.23l-3.74-.63C134.92,636.47,136.08,637.2,137,639.23Z"/><path class="cls-7" d="M40.67,635l1.08,2.9-2.7-.41Z"/><path class="cls-7" d="M158.59,632.74l3.75,1C160.45,635.91,159.4,634.79,158.59,632.74Z"/><path class="cls-7" d="M127.62,627.53l3.79.5C129.83,630.21,128.63,629.59,127.62,627.53Z"/><path class="cls-7" d="M73.11,628.07l3.81-.68C76,629.36,74.81,630.27,73.11,628.07Z"/><path class="cls-7" d="M278,616.83c-.35,1.24-.7,2.47-1.06,3.7C274.64,618.55,275.79,617.54,278,616.83Z"/><path class="cls-7" d="M281.1,596.76l-.43,3.74C278.57,599,279.13,597.79,281.1,596.76Z"/><path class="cls-7" d="M386.73,676l-3.62.79a14.51,14.51,0,0,0-.17-1.46C384.65,673,385.82,673.76,386.73,676Z"/><path class="cls-7" d="M274.83,578.83c.27-1.27.55-2.54.82-3.8C277.83,576.83,276.79,577.92,274.83,578.83Z"/><path class="cls-12" d="M382.94,675.34a14.51,14.51,0,0,1,.17,1.46c-1.78,2.64-3,2.05-3.87-.67Z"/><path class="cls-12" d="M426.72,671.68a6.48,6.48,0,0,1-.19-1.45c1.93-2.75,3.08-1.84,3.85.83Z"/><path class="cls-11" d="M277.49,560.41l-1.89.06c-2.8-2.1-1.45-3.14,1-3.88C276.9,557.86,277.2,559.13,277.49,560.41Z"/><path class="cls-7" d="M423.18,679.81l-3.81-.77C421.19,676.58,422.32,677.51,423.18,679.81Z"/><path class="cls-7" d="M216.94,647.32l3.77.77C218.93,650.39,217.79,649.55,216.94,647.32Z"/><path class="cls-7" d="M278.33,547.77l.51-3.9C281.33,545.52,280.69,546.76,278.33,547.77Z"/><path class="cls-7" d="M69.73,651.83,71.46,648C73.84,650.57,71.83,651.22,69.73,651.83Z"/><path class="cls-7" d="M209.93,656.09l-3.74-1C208.17,652.73,209.18,653.92,209.93,656.09Z"/><path class="cls-7" d="M268.53,657c-.45,1.69-.91,3.39-1.36,5.09C266.14,660,266.25,658.18,268.53,657Z"/><path class="cls-7" d="M286.2,434.5c.07,1.22.15,2.44.22,3.66C284.63,437,284.47,435.83,286.2,434.5Z"/><path class="cls-7" d="M353.65,664.15l3.76.39C355.92,666.7,354.71,666.15,353.65,664.15Z"/><path class="cls-7" d="M279.19,432.64c-.21-1.26-.42-2.52-.62-3.78C280.76,429.79,281.38,431,279.19,432.64Z"/><path class="cls-7" d="M290,671.64l-3.8.45C287.23,670,288.44,669.42,290,671.64Z"/><path class="cls-14" d="M56.75,292.92c-.41-1-.83-1.92-1.24-2.89,1.8-9,4.74-12.88,12.33-3.66,2.38,2.9,6.36,5.64,10.74,2.05,2.19,0,4.61.36,4.89-2.89l6.06-4.41c6.58,2,9,12.13,18.06,9.34l.11,5.34c-3.69,9.86,5.55,9,9.83,10.4,6.38,2.07,12-.17,12.06-8.57v0l7.3-1.82c5.09-1.87,11.28-2.19,12.76-9.11l1.83-5.48,7.3-5.43c7.61,3.37,8.34-2,9.14-7.23l7.24-1.94c16.45-7.78,33.09-15.17,49.15-23.67,3-1.6,8.54-8.07-.86-11l-1.5-3.6.81.35.84-.27c5.09-5.14.74-11.29,1.8-16.87-.08-2.56-.17-5.12-.25-7.68l5.93-4.84c.74.85,1.74,2.55,2.17,2.42,3.28-1,1.6-3.94,2-6.09l10.73-20c5.05-.64,3.58-4.59,3.85-7.65l12.76-1.3c.18,3.77,2.75,3.76,5.5,3.48v0c0,1.83,0,3.66,0,5.49-.33,3.76,1.25,5.73,5.16,5.52l.33,5.4c-3.64,11.84,4.77,14,13,16.26,10.18,5,7.68,15.68,10.63,23.92l2.33,3.23,3.15-3.27c8.72-10.05,8.95-28.32,27.68-28.72-1.23,5.65-6.24,10.79-2.56,17,.58,1,3.54,1.66,4.58,1.06C339.19,211.87,340.4,205,341,198a55.31,55.31,0,0,0-.14-6.3l1.94-1.82,3.62-.14c.84,7.61,3.24,13.82,12.36,14.43,3.74.25,6,2.8,6.85,6.21,1.51,6.39,5.82,8.59,11.78,8.79l5.39,0c.12.48.25,1,.37,1.45-3.37,4.75-3.24,7.7,3.05,10.38,10.67,4.54,21.4,2.32,32.17,2.13,11.88,36.26,1.05,66.88-23.32,94.13-7.57,3-15.91-4.84-21.49-1.3-10.53,6.66-20.54-.8-30.85,1.49-4.28,1-14.17.65-17.31-7.72q1.5-3.78,3-7.58c2.82-.67,4.26-1.68,1-3.88-.85-13.52,6.76-21.86,16.95-29.13,3.77-2.69,4.86-7.68,3.61-12.45-.29-1.14-2.12-2.88-2.93-2.72-4.48.85-3.93,5.55-5.82,8.44-5.3,8.09-12.83,9.25-21.53,7.17-6.53-1.56-7.35-7.3-5.66-11.4,2-4.95,7.31-8.46,10.23-13.19,2.3-3.7,7.84-9.85-3.14-9.93-10.94-4.71-21.94-2.32-32.93-.25-6.73-3-10.54,1.42-13.69,6-1.84,2.69-1.57,5.9,2.93,6.45l20,10.57-3.57,17.61c-8.62,3.56-16.43,3.21-23-4.39-3.09-3.57-6-5.08-6.25,1.78-2.67,5.57.3,7.16,5.19,7.4l5.54,3.74c.66,4,3.57,3.54,6.39,3.22q1.5,6.48,3,13L282.7,314c2.78,13.94-6.49,18.69-16.74,24.36-19.36,10.71-38,5-56.36-1.07-12.23-4.05-26.78-4.48-34.56-17.89-9.14-15.78-21.45-13.56-34.52-5.4h-3.64c-8.58-1.37-17.78,5.28-24.36,2.94-18.86-6.7-16.37,8.21-18.56,16.79-1.94,7.6-.68,16-.83,24.06l-1.84,3.65c-5.66-.45-5.59,3.4-5.45,7.3-.62,2.41-1.23,4.82-1.85,7.23l-1.77,1.8c-2.88-.13-5.69,3.28-8.6.17q1.08-2,2.11-4l-4.87.45-7-5.4c-3.12-6.17,7-12.34,0-18.52l.9-2.93,5.73-4.4c1,.86,2.53,2.65,2.89,2.44,3.28-1.95,3.56-5.09,2.7-8.5l.33.61-.39-.57c4.15,1.2,6.32-.21,6.21-4.67-.44-1-.87-1.94-1.31-2.9l-2.29,1.75L73.05,333,70.33,329l-2.67,4-19.86-.17c-4-5.61-.53-11.32-.23-17l2.18-2.08,18.53-5.59,3.53-1.46-3.53-1.45L65,301c.43-2.78,2.08-5.9-1.09-7.88-.72-.45-2.73,1.14-4.15,1.8Z"/><path class="cls-15" d="M136.88,314h3.64c3.47,3.58,9.69.31,12.81,6.68,6.18,12.64,18.72,18.07,31.2,22.38,32,11,64.8,5.13,97.24,3.08,5.41-.34,13.84,3,17.64-5.24,6.21,1,12.33,7.7,18.68.31,3-3.48,4.4-7.05.68-10.94l6.69-10.5c3.14,8.37,13,8.67,17.31,7.72,10.31-2.29,20.32,5.17,30.85-1.49,5.58-3.54,13.92,4.31,21.49,1.3l-8.74,21.37c-10,.89-19.24,5-28.82,6.88-52.9,10.47-106.13,3.33-159.15.79-27-1.3-52.84.4-77.92,10.56-4.16.75-5.34,4.46-7.32,7.37l-3.63-1.91c-.32-2.44-8.58-1.55-2.74-6.54,1.79-1.53,7,.05,5.51-4-1.62-4.48-5.64-1-8.59-.59-4.13.61-8.24,1.41-12.35,2.13,0-.64,0-1.28-.07-1.92l1.84-3.65c2.86-1.28,3.47-3.78,3.84-6.6,1.82-13.52,7.43-23,22.38-26.22C125.6,323.68,133.37,321.37,136.88,314Z"/><path class="cls-13" d="M536,365.12q-.24,12.51-.49,25l.24.19c-2.06,1-1.31,1.77.23,2.45-6.83,15.34-14.91,29.77-28.79,40-13.53-1.78-22.45-15.23-36.93-14.62-3.23-2.38-6.6-4.66-7.25-9.1-2.56-9,1-17.59,1.65-26.37,22.91-5.55,46.85-7.63,66.37-23.6C536.57,354.58,533.21,363.88,536,365.12Z"/><path class="cls-9" d="M485.4,290.55l6.76-.3c10.58,10.3,22,19.91,31.56,31.08,12.42,14.49,10,26-7,35-30.78,16.35-63.71,21.32-97.88,14.79-21.92-4.18-27.53-17.32-16.27-36.62,7.63-13.06,16.16-25.6,24.58-38.17a35.92,35.92,0,0,0,6-20.6c2.54,5.58,5.56-.43,8.3.33l-2.19,16.17c-9.16,13.86-18.89,27.39-27.34,41.68-8.6,14.55-3.81,24.78,12.67,27.9,24.8,4.69,49.46,1.22,72.55-7.22,28.16-10.29,29.34-21.43,7.51-41.81-5.32-5-10.56-10-15.83-15Z"/><path class="cls-9" d="M463,409.08c.65,4.44,4,6.72,7.25,9.1,4.84,13.29,19.47,13.71,28.38,21.66.27.63.54,1.25.82,1.88l0,0-1.83,1.81,0-.24c-5.44-1.66-8.92,2.71-13.05,4.61-16.87,7.75-28.37-4.36-41.48-10.61-1.81-.87-3.6-1.77-5.4-2.65-5.71-6.26-6.68-14.5-9.2-22.1,4.26-7.76-.26-15.26-1.05-22.77-.55-5.27.73-6.31,5.44-6.29,10,0,20-.36,29.95-.57C457.21,391.64,453.55,400.4,463,409.08Z"/><path class="cls-2" d="M120.48,366.94c25.08-10.16,51-11.86,77.92-10.56,53,2.54,106.25,9.68,159.15-.79,9.58-1.9,18.85-6,28.82-6.88-.06,1.8-.12,3.6-.17,5.41-3.23.64-6.48,1.17-9.68,1.95-12.61,3.07-26.36,2.36-37.3,11.07l-8.26.18c-25.71-.72-51.78.92-77-2.9-19.74-3-39.19-3.12-58.64-2.31-9.49.39-19.92,4-27.54,11.54l-3.58.34c-11.77-2.09-17.75,10.94-28.69,11q.77-2.61,1.52-5.22c4.07-1.24,7.73-3.12,9.88-7,.16-.28-.84-1.7-1.48-1.85-4.87-1.2-8.74,1.34-12.48,3.85-.82.55-1,2.06-1.47,3.13h0c-7.42,1-13.91,4.31-20.14,8.24l-5.36.18,5.51-8.25.07-.13C119.19,378.11,121.36,373.76,120.48,366.94Z"/><path class="cls-11" d="M383.21,220.7c-.12-.49-.25-1-.37-1.45-.42-4.93-4.18-3.54-7.09-3.77l-.08-.07c2.71-10.8-7.15-15.74-10.93-23.51,12.41-2.44,18,7.5,25.06,14.28,6.08,5.86,12.63,5.6,17.6.79,6.28-6.06-.91-8.13-5-10.83-.89-.59-.78-2.71-1.13-4.13h3.61c2.76,2.68,3.13.22,3.74-1.74l3.59-2,5.25,5.09c-7.53,12.22,1.91,24.38.11,36.58-3.52-2.65-12.46,6.74-11.91-5.35,0-.48-2.4-1.38-3.75-1.57C395.67,222.13,389.44,221.45,383.21,220.7Z"/><path class="cls-9" d="M465.39,212.08l-2.09,1.46c-1.63-9.25-9.12-13.15-16.34-11.87-6.57,1.17-17.81.78-16.35,13.43l-5.3.33c-1.31-5.68-5.49-12.48.25-16.78,10-7.51,22.59-7.21,33.91-4.62C468.1,196,463.55,205.88,465.39,212.08Z"/><path class="cls-12" d="M339.22,367.14c10.94-8.71,24.69-8,37.3-11.07,3.2-.78,6.45-1.31,9.68-1.95.1,1.83.21,3.66.31,5.49C371.1,364.35,355.86,370.16,339.22,367.14Z"/><path class="cls-12" d="M383.21,220.7c6.23.75,12.46,1.43,18.68,2.3,1.35.19,3.77,1.09,3.75,1.57-.55,12.09,8.39,2.7,11.91,5.35.29,1.1.58,2.2.88,3.29-10.77.19-21.5,2.41-32.17-2.13C380,228.4,379.84,225.45,383.21,220.7Z"/><path class="cls-4" d="M507.39,264.17c8.54,3.68,3.06,11.56,5.13,17.18L512,293.84c-6.84,1.48-8.63-6.8-14.36-7.47Z"/><path class="cls-9" d="M431.13,252q-2.2-14.51-4.42-29l7.19-1.89c5.12,10,2.94,20.44,1.73,30.8Z"/><path class="cls-12" d="M417.44,193.34l-5.25-5.09,9.13-9.92,8,9.57C426.46,192.12,421.76,192.32,417.44,193.34Z"/><path class="cls-12" d="M431.13,252l4.5-.09c3.49,1,9.44-2.08,10.27,1.84,1.19,5.58-7.26,3.2-9.2,7.34l-4.46.17Z"/><path class="cls-2" d="M463,409.08c-9.47-8.68-5.81-17.44-.14-26.2l1.79-.17C464,391.49,460.46,400.1,463,409.08Z"/><path class="cls-12" d="M512,293.84l.51-12.49c6.34,5.62,6.74,13.27,7.14,20.92C515.92,300.55,512.89,298.17,512,293.84Z"/><path class="cls-12" d="M441.48,276.06c-2.74-.77-5.76,5.24-8.3-.34l-.48-11,4.12,0C433.63,270.5,446.33,269.64,441.48,276.06Z"/><path class="cls-12" d="M433.9,221.09,426.71,223c-.47-2.52-.93-5-1.4-7.55l5.3-.32c3.19.83,7.12-1.19,9.57,2.5Z"/><path class="cls-9" d="M436.82,264.78l-4.12,0c-.15-1.17-.31-2.34-.46-3.5l4.46-.17Z"/><path class="cls-4" d="M517.48,739c-4.21,11.35-15.13,6.07-22.73,8.92-6.47,2.42-19.44-1.28-18.93,5.54.56,7.33,12.91,3.67,20.06,3.94,14.15.53,28.54,1.54,41.68-5.78,6.64,17.25,4.59,19.72-13.16,20.56-27.4,1.3-54.66,6.35-82.23,1.75-13.79-2.31-23.67-9.13-30-21.7-4.33-8.62,2.51-8.85,7.05-9.17,18.5-1.35,36.23-6,53.83-11.37,1.73-.53,3.72-.89,5-2,9.11-7.56,15.43-11.93,18.93,5.55C498.67,743.42,510.44,737.68,517.48,739Z"/><path class="cls-5" d="M428.84,776.76c7.72,1.11,14.51,2,21.28,3.07,1.69.25,4.07.27,3.41,2.84-.22.85-2.5,1.91-3.59,1.69C442.87,782.92,435,783.52,428.84,776.76Z"/><path class="cls-7" d="M395.67,732.91a6.65,6.65,0,0,1,.73,1.26c.05.15-.29.44-.45.66-.07,2-.13,4.11-.2,6.16-3.26.23-6.59.62-8.44-3.06q1.47-5.73,3-11.48c4.42-.38,4.61,3.18,5.57,6Z"/><path class="cls-4" d="M498.17,715.09a11.94,11.94,0,0,0,10.52,4.19c-1.51,2.94-4.06,3.8-7.15,3.54C498,721.29,497.44,718.48,498.17,715.09Z"/><path class="cls-4" d="M491.23,711.2l5.74-3.34c.42,2.43.83,4.85,1.25,7.28Z"/><path class="cls-4" d="M545.54,777.84,543,780.33c-.32-1-.63-2-1-3Z"/><path class="cls-15" d="M397.58,735.13l1.75.24Z"/><path class="cls-4" d="M167.8,804.84c-28.64,2.46-57.19.82-85.72-1.79-3.24-.3-8.14,1.84-8.74-3.7-.53-4.91-1.61-10.68,5.34-12.7,28.61,8.77,56.59,8,83.75-5.48,3-.06,5.93-.23,4.1-4.53-.87-2.06-2.67-5.8-3-5.69-11.26,3.87-17.33-6.42-26-9.33-1.09-20.59,11.65-8.6,18.59-7.24,6.67,1.32,12.65,1.74,18-2.42,7.34-5.68,13.25,0,18.88,2.6,5,2.34.33,7.55.55,11.45.79,14-6.42,22.94-17.85,29.48C172,797.61,168.53,800.1,167.8,804.84Z"/><path class="cls-5" d="M162.43,781.17c-27.16,13.46-55.14,14.25-83.75,5.48-.64-1.23-1.29-2.45-1.93-3.67l-.06.08,1.91-1.91-.07.09,3.7-5.57-.07.07,5.55-3.7-.08.05,3.72.21c15.13,7.9,31,9.79,48,8.17C146.8,779.76,155.1,772.79,162.43,781.17Z"/><path class="cls-7" d="M162.43,781.17c-7.33-8.38-15.63-1.41-23.07-.7-17,1.62-32.88-.27-48-8.17,8.29-5.46,17.72-7.47,27.29-9.08,5.5,4.71,11,4.72,16.44-.07l2.45-1.54c8.68,2.92,14.75,13.21,26,9.34.32-.11,2.12,3.63,3,5.69C168.36,780.94,165.4,781.11,162.43,781.17Z"/><path class="cls-5" d="M171.39,812.93c-29.89,4.12-59.82,3.82-89.74.58-2.67-.29-7.46-3.47-7.29-4,1.52-4.51,5-1.07,7.42-.84,26,2.5,51.85,5.13,78,2.1,3.9-.45,7-1.48,9.19-4.82,7.15-2.63,10.23-11.71,18.9-11.92Z"/><path class="cls-7" d="M171.39,812.93l16.44-18.87,4,4.41c-4.66,7.11-10.27,13.25-17.75,17.48Z"/><path class="cls-5" d="M211.28,747.47l28,.1c-4.22,5-10.05,1.28-14.91,2.77C220.08,748.93,214.89,751.81,211.28,747.47Z"/><path class="cls-4" d="M135.08,763.15c-5.46,4.79-10.94,4.78-16.44.07C124.1,759.37,129.6,763.12,135.08,763.15Z"/><path class="cls-15" d="M146.67,736c7.19-.58,6.61,4.39,6.47,9C149.13,743.36,147.18,740.2,146.67,736Z"/><path class="cls-15" d="M134,741.33c-5.73-6.72-.14-6.9,4.43-7.67Q136.24,737.49,134,741.33Z"/><path class="cls-15" d="M121.59,752.31l8.81-1.85C128.59,756.47,125.76,757.58,121.59,752.31Z"/><path class="cls-5" d="M194.82,745.86l5.86.66C198.44,748.76,196.3,750.21,194.82,745.86Z"/><path class="cls-15" d="M142.32,731l2.3-1.74c.34,1.23.68,2.46,1,3.7a7.65,7.65,0,0,1-1.56-.35Z"/><path class="cls-4" d="M142.32,731l1.77,1.61-3.89,1Z"/><path class="cls-16" d="M436.82,264.78l-.12-3.7c1.94-4.14,10.39-1.76,9.2-7.34-.83-3.92-6.78-.79-10.27-1.84,1.21-10.37,3.39-20.8-1.73-30.81l6.28-3.48c-2.45-3.69-6.38-1.67-9.57-2.5-1.46-12.66,9.78-12.27,16.35-13.44,7.22-1.28,14.71,2.62,16.34,11.87-8,9.33-11.42,16.37-9.27,32,2,14.74,12.46,23.46,13.88,36.84.88,8.3,10.94,6.7,17.49,8.19l3.45,7.19c-7.19.56-14.3,6-21.21-2.49-7.84-9.65-17.85-11.88-28.35-3l2.19-16.17C446.33,269.64,433.63,270.5,436.82,264.78Z"/><path class="cls-4" d="M494,230.16a6.85,6.85,0,0,1,.11,1.63c6.77,12.42,4.73,25.22,2.38,38.33-1.47,8.2-6.94,10-13.37,10.82-2,.26-4.22-1.46-6.34-2.27a55.07,55.07,0,0,1,2.44-5.35c1.44-2.46,3.1-4.78,4.67-7.15-2.86-.46-5.7-1.24-8.56-1.3-4.62-.1-8.65-.53-8.66-6.55,5-2.87,14.12-1,12.66-11.15-.22-8.26-7-5.3-11.28-6.61a17.06,17.06,0,0,1,13.32-10.47l3.57-1.67,5.58.08Z"/><path class="cls-5" d="M481.4,230.09a17.06,17.06,0,0,0-13.32,10.47c-5.66.78-8.06-3.29-8.17-7.41-.15-5.62,4.82-6.93,9.51-7.32,3.83-.31,7.7-.23,11.56-.34Z"/><path class="cls-5" d="M479.36,247.17c1.46,10.19-7.7,8.28-12.66,11.15C462.66,245.22,473.07,248.54,479.36,247.17Z"/><path class="cls-5" d="M490.55,228.5l-5.58-.08c-.5-1.24-1-2.49-1.49-3.73.43-1.33.85-2.67,1.27-4l3.93.3,0,0,1.87,1.87-.06-.06Z"/><path class="cls-7" d="M483.48,224.69c.5,1.24,1,2.49,1.49,3.73l-3.57,1.67-.42-4.6Z"/><path class="cls-7" d="M488.68,221l-3.93-.3.06-3.19Z"/><path class="cls-5" d="M480.26,219.89c-.08.2-.17.59-.25.58a2.6,2.6,0,0,1-.78-.24c.08-.21.17-.6.25-.59A2.62,2.62,0,0,1,480.26,219.89Z"/><path class="cls-9" d="M558.05,648c-9-3.75-11.09-12-12.78-20.23-6.84-33.29-21.64-63.52-35.7-94-.58-1.26-2.94-1.71-4.46-2.54-.07-1.79-.14-3.59-.22-5.38.09-2.41-1.14-3.57-3.47-3.7-8-19.05-17.19-37.44-30.73-53.3a5.15,5.15,0,0,0-.2-1.46q-.23-3.48-.44-7l2.43-.39c-.35,5.53,4.78,8.14,7.65,10.46,10.82,8.75,14,24.61,28.28,29.84C532.84,546.85,546.46,597.07,558.05,648Z"/><path class="cls-11" d="M508.41,500.28c-14.27-5.23-17.46-21.09-28.28-29.84-2.87-2.32-8-4.93-7.65-10.46,5.47.56,10.87-5.06,16.38-.18l5.52,11.4Q501.4,485.75,508.41,500.28Z"/><path class="cls-15" d="M284.78,749.61,295,750.73c-3.27,4.53-7.58,3.38-11.9,2.18C283.66,751.81,284.22,750.71,284.78,749.61Z"/><path class="cls-15" d="M298.7,732.07c1,.66,2.08,1.32,3.11,2L299,735.51C298.87,734.36,298.79,733.21,298.7,732.07Z"/><path class="cls-15" d="M260.83,737.4a3.45,3.45,0,0,1,3.64,3.7l-3.26,1C261.08,740.52,261,739,260.83,737.4Z"/><path class="cls-12" d="M421.46,170.39l-4.2-22.23c5.52.89,13.64-.06,14.92,5.8C433.73,161.05,425.87,165.32,421.46,170.39Z"/><path class="cls-7" d="M370.12,730.26,371.29,741c-1.19,1.91-.75,3.37,1.2,4.43l.53.55,1.05,4.09L355.2,748.2,366.5,730Z"/><path class="cls-15" d="M374.07,750.08,373,746l5.16-1Z"/><path class="cls-9" d="M8.67,445.45c-1.94-5.4-.47-7.65,5.64-7.22,7.44.52,14.93.21,22.39.26-.23,3.56,1.17,6.26,3.71,8.81C62,468.92,87.26,484.48,115.1,496.88c9.07,4,18.54,7.21,27.44,11.65-6.81,3.19-13.4,7-20.45,9.45-20.34,7.16-40.86,10.33-61.24-.12l-4.07-1.39.23-.14C38.36,497.78,22,477.62,11.87,452.94,10.84,450.43,9.74,448,8.67,445.45Z"/><path class="cls-6" d="M82.23,775.67l-3.7,5.57C78,778.17,78.47,775.84,82.23,775.67Z"/><path class="cls-6" d="M87.71,772l-5.55,3.7C82.31,772,84.64,771.45,87.71,772Z"/><path class="cls-6" d="M78.6,781.15l-1.91,1.91Z"/><path class="cls-2" d="M498.65,439.84c-8.91-7.95-23.54-8.37-28.38-21.66,14.48-.61,23.4,12.84,36.93,14.62L501,439.75l.38,0Z"/><path class="cls-7" d="M536,392.78c-1.54-.68-2.29-1.44-.23-2.45C535.84,391.14,535.91,392,536,392.78Z"/><path class="cls-7" d="M106.83,718.73c1.19-2.55,1.67-5.71,5.31-6.15l-.75,6.58Z"/><path class="cls-7" d="M60.85,517.86c20.38,10.45,40.9,7.28,61.24.12,7-2.48,13.64-6.26,20.45-9.45l7.4-5.74c3.23,2,5.31-9.68,9.12-.77l-9.68,10.46-10.85,7.32-18.27,6.94-7.62,1.8c-13.79,2-28.21,3-34.14,19.08-3.38-.12-4.12-1.82-2.81-4.73,4.31-7.93,9.87-16-6-17.42-3.83-.35-7.42-3.46-11.12-5.3Z"/><path class="cls-5" d="M60.85,517.86l-2.23,2.31-1.84-3.7Z"/><path class="cls-7" d="M490.55,228.5l-.09-5.73c3.32,1.43,3.9,4.19,3.57,7.39Z"/><path class="cls-7" d="M490.52,222.83,488.65,221Z"/><path class="cls-7" d="M84.89,741.93c.21-2.21.42-4.41,3.59-3.78C89.61,741.6,88.49,742.94,84.89,741.93Z"/><path class="cls-5" d="M498.65,439.84l2.71,0-1.89,1.93C499.19,441.09,498.92,440.47,498.65,439.84Z"/><path class="cls-5" d="M497.69,443.5l1.83-1.81Z"/><path class="cls-4" d="M87.64,407.39C72.09,418,57.2,430.11,36.7,429c-9.85-6.22-14.13-15.27-13.54-26.78l3.17-.61c9.16-1.14,6-9.49,8.49-14.54,5.34,1.35,9.11,15,16.26,2.09,5-.28,7.16-6.93,12.81-5.75,4.38,2.52,2.91,20.48,14.65,5,2.48-3.26,8.91,2,9.08,8.23C87.72,400.2,87.64,403.8,87.64,407.39Z"/><path class="cls-4" d="M167.86,388.83c-.1,4.92-5.61,2.56-7.26,5.4-3.37,0-6.29,1-8.28,3.9l-2.86,1.8-17.78,5.45c-3.93-.9-5.88,2.26-8.48,4.1-8.09-.85-7-12.36-15.19-13.1L98.52,394c3.91-6.21,9.57-3.14,14.5-2.38,5.45.83,9-.06,9.29-6.32l9.13-2.08c4.53,3-10.81,14.53,5.36,12.63l3.65-.33c3.11,1.29,4.31-.86,5.47-3.06,7.18-1.12,10.66-7.79,16.46-11C165.92,382.66,162.67,388.91,167.86,388.83Zm-44.12,7.09c.36.78.73,1.55,1.1,2.33.29-.37.92-.87.83-1.07a27.33,27.33,0,0,0-1.57-2.85c-.2.14-.58.27-.58.4A4.89,4.89,0,0,0,123.74,395.92Z"/><path class="cls-12" d="M91.36,363.4c4.11-.72,8.22-1.52,12.35-2.13,3-.43,7-3.89,8.59.59,1.46,4.05-3.72,2.47-5.51,4-5.84,5,2.42,4.1,2.74,6.54-9.1,1.85-16.76,10.93-27.31,5.41L84,376c11.26,2.75,4.42-5.59,5.53-9.05Z"/><path class="cls-13" d="M63.88,350.51c7,6.18-3.12,12.35,0,18.52l-9,.24C53.11,360.72,60.16,356.42,63.88,350.51Z"/><path class="cls-12" d="M131.44,383.23l-9.13,2.08c-3.52,2.17-7.21,2.14-11,.88,6.23-3.93,12.72-7.23,20.14-8.24C131.45,379.71,131.44,381.47,131.44,383.23Z"/><path class="cls-5" d="M34.82,387c-2.48,5.05.67,13.4-8.49,14.54.49-4.77,1-9.53,1.45-14.29Z"/><path class="cls-12" d="M111.46,378.12,106,386.37,95,385.2Z"/><path class="cls-7" d="M63.89,383.37c-5.65-1.18-7.81,5.47-12.81,5.75-.37-5.12.69-9.67,6.35-11C61.28,377.18,63.51,379.43,63.89,383.37Z"/><path class="cls-12" d="M120.48,366.94c.88,6.82-1.29,11.17-9,11.05l1.63-3.68C115.14,371.4,116.32,367.69,120.48,366.94Z"/><path class="cls-5" d="M98.52,394l9.49,2.37a1.31,1.31,0,0,1-.28,1.59l-9,1.66-2.21-1.55Z"/><path class="cls-4" d="M96.55,398.08l2.21,1.55-3.68,3.9Z"/><path class="cls-13" d="M70.86,374.43l4.87-.45q-1,2-2.11,4C72.68,376.8,71.77,375.62,70.86,374.43Z"/><path class="cls-6" d="M231.07,199l-5.93,4.84-26.21,11.77-7.45,1.75.13-.08c-14.71,1.58-28.56-1.55-41.86-7.68l-12.89-14.19-.51-10.17.15-8.48q.54-8.85,1.06-17.71.63-3.48,1.25-7l6.14-10.9c8.64-10.5,19.64-17.59,32.27-22.31l5.18-1.57c21.76-2.93,39.11,4.39,52,22.23,1.52,2.1,1.65,6.61,6.29,4.46l4-.85c13,1.58,20.29-4.49,23.87-16.77,1.17-4,4.52-7.44,6.87-11.14l8-7.28.52.24.53-.2,23.68-7.38,18.12,3.62c15,4.83,25.9,15.63,37.45,25.51q1.41,3.56,2.84,7.11c-.29,5.89.51,11.55,3.62,16.7q1.26,5.07,2.51,10.14c-.88,1.28-1.75,2.56-2.63,3.83L353.55,186l-5,.46c-2.66-.07-5.41-.29-5.7,3.5l-2,1.82-6.95.66c-23.11,6.86-43,1-60.39-15.14L272,175.19l-3.9-5.3v0c-.15-3.83-2-4.91-5.5-3.48l-12.76,1.3c-5.85.24-3.14,4.81-3.85,7.65l-10.73,20Zm-1.18-8.81a40,40,0,0,0-6.34-54.51c-1.21-1-3.1-1.18-4.67-1.74.27,1,.27,2.2.86,3,7.75,10,7.73,21.23,5.29,32.86-17.36,20.64-37.1,32.61-64.31,17.92-.73-.4-2,.21-3,.35,1.06,1.31,1.92,2.88,3.22,3.88,10.47,8.11,23.2,5.24,34.89,6.35S221.23,204,229.89,190.19Zm50.71-68c-8.52,7.35-9.63,41.63-1.63,50.31,19.24,20.88,60.7,19.34,81.83-3,6.18-7.58,4.75-15.73,1.76-24-1.75-4.84-4.26-11-9.31-10.4-2.53.29,1.57,7.14,2,11.13.2,1.8.24,3.6.35,5.41-13.86,19.72-35.53,26.42-56.21,17.39-19.54-8.54-24-19.75-18.32-46.42l4.47-6c-.47-.25-1-.8-1.41-.71C280.75,116.72,281,119.64,280.6,122.19Zm66.09,20.56c-4.12-17-16.74-24.34-32.44-26.79-11.07-1.72-21.58.5-27.54,11.91-6.18,9.9-4.74,19.39,3.1,27.23,11.68,11.68,25.84,13.31,41.24,8.21C341.13,160,346.89,153.73,346.69,142.75ZM164,140.61c-10.6,5.6-9.35,15.77-9.19,25.15.18,10.59,7.42,16.29,16.34,19.71,20.08,7.69,45.3-7.2,49.13-28.69-.58-15.07-10.32-22.9-23.2-26.25C184.71,127.29,172.67,129.46,164,140.61Zm85.32,21.5c6.31-4.36,18.18,4,20.15-8.63,1-6.16-5.2-6-9.18-5.33-6.56,1.07-14.62-4.05-19.21,2.88C240,152.72,243,160.86,249.34,162.11Zm-101.08-13c-6,14.43-4.5,23.51,1.06,32,.79,1.22,2.85,1.62,4.33,2.4-.18-1.3,0-2.88-.61-3.86C147.74,171.78,147.17,162.91,148.26,149.09Z"/><path class="cls-9" d="M136.35,185.24l.51,10.17c-2.71-2.63-5.22-5.54-8.19-7.84-3.68-2.84-8.37-8.19-12.25-4.67-2.8,2.54,4.71,4.4,6.13,7.86.89,2.14,2.49,4,3.77,6-21.82,5.72-29.64,14.66-27.58,31.53,1.58,13,12.39,17.31,23.58,9.46l1.87.92c-1.07,7.69,3.25,16.14-5.88,23-1.71,1.29-1,11.23-7.83,15.94-2.88,2,3.4,5.21,6.8,5.24,5.35.06,10.72-.8,16.08-1.27-2.47,6.07-8.45,2.73-12.61,4.49-5.93,2.51-12.13.46-16.38-4.2-4.71-5.15,2.42-6.75,4.12-9.92,2.33-4.36-.59-6.62-2.76-9.36l7.31-6.86c1.53-2.6,6.07-3.4,4.58-7.67-.08-.25-2.08-.11-3,.28-25.13,10.54-49.67-.32-45.33-27.06,9.93-3.64,12.62-10,13.54-21.14C84.57,179.09,113.76,171.71,136.35,185.24Z"/><path class="cls-5" d="M137.56,159.05q-.52,8.85-1.06,17.71c-14.85-5.76-29.79-7.69-44.95-1.11-1.53-6.28,5.27-9.78,5.17-15.58C110.24,155.78,123.86,156,137.56,159.05Z"/><path class="cls-12" d="M69.28,221.27c-4.34,26.74,20.2,37.6,45.33,27.06.93-.39,2.93-.53,3-.28,1.49,4.27-3.05,5.07-4.58,7.67-7,.16-13.92.07-20.84.56-14.43,1-22.6-6.86-28-19C63.5,231.16,63.64,225.34,69.28,221.27Z"/><path class="cls-1" d="M96.72,160.07c.1,5.8-6.7,9.3-5.17,15.58-5.45,6.2-12.16,8.79-20.35,7q1.88-6.44,3.77-12.86l-.13.12c.66-.65,1.31-1.3,2-2l-.12.15,1.92-3.82-.09.12Z"/><path class="cls-1" d="M55.27,217.33l-.3-3.62q7.22-8.11,14.42-16.22c10,.5,6,10.18,4.37,11.21-5.23,3.37-9.11,10.11-16.75,9A3.28,3.28,0,0,0,55.27,217.33Z"/><path class="cls-7" d="M75,169.83q-1.89,6.42-3.77,12.86c-.49,0-1,.09-1.46.16-.18-2.55-.35-5.1-.53-7.66Z"/><path class="cls-1" d="M401.25,192c.35,1.42.24,3.54,1.13,4.13,4.11,2.7,11.3,4.77,5,10.83-5,4.81-11.52,5.07-17.6-.79-7-6.78-12.65-16.72-25.06-14.28-4-.24-8.52.29-9.3-5.48,2.35.37,4.78,1.34,7,1,10.18-1.48,21.52,4.2,30.47-4.86l3-.21,3,.53.45,5.09Z"/><path class="cls-9" d="M366.69,136.85q-1.43-3.56-2.84-7.11l8.1,1.9c5.15,7.59,14.55,8.91,21.2,14.33,2.39,1.95,5.42,3.11,8.15,4.62-2.66,2.8-5.07,5.91-8.06,8.3-3.3,2.64-7.19,1.9-9.77-1.1C377.65,151,372.25,143.85,366.69,136.85Z"/><path class="cls-11" d="M395.92,182.36l-3,.21-.73.08c-.69-9.68-8.83-11.73-15.57-15.2l-3.8-3.76-2.52-10.14c8.1,8.08,15.93,17,29,8.94C404.65,170.22,396.14,175.58,395.92,182.36Z"/><path class="cls-9" d="M395.92,182.36c.22-6.78,8.73-12.14,3.39-19.87,2.92-3.26,6.45-8.49,10.48-6.15s2.51,8.52,1.31,13.17l-12.17,13.38Z"/><path class="cls-12" d="M398.93,182.89l12.17-13.38c-.21,8.51-.93,16.69-11.72,18.47Z"/><path class="cls-1" d="M408.6,190.27c-.61,2-1,4.42-3.74,1.74Z"/><path class="cls-1" d="M284.6,108l-.53.2-.52-.24c-3.72.11-7.91-1.12-9.93,3.62l-2.11,0-1.16-4.16c-.72,1.35-1.44,2.69-2.15,4l-4.86,2.3c-1.23-8.52,7.48-12.82,8.63-20.33l12.52-7.63C288.6,93.19,282.67,100.6,284.6,108Z"/><path class="cls-13" d="M240.74,144c-4.64,2.15-4.77-2.36-6.29-4.46-12.94-17.84-30.29-25.16-52-22.23l.72-5.28c8.69-16.27,17.62-32.37,32.14-44.41l15.56-8.44Q229.37,67.06,227.9,75c-5.76,14.65-3.63,29.29.1,43.93C236.73,125,239.23,134.23,240.74,144Z"/><path class="cls-15" d="M177.22,118.87c-12.63,4.72-23.63,11.81-32.27,22.31-11.94-1.08-23-7.36-35.35-6l-8.32-7.74c-.23-1-.46-2.09-.68-3.13l0,.24c9.78-2.22,19.16,1,28.7,2.14,2.24.27,4.51.39,6.77.58l-3.84-5.88c-.5-.76-1.09-1.47-1.52-2.26-2.62-4.89-9.63-6.54-9.76-13.25,5.47.1,11.23-.86,16.36.52C150.74,110,163.92,114.64,177.22,118.87Z"/><path class="cls-12" d="M105.73,262.58c2.17,2.74,5.09,5,2.76,9.36-1.7,3.17-8.83,4.77-4.12,9.92,4.25,4.66,10.45,6.71,16.38,4.2,4.16-1.76,10.14,1.58,12.61-4.49,4.66-.49,8.35-2.16,9.1-7.44L156.72,268c2.7-1.61,7.92-4.05,7.71-4.68-3.76-11.26,5.07-6.23,9-7.29q.84,5.3,1.67,10.59l-7.24,1.94c-5-.12-7.72,2.76-9.14,7.23l-7.3,5.43c-4.27-.65-5.95,2.2-7.36,5.43l-9,3.71-5.49,1.82c-7.68,3.94-14.56-2.61-22-1.7-9.07,2.79-11.48-7.31-18.06-9.34-4.71-7.56,2.61-11.07,5.41-16.1Z"/><path class="cls-9" d="M109.6,135.17c12.35-1.35,23.41,4.93,35.35,6l-6.14,10.9c-9.17-2.43-17.77-6.07-25.34-11.91Z"/><path class="cls-7" d="M20.12,425.43c-2.31-.29-3.49-1.5-3.19-3.92Q18.54,423.46,20.12,425.43Z"/><path class="cls-2" d="M240.74,144c-1.51-9.76-4-19-12.74-25.11,9.82-3,8.62-12.38,11.28-19.51,1.37-3.67,2.55-7.42,3.82-11.13,4.94-1.82,6.32,3,9.2,5,4.09,9.32,5.8,19.18,6.68,29.24-1.79,2.2-3.36,6-5.42,6.27-3.87.55-3.58-4.11-4.73-6.66-2-4.29-5.11-6.5-9.35-4.58-4.43,2-1.61,5.6-.59,8.58q3,8.53,5.88,17.08Z"/><path class="cls-13" d="M78.58,288.42c-4.38,3.59-8.36.85-10.74-2.05-7.59-9.22-10.53-5.3-12.33,3.66a6,6,0,0,0-1.26-.16c-2-5.82-10.11-10.58-3.08-17.95l5.22.51C63.23,278.53,73,280.52,78.58,288.42Z"/><path class="cls-13" d="M47.57,315.87c-.3,5.66-3.8,11.37.23,17L44.08,334C36.62,326.27,35.2,319.74,47.57,315.87Z"/><path class="cls-13" d="M76.1,337.12c.86,3.41.58,6.55-2.7,8.5-.36.21-1.9-1.58-2.89-2.44Z"/><path class="cls-13" d="M82.25,332.49c.11,4.46-2.06,5.87-6.21,4.67l2.4-3.21Z"/><path class="cls-13" d="M67.66,333l2.67-4L73.05,333Z"/><path class="cls-11" d="M82.25,332.49,78.44,334l.21-2.61,2.29-1.75C81.38,330.55,81.81,331.52,82.25,332.49Z"/><path class="cls-7" d="M100.6,124.3c.22,1,.45,2.09.68,3.13l-2.57.08Z"/><path class="cls-9" d="M244.77,143.14q-2.94-8.53-5.88-17.08c-1-3-3.84-6.58.59-8.58,4.24-1.92,7.4.29,9.35,4.58,1.15,2.55.86,7.21,4.73,6.66,2.06-.29,3.63-4.07,5.42-6.27,3.51-1.85,3.47-5.5,4.36-8.67l4.86-2.3,3.31.12,2.11,0,1.89,3.66c-2.35,3.7-5.7,7.1-6.87,11.14C265.06,138.65,257.76,144.72,244.77,143.14Z"/><path class="cls-13" d="M59.75,294.94c1.42-.66,3.43-2.25,4.15-1.8,3.17,2,1.52,5.1,1.09,7.88Z"/><path class="cls-13" d="M68.28,305.29l3.53,1.45-3.53,1.46Z"/><path class="cls-7" d="M78.6,164.32l-1.92,3.82Z"/><path class="cls-7" d="M76.8,168c-.65.66-1.3,1.31-2,2C75.5,169.3,76.15,168.65,76.8,168Z"/><path class="cls-2" d="M159.06,502c-3.81-8.91-5.89,2.77-9.12.77-1.47-.88-2.84-2.14-4.43-2.6-37.57-10.7-68.29-29.22-79.89-69.73l21.72-11.33c4.92,36.9,29.83,55,62,66.69C165.84,491.8,167.38,494.91,159.06,502Z"/><path class="cls-12" d="M65.62,430.46c11.6,40.51,42.32,59,79.89,69.73,1.59.46,3,1.72,4.43,2.6l-7.4,5.74c-8.9-4.44-18.37-7.61-27.44-11.65-27.84-12.4-53.15-28-74.69-49.58-2.54-2.55-3.94-5.25-3.71-8.81Z"/><path class="cls-15" d="M470.49,467.33a5.15,5.15,0,0,1,.2,1.46c8.5,23.67-.48,49.85,10.4,73.25.63,1.37-1.61,4.07-2.51,6.15l-10.18-5.32c3-14.53-4.88-27.08-8.19-40.29-1.7-6.78-4-12,1.88-16.69C468.23,481,463.17,471.41,470.49,467.33Z"/><path class="cls-7" d="M468.4,542.87l10.18,5.32,40.66,26.39c6.43,6.19.15,11.31-1.41,16.82-1.51-.51-4.37-1.35-4.34-1.48,4.14-16.58-10.88-16.8-19.2-22.68l-4.88-3.42-6.22-5.12c-9.56-3.56-15.64-15.4-28.18-11.87l-2.49-2.14C456.89,535.94,462.77,540.54,468.4,542.87Z"/><path class="cls-7" d="M319.13,569.55c-7-1-12.36-4.43-12-12.68.4-9.15,6.56-13.61,14.93-14,8.09-.39,11.33,5.6,11,12.65C332.67,563.52,328.87,569.43,319.13,569.55Z"/><path class="cls-7" d="M330.71,497.26c-.5,6.68-2.8,12.47-11,12.53s-13.41-4.18-13.6-12.58c-.19-8.62,5.81-11.27,13.25-11.54C327,485.4,330.22,489.84,330.71,497.26Z"/><path class="cls-7" d="M311.56,431.16c8.33.64,10.55,6.54,10.72,13.23S319.06,455.5,312,455.65c-7.72.17-12-4.18-11.84-11.73C300.31,436.84,304.07,432.07,311.56,431.16Z"/><path class="cls-5" d="M454.29,547.75c-2.63,2.67-5.24,5.37-8,8-.16.15-1.85-.79-1.8-1,.8-4.38,3.53-7.32,7.35-9.38Z"/><path class="cls-15" d="M483.19,558.7l6.22,5.12c-1,.91-2.38,2.79-2.83,2.58C483.39,564.9,483.29,561.75,483.19,558.7Z"/><path class="cls-7" d="M454.29,547.75l-2.41-2.46a.64.64,0,0,1,.64-.6l2.49,2.14A.86.86,0,0,1,454.29,547.75Z"/><path class="cls-15" d="M248.4,606.2c-1.16,9.1-4.57,17.16-11,23.82-.66-8.34-1.43-16.68-1.94-25-.59-9.55-7.1-12.46-14.92-15.65-20.89-8.53-44.28-12.46-60-31l12.54-7.92c10.73,11.7,24.7,21,39,23.54,18.73,3.27,29.14,10.76,32.65,28.92C245,604.19,247.13,605.11,248.4,606.2Z"/><path class="cls-2" d="M138.53,519.8l10.85-7.32c5.21,11.5,5,25.7,16.78,33.92l-28.5,14.52c-10-8-11.4-26.07-2.87-34.24C136.58,525,137.31,522.12,138.53,519.8Z"/><path class="cls-5" d="M137.66,560.92l28.5-14.52c6.78-3.22,13.68-6.23,20.32-9.72,6.31-3.33,10.38-1.11,13.2,4.62,1.21,2.46,4.54,5.55,1,7.84-3,1.92-4.1-2.4-6.14-3.84-9-6.44-14.26,3.55-21.46,5.15l-12.54,7.91c-8,.31-13.36,6.21-20,9.45-4.32,1.53-9.56,1.75-11.1,7.39-.83,3,3,7.5-2.45,8.95-.79.21-3-2.52-3.53-4.2-1.34-4.7-2.18-9.37,3.79-12.22C131,566,134.21,563.23,137.66,560.92Z"/><path class="cls-5" d="M149.46,399.93l2.86-1.8c18.1,8.14,19.49,25.12,21.71,41.55.16,1.16-1.59,2.58-2.44,3.88-.73-1.46-2-2.87-2.11-4.38C168,423.4,160.86,410.6,149.46,399.93Z"/><path class="cls-5" d="M133.24,416.27c-.41,8.29,6.06,16,2.12,24.57a20.13,20.13,0,0,1-2.49,3.34c-.47-1.21-1.38-2.43-1.34-3.62.35-9.78-3.36-18.71-5.71-27.92C128.75,412.92,132.51,411.49,133.24,416.27Z"/><path class="cls-7" d="M133.24,416.27c-.73-4.78-4.49-3.35-7.42-3.63-.87-1.06-1.75-2.11-2.62-3.16,2.6-1.84,4.55-5,8.48-4.1a51.3,51.3,0,0,1,4.41,5.31c1.89,3,8.45,4.36,5.79,8.31S137.13,414.58,133.24,416.27Z"/><path class="cls-15" d="M256.9,589.56l-3.21,4C253.54,591.22,254.53,589.83,256.9,589.56Z"/><path class="cls-15" d="M265.91,562.18l-3.09,4C262.64,563.92,263.57,562.51,265.91,562.18Z"/><path class="cls-15" d="M269.53,547.58c-.47,1.22-.94,2.45-1.42,3.68C265.54,548.86,267.31,548.13,269.53,547.58Z"/><path class="cls-15" d="M271.29,538.45c-.47,1.22-.94,2.44-1.42,3.66C267.4,539.75,269.11,539,271.29,538.45Z"/><path class="cls-13" d="M122.29,648l11,16.42C124,662.68,121.13,656.66,122.29,648Z"/><path class="cls-15" d="M395.84,732.47c-1-2.84-1.15-6.4-5.57-6-2.51-4.07.8-3.8,2.88-3.36,4.71,1,4.57,4.51,3.51,8.22A.88.88,0,0,0,395.84,732.47Z"/><path class="cls-15" d="M370.12,730.26l-3.62-.3,1.57-2.66Z"/><path class="cls-15" d="M372.49,745.44c-1.95-1.06-2.39-2.52-1.2-4.43C373.64,742,374,743.43,372.49,745.44Z"/><path class="cls-6" d="M395.84,732.47a.88.88,0,0,1,.82-1.16l-1,1.59Z"/><path class="cls-2" d="M428.53,688.13l2.21-2.75,1.41,2.74Z"/><path class="cls-2" d="M519.24,574.58l-40.66-26.39c.9-2.08,3.14-4.78,2.51-6.15-10.88-23.4-1.9-49.58-10.4-73.25,13.54,15.86,22.71,34.25,30.73,53.3l3.47,3.7c.08,1.79.15,3.59.22,5.38,4.12,10.7,8.42,21.33,12.25,32.14C518.62,566.84,518.65,570.81,519.24,574.58Z"/><path class="cls-12" d="M167.75,373.65c7.62-7.57,18.05-11.15,27.54-11.54,19.45-.81,38.9-.68,58.64,2.31,25.25,3.82,51.32,2.18,77,2.9-4.4,6.17-6.12,13.36-6.23,20.62-.16,11-6.78,14.5-16,15.71-10,1.31-7.32-8-8.15-11.95-2.84-13.35-9.54-15.71-22.12-13.2-14.74,2.94-30,3.35-45,4.85-1.76-2.65-2.87-1.68-3.72.68l-56.38,3.09C166.6,384.67,168.24,378.72,167.75,373.65Z"/><path class="cls-9" d="M167.75,373.65c.49,5.07-1.15,11,5.6,13.47l-5.49,1.71c-5.19.08-1.94-6.17-5.48-7.34q.9-3.75,1.79-7.5Z"/><path class="cls-9" d="M229.73,384c.85-2.36,2-3.33,3.72-.68Z"/><path class="cls-7" d="M325.46,319.81l-6.69,10.5c-9.71,8.09-17.92,5.6-25.19-3.56l-3.45-5.47c-.63-1.22-1.26-2.44-1.88-3.66l-2-3.56c-.48-1.26-.95-2.52-1.42-3.78q-1.5-6.5-3-13l-6.39-3.22-5.54-3.74-5.19-7.4c.29-6.86,3.16-5.35,6.25-1.78,6.56,7.6,14.37,7.95,23,4.39,5.84-3.19,11.38-6.78,10.58-14.58-.45-4.41-4.36-2.69-7-3l-20-10.57c-.69-2.9-.22-5.15,3.25-5.67l11.06,3.64c8.68,4.76,16.63,4.69,23.35-3.52l6-6.68c11,.08,5.44,6.23,3.14,9.93-2.92,4.73-8.19,8.24-10.23,13.19-1.69,4.1-.87,9.84,5.66,11.4,8.7,2.08,16.23.92,21.53-7.17,1.89-2.89,1.34-7.59,5.82-8.44.81-.16,2.64,1.58,2.93,2.72,1.25,4.77.16,9.76-3.61,12.45-10.19,7.27-17.8,15.61-16.95,29.13-.33,1.29-.65,2.59-1,3.88Q327,316,325.46,319.81ZM292.4,303.39c1.12,10.26,3.47,22.15,14.75,23.06,10.67.86,10.83-11.65,13.52-19.68,1.36-5.76,7.31-11.95,1.15-17.32-11.46-10-19.24,2.94-28.57,5.9C288.36,296.91,290.53,300.45,292.4,303.39Z"/><path class="cls-13" d="M286.21,314.06l2,3.56c-2.64,2.91-.49,3.34,1.88,3.66l3.45,5.47c-4.59,7.42,6.14,8.53,5.83,14.19-3.8,8.25-12.23,4.9-17.64,5.24-32.44,2.05-65.25,8-97.24-3.08-12.48-4.31-25-9.74-31.2-22.38-3.12-6.37-9.34-3.1-12.81-6.68,13.07-8.16,25.38-10.38,34.52,5.4,7.78,13.41,22.33,13.84,34.56,17.89,18.35,6.09,37,11.78,56.36,1.07C276.21,332.73,285.48,328,282.7,314Z"/><path class="cls-9" d="M273.56,177.26c17.35,16.14,37.28,22,60.39,15.14-1.18,1.77-2.35,3.55-3.52,5.32-18.73.4-19,18.67-27.68,28.72l-5.48,0c-2.95-8.24-.45-18.9-10.63-23.92l-13-16.26-.33-5.4C273.37,179.69,273.46,178.47,273.56,177.26Z"/><path class="cls-13" d="M136.88,314c-3.51,7.33-11.28,9.64-17.53,11C104.4,328.2,98.79,337.71,97,351.23c-.37,2.82-1,5.32-3.84,6.6.15-8.05-1.11-16.46.83-24.06,2.19-8.58-.3-23.49,18.56-16.79C119.1,319.32,128.3,312.67,136.88,314Z"/><path class="cls-15" d="M175.15,266.6q-.83-5.3-1.67-10.6l3.52-1.8,3.63,1.46c12.85-2.51,24.6-7,32.83-18,4.25-.32,8.66-.38,10-5.77,9.4,3,3.88,9.42.86,11C208.24,251.43,191.6,258.82,175.15,266.6Z"/><path class="cls-6" d="M223.44,231.91c-1.32,5.39-5.73,5.45-10,5.77l-5.31-2.24-8.87-5.77-5.64-4c-.68-2.79-1.35-5.58-2-8.36l-.13.08,7.21.3,23.25,10.65Z"/><path class="cls-9" d="M321.16,245.14l-6,6.68c-8.21-1.68-16.57-4.33-23.35,3.52l-11.06-3.64,7.51-6.81C299.22,242.82,310.22,240.43,321.16,245.14Z"/><path class="cls-11" d="M221.94,228.31l-23.25-10.65.24-2,26.21-11.77q.12,3.84.26,7.68c-13,4.29.89,11.48-1.81,16.87l-.84.27Z"/><path class="cls-4" d="M330.43,197.72c1.17-1.77,2.34-3.55,3.52-5.32l6.95-.66A55.31,55.31,0,0,1,341,198c-.64,7-1.85,13.83-8.59,17.74-1,.6-4-.08-4.58-1.06C324.19,208.51,329.2,203.37,330.43,197.72Z"/><path class="cls-12" d="M377.45,219.21c-6-.2-10.27-2.4-11.78-8.79-.81-3.41-3.11-6-6.85-6.21-9.12-.61-11.52-6.82-12.36-14.43l1.71-1.75c5.69,12.62,22.22,14.34,27.5,27.38l.08.07C376.32,216.72,376.88,218,377.45,219.21Z"/><path class="cls-2" d="M107.59,290.46c7.44-.91,14.32,5.64,22,1.7,0,1.81,0,3.63,0,5.45v0H126c-2.66-.05-5.2.08-5.5,3.62L107.7,295.8Z"/><path class="cls-13" d="M107.7,295.8l12.75,5.44c2.67.07,5.22,0,5.5-3.62h3.64c-.09,8.4-5.68,10.64-12.06,8.57C113.25,304.81,104,305.66,107.7,295.8Z"/><path class="cls-15" d="M297.47,267.94c2.65.34,6.56-1.38,7,3,.8,7.8-4.74,11.39-10.58,14.58Z"/><path class="cls-15" d="M273.6,186.3l13,16.26C278.37,200.3,270,198.14,273.6,186.3Z"/><path class="cls-13" d="M135.08,290.34l9-3.71,5.53.05c-1.48,6.92-7.67,7.24-12.76,9.11Z"/><path class="cls-15" d="M288.23,244.89l-7.51,6.81c-3.47.52-3.94,2.77-3.25,5.67-4.5-.55-4.77-3.76-2.93-6.45C277.69,246.31,281.5,241.91,288.23,244.89Z"/><path class="cls-15" d="M223.59,228.39c2.7-5.39-11.18-12.58,1.81-16.87C224.33,217.1,228.68,223.25,223.59,228.39Z"/><path class="cls-15" d="M158.77,275.77c1.42-4.47,4.09-7.35,9.14-7.23C167.11,273.79,166.38,279.14,158.77,275.77Z"/><path class="cls-15" d="M89.52,367c-1.11,3.46,5.73,11.8-5.53,9.05.62-2.41,1.23-4.82,1.85-7.23Z"/><path class="cls-15" d="M135.08,290.34l1.8,5.45-7.3,1.82c0-1.82,0-3.64,0-5.45Z"/><path class="cls-15" d="M149.64,286.68l-5.53-.05c1.41-3.23,3.09-6.08,7.36-5.43Z"/><path class="cls-13" d="M89.52,367l-3.68,1.82c-.14-3.9-.21-7.75,5.45-7.3,0,.64,0,1.28.07,1.92Z"/><path class="cls-15" d="M264.66,282.94l5.19,7.4C265,290.1,262,288.51,264.66,282.94Z"/><path class="cls-15" d="M273.56,177.26c-.1,1.21-.19,2.43-.29,3.64-3.91.21-5.49-1.76-5.16-5.52l3.91-.19Z"/><path class="cls-15" d="M246,175.34c.71-2.84-2-7.41,3.85-7.65C249.58,170.75,251.05,174.7,246,175.34Z"/><path class="cls-9" d="M377.45,219.21c-.57-1.25-1.13-2.49-1.7-3.73,2.91.23,6.67-1.16,7.09,3.77Z"/><path class="cls-15" d="M231.07,199l4.2-3.67c-.43,2.15,1.25,5.08-2,6.09C232.81,201.55,231.81,199.85,231.07,199Z"/><path class="cls-9" d="M262.61,166.39c3.46-1.43,5.35-.35,5.5,3.48C265.36,170.15,262.79,170.16,262.61,166.39Z"/><path class="cls-15" d="M297.27,226.48l5.48,0-3.15,3.27Z"/><path class="cls-15" d="M275.39,294.08l6.39,3.22C279,297.62,276.05,298.1,275.39,294.08Z"/><path class="cls-4" d="M348.17,188l-1.71,1.75-3.62.14c.3-3.79,3.05-3.57,5.71-3.5C348.44,187,348.31,187.49,348.17,188Z"/><path class="cls-9" d="M272,175.19l-3.91.19c0-1.83,0-3.66,0-5.49Z"/><path class="cls-15" d="M328.48,312.23c.32-1.29.64-2.59,1-3.88C332.74,310.55,331.3,311.56,328.48,312.23Z"/><path class="cls-15" d="M286.21,314.06l-3.51,0,2.09-3.76C285.26,311.54,285.73,312.8,286.21,314.06Z"/><path class="cls-9" d="M299.41,340.94c.31-5.66-10.42-6.77-5.83-14.19,7.27,9.16,15.48,11.65,25.19,3.56,3.72,3.89,2.32,7.46-.68,10.94C311.74,348.64,305.62,342,299.41,340.94Z"/><path class="cls-8" d="M439.29,292.22c10.5-8.85,20.51-6.62,28.35,3,6.91,8.5,14,3.05,21.21,2.49,5.27,5,10.51,10.07,15.83,15,21.83,20.38,20.65,31.52-7.51,41.81-23.09,8.44-47.75,11.91-72.55,7.22-16.48-3.12-21.27-13.35-12.67-27.9C420.4,319.61,430.13,306.08,439.29,292.22Zm37.95,21.7c1.28-.37,2.43-.74,3.59-1.05,3.05-.84,6.1-1.66,9.15-2.49-.64-1.58-.91-3.48-2-4.67-3.59-3.94-5.63.64-8.38,1.72-4.6,1.79-8-.77-11.35-3.52-4.17-3.46-7.95-7.8-12.7-10.06-10.11-4.82-12.72,4.6-16.84,10.4-1.33,1.87-1.56,6.33,1.39,5.53C453.22,306.25,465.07,311.45,477.24,313.92Zm.38,13.41c.52-2.55-.84-4.21-4.34-4.26-4-.06-6.31,1.59-6.28,5.69,0,3.58,2,5.52,5.62,5.4C476.4,334,477.64,331.57,477.62,327.33Zm-27.54-5.86c-.87-2.78-2.57-5.38-5.54-4.56-1.56.43-3.13,3.39-3.39,5.38-.35,2.67,1.59,4.53,4.56,4C448.26,325.9,450.05,324.42,450.08,321.47Z"/><path class="cls-12" d="M164.17,374q-.88,3.75-1.79,7.5c-5.8,3.19-9.28,9.86-16.46,11-2.44-.1-4.87-.16-5.47,3.06l-3.65.33c-5-3.06-1.38-7.16-1.32-10.83C146.42,384.93,152.4,371.9,164.17,374Z"/><path class="cls-9" d="M135.48,385c-.06,3.67-3.67,7.77,1.32,10.83-16.17,1.9-.83-9.59-5.36-12.63,0-1.76,0-3.52,0-5.28h0l5.55,1.86Q136.25,382.42,135.48,385Z"/><path class="cls-12" d="M137,379.81,131.45,378c.47-1.07.65-2.58,1.47-3.13,3.74-2.51,7.61-5.05,12.48-3.85.64.15,1.64,1.57,1.48,1.85C144.73,376.69,141.07,378.57,137,379.81Z"/><path class="cls-9" d="M348.17,188c.14-.54.27-1.07.38-1.61l5-.46,1.89.46c.78,5.77,5.27,5.24,9.3,5.48,3.78,7.77,13.64,12.71,10.93,23.51C370.39,202.37,353.86,200.65,348.17,188Z"/><path class="cls-12" d="M504.89,525.79l-3.47-3.7C503.75,522.22,505,523.38,504.89,525.79Z"/><path class="cls-9" d="M140.45,395.53c.6-3.22,3-3.16,5.47-3.06C144.76,394.67,143.56,396.82,140.45,395.53Z"/><path class="cls-5" d="M124.1,394.33a27.33,27.33,0,0,1,1.57,2.85c.09.2-.54.7-.83,1.07-.37-.78-.74-1.55-1.1-2.32A8.63,8.63,0,0,0,124.1,394.33Z"/><path class="cls-6" d="M124.1,394.33a8.63,8.63,0,0,1-.36,1.6,5.06,5.06,0,0,1-.22-1.2C123.52,394.6,123.9,394.47,124.1,394.33Z"/><path class="cls-1" d="M191.61,217.28c.68,2.78,1.35,5.57,2,8.36-9.51,2.72-16.08,7.76-14.84,18.93a7.76,7.76,0,0,0-1.78.33c-7.18-3.06-6.48,6-11.26,7.32-7.55,2.13-16.93,4.29-9,15.76l-14.27,6.14c-14.25-5.48.12-21.91-10.92-28.62,3.06-4.22.82-7.3-2.19-10.22,1.9-2.16,4.36-4,5.58-6.53,3.64-7.46,1.48-19.24,14.83-19.15C163.05,215.73,176.9,218.86,191.61,217.28Z"/><path class="cls-16" d="M220.3,156.78c-3.83,21.49-29.05,36.38-49.13,28.69-8.92-3.42-16.16-9.12-16.34-19.71-.16-9.38-1.41-19.55,9.19-25.15,5.2,1.15,10.38,2.36,15.58,3.44C193.59,146.94,205.41,156.78,220.3,156.78Z"/><path class="cls-16" d="M346.69,142.75c.2,11-5.56,17.23-15.64,20.56-15.4,5.1-29.56,3.47-41.24-8.21-7.84-7.84-9.28-17.33-3.1-27.23Z"/><path class="cls-4" d="M360.8,169.46c-21.13,22.38-62.59,23.92-81.83,3-8-8.68-6.89-43,1.63-50.31l.49.42c-5.65,26.66-1.23,37.87,18.31,46.41,20.68,9,42.35,2.33,56.21-17.39C361.18,156.45,353.22,165.22,360.8,169.46Z"/><path class="cls-2" d="M346.69,142.75l-60-14.88c6-11.41,16.47-13.63,27.54-11.91C330,118.41,342.57,125.71,346.69,142.75Z"/><path class="cls-2" d="M220.3,156.78c-14.89,0-26.71-9.84-40.7-12.73-5.2-1.08-10.38-2.29-15.58-3.44,8.65-11.15,20.69-13.32,33.08-10.08C210,133.88,219.72,141.71,220.3,156.78Z"/><path class="cls-4" d="M229.89,190.19c-8.66,13.81-22.27,9.19-34.08,8.07s-24.42,1.76-34.89-6.35c-1.3-1-2.16-2.57-3.22-3.88,1-.14,2.29-.75,3-.35,27.21,14.69,46.95,2.72,64.3-17.92C232.17,175.24,224.36,184.31,229.89,190.19Z"/><path class="cls-7" d="M149.75,209.6c-13.35-.09-11.19,11.69-14.83,19.15-1.22,2.49-3.68,4.37-5.58,6.53l-5.15,3.36-1.87-.92c3.72-7.59-2.11-17.59,7.69-24.42,3.38-2.35,5.22-12.65-3.69-16.57-1.28-2-2.88-3.83-3.77-6-1.42-3.46-8.93-5.32-6.13-7.86,3.88-3.52,8.57,1.83,12.25,4.67,3,2.3,5.48,5.21,8.19,7.84Z"/><path class="cls-5" d="M229.89,190.19c-5.53-5.88,2.28-14.95-4.87-20.43,2.45-11.63,2.47-22.86-5.28-32.86-.59-.76-.59-2-.86-3,1.57.56,3.46.73,4.67,1.74A40,40,0,0,1,229.89,190.19Z"/><path class="cls-5" d="M355.44,186.42l-1.89-.46,16.64-18.43,2.81.67c6.61,4.53,9.23,14.38,19.2,14.45l.73-.08c-8.95,9.06-20.29,3.38-30.47,4.86C360.22,187.76,357.79,186.79,355.44,186.42Z"/><path class="cls-4" d="M249.34,162.11C243,160.86,240,152.72,241.1,151c4.59-6.93,12.65-1.81,19.21-2.88,4-.65,10.14-.83,9.18,5.33C267.52,166.12,255.65,157.75,249.34,162.11Z"/><path class="cls-5" d="M360.8,169.46c-7.58-4.24.38-13-5.19-17.83-.11-1.81-.15-3.61-.35-5.41-.44-4-4.54-10.84-2-11.13,5.05-.6,7.56,5.56,9.31,10.4C365.55,153.73,367,161.88,360.8,169.46Z"/><path class="cls-4" d="M148.26,149.09c-1.09,13.82-.52,22.69,4.78,30.59.66,1,.43,2.56.61,3.86-1.48-.78-3.54-1.18-4.33-2.4C143.76,172.6,142.28,163.52,148.26,149.09Z"/><path class="cls-11" d="M275.51,115.23l-1.89-3.66c2-4.74,6.21-3.51,9.93-3.62Z"/><path class="cls-4" d="M280.6,122.19c.37-2.55.15-5.47,3.54-6.26.4-.09.94.46,1.41.71l-4.46,6Z"/><path class="cls-4" d="M373,168.2l-2.81-.67,2.63-3.84,3.81,3.76Z"/><path class="cls-1" d="M198.93,215.61l-.24,2-7.21-.3Z"/><path class="cls-11" d="M126.32,196.73c8.91,3.92,7.07,14.22,3.69,16.57-9.8,6.83-4,16.83-7.69,24.42-11.19,7.85-22,3.51-23.58-9.46C96.68,211.39,104.5,202.45,126.32,196.73Z"/><path class="cls-11" d="M124.19,238.64l5.15-3.36c3,2.92,5.25,6,2.19,10.22,11,6.71-3.33,23.14,10.92,28.62-.74,5.29-4.43,7-9.09,7.45-5.36.47-10.73,1.33-16.08,1.27-3.4,0-9.68-3.25-6.8-5.24,6.81-4.71,6.12-14.65,7.83-15.94C127.44,254.78,123.12,246.33,124.19,238.64Z"/><path class="cls-6" d="M373,168.2l3.63-.75c6.74,3.47,14.88,5.52,15.57,15.2C382.23,182.58,379.61,172.73,373,168.2Z"/><path class="cls-11" d="M271.51,111.6l-3.31-.12c.71-1.35,1.43-2.69,2.15-4Z"/><path class="cls-11" d="M156.72,268c-7.89-11.47,1.49-13.63,9-15.76,4.78-1.35,4.08-10.38,11.26-7.32,0,3.1,0,6.2,0,9.3l-3.52,1.8c-4,1.07-12.81-4-9,7.3C164.64,263.93,159.42,266.37,156.72,268Z"/><path class="cls-11" d="M320.67,306.77c-2.69,8-2.85,20.54-13.52,19.68-11.28-.91-13.63-12.8-14.75-23.06C302.47,299.1,311.73,301.55,320.67,306.77Z"/><path class="cls-5" d="M320.67,306.77c-8.94-5.22-18.2-7.67-28.27-3.38-1.87-2.94-4-6.48.85-8,9.33-3,17.11-15.9,28.57-5.9C328,294.82,322,301,320.67,306.77Z"/><path class="cls-11" d="M291.78,255.34c6.78-7.85,15.14-5.2,23.35-3.52C308.41,260,300.46,260.1,291.78,255.34Z"/><path class="cls-9" d="M290.13,321.28c-2.37-.32-4.52-.75-1.88-3.66C288.87,318.84,289.5,320.06,290.13,321.28Z"/><path class="cls-12" d="M208.15,235.44l5.31,2.24c-8.23,11-20,15.47-32.83,18-1.55-8.81,11.28-6.5,11-14.3l3.7-.27C201.15,242.65,204.55,238.82,208.15,235.44Z"/><path class="cls-9" d="M191.67,241.36c.24,7.8-12.59,5.49-11,14.3L177,254.2c0-3.1,0-6.2,0-9.3a7.76,7.76,0,0,1,1.78-.33C183.28,244.25,186.63,239.42,191.67,241.36Z"/><path class="cls-11" d="M191.67,241.36c-5-1.94-8.39,2.89-12.87,3.21-1.24-11.17,5.33-16.21,14.84-18.93l5.64,4q-2,5.72-3.91,11.42Z"/><path class="cls-9" d="M195.37,241.09q1.95-5.72,3.91-11.42l8.87,5.77C204.55,238.82,201.15,242.65,195.37,241.09Z"/><path class="cls-15" d="M126,297.62c-.28,3.58-2.83,3.69-5.5,3.62C120.75,297.7,123.29,297.57,126,297.62Z"/><path class="cls-3" d="M477.24,313.92c-12.17-2.47-24-7.67-37.12-4.14-2.95.8-2.72-3.66-1.39-5.53,4.12-5.8,6.73-15.22,16.84-10.4,4.75,2.26,8.53,6.6,12.7,10.06,3.32,2.75,6.75,5.31,11.35,3.52,2.75-1.08,4.79-5.66,8.38-1.72,1.07,1.19,1.34,3.09,2,4.67-3.05.83-6.1,1.65-9.15,2.49C479.67,313.18,478.52,313.55,477.24,313.92Z"/><path class="cls-10" d="M477.62,327.33c0,4.24-1.22,6.7-5,6.83-3.61.12-5.59-1.82-5.62-5.4,0-4.1,2.32-5.75,6.28-5.69C476.78,323.12,478.14,324.78,477.62,327.33Z"/><path class="cls-10" d="M450.08,321.47c0,2.95-1.82,4.43-4.37,4.86-3,.49-4.91-1.37-4.56-4,.26-2,1.83-5,3.39-5.38C447.51,316.09,449.21,318.69,450.08,321.47Z"/></g></svg>