<?xml version="1.0" encoding="utf-8"?>
<!-- Generator: Adobe Illustrator 27.7.0, SVG Export Plug-In . SVG Version: 6.00 Build 0)  -->
<svg version="1.1" id="Layer_1" xmlns="http://www.w3.org/2000/svg" xmlns:xlink="http://www.w3.org/1999/xlink" x="0px" y="0px"
	 viewBox="0 0 107.89 72.77" style="enable-background:new 0 0 107.89 72.77;" xml:space="preserve">
<style type="text/css">
	.st0{fill:#FFD700;}
</style>
<path class="st0" d="M78.83,64.89l-4.54,1.12l-5.75-39.45l-0.04-0.05c-0.73,1.9-2.33,6.31-4.83,13.23
	c-2.49,6.92-4.92,13.86-7.28,20.83h-3.85c-2.21-6.45-4.66-13.42-7.33-20.91c-2.68-7.49-4.25-11.86-4.71-13.1l-0.06,0
	c-0.11,0.61-0.86,5.09-2.26,13.45c-1.4,8.36-2.73,17-3.99,25.94l-4.28-0.98c1.86-10.1,3.6-20.11,5.21-30.02s2.19-26.41,2.34-27.26
	l4.43-0.81c0.19,0.54,1.81,15.43,4.25,22.44c2.44,7.01,5.32,15.08,8.63,24.22h0.17c2.53-7.17,5.2-14.81,8.03-22.92
	c2.82-8.11,3.99-23.44,4.1-23.74l4.21,0.42c0.06,0.52,1.13,16.78,2.62,26.54C75.39,43.6,77.03,53.95,78.83,64.89z"/>
<path class="st0" d="M29.91,64.96c-2.38-6.89-4.81-11.72-6.91-16.66c-1.7-4.01-6.35-14.97-9.68-21.83l-0.06,0.04
	c0,6.28,0.03,14,0.1,23.15c0.07,9.15,0.11,14.43,0.13,15.83H9.15c0.02-0.59,0.05-2.67,0.08-6.26c0.04-3.59,0.06-8.58,0.06-14.98
	c0-2.55-0.01-5.95-0.03-10.18c-0.02-4.23-0.06-8.71-0.11-13.45l4.24-2.53c0.33,0.54,5.13,11.5,9.5,20.93
	c3.68,7.94,5.29,12.37,8.41,18.24C33.08,60.63,33.65,64.3,29.91,64.96z"/>
<path class="st0" d="M77.48,57.19c3.12-5.87,4.73-10.29,8.41-18.24c4.37-9.42,9.16-20.39,9.5-20.93l4.24,2.53
	c-0.06,4.73-0.09,9.22-0.11,13.45c-0.02,4.23-0.03,7.62-0.03,10.18c0,6.4,0.02,11.39,0.06,14.98c0.04,3.59,0.07,5.67,0.08,6.26
	h-4.35c0.02-1.41,0.06-6.68,0.13-15.83c0.07-9.15,0.1-16.87,0.1-23.15l-0.06-0.04c-3.33,6.86-7.98,17.82-9.68,21.83
	c-2.09,4.94-4.53,9.77-6.91,16.66C75.12,64.23,75.69,60.56,77.48,57.19z"/>
</svg>
